<?xml version="1.0" encoding="UTF-8" standalone="no"?>
<!-- Created with Inkscape (http://www.inkscape.org/) -->
<svg
   xmlns:svg="http://www.w3.org/2000/svg"
   xmlns="http://www.w3.org/2000/svg"
   version="1.0"
   width="328.09198"
   height="405.75"
   id="svg1912">
  <defs
     id="defs1914" />
  <g
     transform="matrix(3,0,0,3,8.89e-2,-1.5151)"
     id="g3051">
    <rect
       width="3.3928573"
       height="101.07143"
       x="53.92857"
       y="34.683609"
       style="fill:black;fill-opacity:1;stroke:none;stroke-width:0.5;stroke-linecap:butt;stroke-linejoin:miter;stroke-miterlimit:4;stroke-dasharray:none;stroke-dashoffset:0;stroke-opacity:1"
       id="rect1940" />
    <path
       d="M 56.964285,35.48718 L 60.803571,29.415751 L 55.535714,1.0228941 L 50.267857,29.415751 L 54.107143,35.48718 L 54.196429,35.48718 L 56.964285,35.48718 z "
       style="fill:white;fill-opacity:0.75;fill-rule:evenodd;stroke:black;stroke-width:0.5;stroke-linecap:butt;stroke-linejoin:miter;stroke-miterlimit:4;stroke-dasharray:none;stroke-opacity:1"
       id="path1942" />
    <path
       d="M 57.142856,35.48718 L 60.803571,29.415751 L 55.535714,1.0228941 L 55.535714,0.75503699 L 55.519467,35.397894 L 57.142856,35.48718 z "
       style="fill:black;fill-opacity:0.75;fill-rule:evenodd;stroke:black;stroke-width:0.5;stroke-linecap:butt;stroke-linejoin:miter;stroke-miterlimit:4;stroke-dasharray:none;stroke-opacity:1"
       id="path1944" />
  </g>
  <g
     transform="matrix(2.709951,1.286919,-1.286919,2.709951,103.8748,-53.2241)"
     id="g3056">
    <rect
       width="3.3928573"
       height="101.07143"
       x="53.92857"
       y="34.683609"
       style="fill:black;fill-opacity:1;stroke:none;stroke-width:0.5;stroke-linecap:butt;stroke-linejoin:miter;stroke-miterlimit:4;stroke-dasharray:none;stroke-dashoffset:0;stroke-opacity:1"
       id="rect3058" />
    <path
       d="M 56.964285,35.48718 L 60.803571,29.415751 L 55.535714,1.0228941 L 50.267857,29.415751 L 54.107143,35.48718 L 54.196429,35.48718 L 56.964285,35.48718 z "
       style="fill:white;fill-opacity:0.75;fill-rule:evenodd;stroke:black;stroke-width:0.5;stroke-linecap:butt;stroke-linejoin:miter;stroke-miterlimit:4;stroke-dasharray:none;stroke-opacity:1"
       id="path3060" />
    <path
       d="M 57.142856,35.48718 L 60.803571,29.415751 L 55.535714,1.0228941 L 55.535714,0.75503699 L 55.519467,35.397894 L 57.142856,35.48718 z "
       style="fill:black;fill-opacity:0.75;fill-rule:evenodd;stroke:black;stroke-width:0.5;stroke-linecap:butt;stroke-linejoin:miter;stroke-miterlimit:4;stroke-dasharray:none;stroke-opacity:1"
       id="path3062" />
  </g>
  <g
     transform="matrix(2.696283,-1.315317,1.315317,2.696283,-74.265,91.10816)"
     id="g3068">
    <rect
       width="3.3928573"
       height="101.07143"
       x="53.92857"
       y="34.683609"
       style="fill:black;fill-opacity:1;stroke:none;stroke-width:0.5;stroke-linecap:butt;stroke-linejoin:miter;stroke-miterlimit:4;stroke-dasharray:none;stroke-dashoffset:0;stroke-opacity:1"
       id="rect3070" />
    <path
       d="M 56.964285,35.48718 L 60.803571,29.415751 L 55.535714,1.0228941 L 50.267857,29.415751 L 54.107143,35.48718 L 54.196429,35.48718 L 56.964285,35.48718 z "
       style="fill:white;fill-opacity:0.75;fill-rule:evenodd;stroke:black;stroke-width:0.5;stroke-linecap:butt;stroke-linejoin:miter;stroke-miterlimit:4;stroke-dasharray:none;stroke-opacity:1"
       id="path3072" />
    <path
       d="M 57.142856,35.48718 L 60.803571,29.415751 L 55.535714,1.0228941 L 55.535714,0.75503699 L 55.519467,35.397894 L 57.142856,35.48718 z "
       style="fill:black;fill-opacity:0.75;fill-rule:evenodd;stroke:black;stroke-width:0.5;stroke-linecap:butt;stroke-linejoin:miter;stroke-miterlimit:4;stroke-dasharray:none;stroke-opacity:1"
       id="path3074" />
  </g>
  <path
     d="M 318.86239,205.25896 C 318.86239,205.25896 326.36239,208.07146 326.92489,212.38396 C 327.48739,216.69646 328.33114,224.43083 322.98739,232.44646 C 315.58114,228.46208 310.61239,225.88396 304.79989,224.19646 C 298.98739,222.50896 309.11239,207.13396 309.11239,207.13396 L 318.86239,205.25896 z "
     style="fill:#f5f5f5;fill-opacity:1;fill-rule:evenodd;stroke:black;stroke-width:1.5;stroke-linecap:butt;stroke-linejoin:miter;stroke-miterlimit:4;stroke-dasharray:none;stroke-opacity:1"
     id="path3046" />
  <path
     d="M 9.22953,205.25896 C 9.22953,205.25896 1.72953,208.07146 1.16703,212.38396 C 0.60453,216.69646 -0.23922,224.43083 5.10453,232.44646 C 12.510775,228.46208 17.479525,225.88396 23.292025,224.19646 C 29.104525,222.50896 18.979525,207.13396 18.979525,207.13396 L 9.22953,205.25896 z "
     style="fill:#f5f5f5;fill-opacity:1;fill-rule:evenodd;stroke:black;stroke-width:1.5;stroke-linecap:butt;stroke-linejoin:miter;stroke-miterlimit:4;stroke-dasharray:none;stroke-opacity:1"
     id="path3044" />
  <path
     d="M 164.3389,380.19647 C 164.3389,380.19647 168.42644,379.82147 185.3389,379.82147 C 234.0889,379.82147 306.4639,337.07147 306.4639,253.07145 C 306.4639,236.1798 306.4639,246.69645 306.4639,229.07146 C 306.4639,211.44646 318.8389,205.07146 318.8389,205.07146 L 287.3389,193.44646 C 287.3389,193.44646 267.4639,201.69255 267.4639,219.69646 C 267.4639,231.70231 267.4639,228.61588 267.4639,236.57145 C 267.4639,268.82146 264.0889,347.19647 164.3389,347.19647 C 64.5889,347.19647 61.2139,268.82146 61.2139,236.57145 C 61.2139,228.61588 61.2139,231.70231 61.2139,219.69646 C 61.2139,201.69255 41.3389,193.44646 41.3389,193.44646 L 9.8389,205.07146 C 9.8389,205.07146 22.2139,211.44646 22.2139,229.07146 C 22.2139,246.69645 22.2139,236.1798 22.2139,253.07145 C 22.2139,337.07147 94.5889,379.82147 143.3389,379.82147 C 160.25136,379.82147 164.3389,380.19647 164.3389,380.19647 z "
     style="fill:white;fill-opacity:1;fill-rule:evenodd;stroke:black;stroke-width:1.5;stroke-linecap:butt;stroke-linejoin:miter;stroke-miterlimit:4;stroke-dasharray:none;stroke-opacity:1"
     id="path2975" />
  <path
     d="M 165.81705,322.09355 C 168.4687,316.41146 170.56615,316.05119 204.64479,290.27375 C 234.19175,267.92412 239.11625,260.05564 239.11625,242.92285 C 239.11625,226.16877 239.65995,211.85627 239.11625,178.14682 C 238.73744,154.28196 248.96523,141.40252 252.3745,133.06876 C 239.87386,137.61445 220.55469,144.43297 207.29644,144.43297 C 181.156,144.43297 166.00646,133.44756 165.81705,133.44756 C 165.62765,133.44756 150.4781,144.43297 124.33767,144.43297 C 111.07941,144.43297 91.760245,137.61445 79.259605,133.06876 C 82.668871,141.40252 92.896666,154.28196 92.517859,178.14682 C 91.974157,211.85627 92.517859,226.16877 92.517859,242.92285 C 92.517859,260.05564 97.442353,267.92412 126.98931,290.27375 C 161.06796,316.05119 163.16541,316.41146 165.81705,322.09355 z "
     style="fill:#fe0000;fill-opacity:1;fill-rule:evenodd;stroke:black;stroke-width:3px;stroke-linecap:butt;stroke-linejoin:miter;stroke-opacity:1"
     id="path1981" />
  <path
     d="M 165.81705,322.09355 C 168.4687,316.41146 170.56615,316.05119 204.64479,290.27375 C 234.19175,267.92412 239.11625,260.05564 239.11625,242.92285 C 239.11625,226.16877 239.65995,211.85627 239.11625,178.14682 C 238.73744,154.28196 248.96523,141.40252 252.3745,133.06876 C 239.87386,137.61445 220.55469,144.43297 207.29644,144.43297 C 181.156,144.43297 166.00646,133.44756 165.81705,133.44756 C 165.62765,133.44756 150.4781,144.43297 124.33767,144.43297 C 111.07941,144.43297 91.760245,137.61445 79.259605,133.06876 C 82.668871,141.40252 92.896666,154.28196 92.517859,178.14682 C 91.974157,211.85627 92.517859,226.16877 92.517859,242.92285 C 92.517859,260.05564 97.442353,267.92412 126.98931,290.27375 C 161.06796,316.05119 163.16541,316.41146 165.81705,322.09355 z "
     style="fill:#fe0000;fill-opacity:1;fill-rule:evenodd;stroke:black;stroke-width:3px;stroke-linecap:butt;stroke-linejoin:miter;stroke-opacity:1"
     id="path1995" />
  <path
     d="M 78.37015,127.1099 C 76.532725,127.37303 74.920504,128.47169 74.003539,130.08555 C 73.086571,131.69941 72.968095,133.64678 73.68265,135.3599 C 77.863924,145.58079 86.877463,155.89919 86.5264,178.01615 C 85.981219,211.81748 86.5264,226.26688 86.5264,242.89115 C 86.5264,252.03241 88.100653,260.19828 93.74515,268.1099 C 99.389647,276.02152 108.45439,283.73372 123.37015,295.01615 C 140.44598,307.9325 149.59866,314.60348 154.49515,318.45365 C 159.39164,322.30382 159.3114,322.30544 160.4014,324.64115 C 161.38737,326.75363 163.50764,328.10387 165.8389,328.10387 C 168.17016,328.10387 170.29043,326.75363 171.2764,324.64115 C 172.36641,322.30544 172.28616,322.30382 177.18265,318.45365 C 182.07914,314.60348 191.23182,307.9325 208.30765,295.01615 C 223.22341,283.73372 232.1944,276.02152 237.8389,268.1099 C 243.4834,260.19828 245.1514,252.03241 245.1514,242.89115 C 245.1514,226.26687 245.69658,211.81748 245.1514,178.01615 C 244.80034,155.89918 253.72013,145.58079 257.9014,135.3599 C 258.83134,133.15853 258.36642,130.61522 256.71782,128.88521 C 255.06923,127.1552 252.55125,126.56832 250.30765,127.39115 C 237.86189,131.91688 218.47751,138.45365 207.2764,138.45365 C 195.04667,138.45365 185.46623,135.91392 178.9639,133.39115 C 175.71274,132.12977 173.30315,130.83927 171.6514,129.9224 C 170.82553,129.46397 170.20055,129.06095 169.7764,128.7974 C 169.56433,128.66563 169.36728,128.61275 169.2139,128.51615 C 169.13721,128.46785 169.07353,128.41227 168.93265,128.32865 C 168.86221,128.28684 168.76649,128.24874 168.55765,128.14115 C 168.45323,128.08735 168.37541,127.97528 168.0889,127.8599 C 167.94564,127.80221 167.43385,127.67273 167.43265,127.6724 C 167.43145,127.67207 165.83964,127.4849 165.8389,127.4849 C 165.83816,127.4849 164.24635,127.67207 164.24515,127.6724 C 164.24395,127.67273 163.73216,127.80221 163.5889,127.8599 C 163.30238,127.97528 163.13082,128.08735 163.0264,128.14115 C 162.81755,128.24875 162.72184,128.28684 162.6514,128.32865 C 162.51052,128.41227 162.44684,128.46785 162.37015,128.51615 C 162.21677,128.61276 162.11347,128.66563 161.9014,128.7974 C 161.47725,129.06095 160.85227,129.46397 160.0264,129.9224 C 158.37465,130.83927 155.87132,132.12977 152.62015,133.39115 C 146.11782,135.91392 136.53738,138.45365 124.30765,138.45365 C 113.10654,138.45365 93.722164,131.91688 81.2764,127.39115 C 80.345584,127.05954 79.34728,126.96293 78.37015,127.1099 z M 165.74515,140.4224 C 165.76299,140.43231 165.82092,140.41244 165.8389,140.4224 C 167.8958,141.56144 170.85712,143.0753 174.6514,144.5474 C 182.3063,147.51734 193.36568,150.45365 207.2764,150.45365 C 217.96466,150.45365 229.92854,146.9875 240.8389,143.32865 C 236.88532,151.65612 232.89859,162.27623 233.1514,178.20365 C 233.69362,211.82124 233.1514,226.00726 233.1514,242.89115 C 233.1514,250.88268 232.29339,255.27917 228.0889,261.1724 C 223.88441,267.06563 215.62635,274.38646 200.99515,285.45365 C 183.99234,298.31476 175.11121,304.79006 169.7764,308.9849 C 168.04813,310.34387 167.03105,311.47886 165.8389,312.64115 C 164.64675,311.47886 163.62967,310.34387 161.9014,308.9849 C 156.56659,304.79006 147.59172,298.31476 130.5889,285.45365 C 115.9577,274.38646 107.79339,267.06563 103.5889,261.1724 C 99.384409,255.27917 98.5264,250.88268 98.5264,242.89115 C 98.5264,226.00726 97.984183,211.82123 98.5264,178.20365 C 98.779216,162.27624 94.792477,151.65657 90.8389,143.32865 C 101.74926,146.9875 113.61938,150.45365 124.30765,150.45365 C 138.21836,150.45365 149.27775,147.51734 156.93265,144.5474 C 160.72693,143.0753 163.68825,141.56143 165.74515,140.4224 z "
     style="fill:#ffd504;fill-opacity:1;fill-rule:evenodd;stroke:black;stroke-width:1.5;stroke-linecap:butt;stroke-linejoin:round;stroke-miterlimit:4;stroke-dasharray:none;stroke-opacity:1"
     id="path1998" />
  <path
     d="M 166.12015,268.44646 C 175.59076,268.44646 180.0889,267.88396 183.2764,263.19646 C 185.09034,260.5289 184.64569,253.89622 187.0264,250.44645 C 189.40711,246.99669 194.29142,246.59663 199.4014,246.69645 C 204.84213,246.69645 210.8389,242.19667 210.8389,236.94645 C 210.8389,231.69457 210.6514,197.02173 210.6514,184.63396 C 214.4014,184.63396 219.2764,181.08847 219.2764,176.94646 C 219.2764,173.00896 216.46674,170.57146 210.2764,170.57146 C 203.51599,170.57146 203.5264,173.19646 200.7139,175.44646 C 192.0889,170.75896 182.47953,165.60271 166.12015,166.07146 C 149.76078,165.60271 140.1514,170.75896 131.5264,175.44646 C 128.7139,173.19646 128.72431,170.57146 121.9639,170.57146 C 115.77356,170.57146 112.9639,173.00896 112.9639,176.94646 C 112.9639,181.08847 117.8389,184.63396 121.5889,184.63396 C 121.5889,197.02173 121.4014,231.69457 121.4014,236.94645 C 121.4014,242.19667 127.39817,246.69645 132.8389,246.69645 C 137.94888,246.59663 142.83319,246.99669 145.2139,250.44645 C 147.59461,253.89622 147.14996,260.5289 148.9639,263.19646 C 152.1514,267.88396 156.64954,268.44646 166.12015,268.44646 z "
     style="fill:#ffd504;fill-opacity:1;fill-rule:evenodd;stroke:black;stroke-width:1.5;stroke-linecap:butt;stroke-linejoin:miter;stroke-miterlimit:4;stroke-dasharray:none;stroke-opacity:1"
     id="path2890" />
  <path
     d="M 180.2139,185.19646 C 177.5889,182.38396 173.0889,178.63396 166.1514,178.63396 C 166.1514,178.63396 173.0889,178.63396 166.24515,178.63396 C 159.4014,178.63396 154.9014,182.38396 152.2764,185.19646"
     style="fill:none;fill-opacity:0.75;fill-rule:evenodd;stroke:black;stroke-width:1.5;stroke-linecap:butt;stroke-linejoin:miter;stroke-miterlimit:4;stroke-dasharray:none;stroke-opacity:1"
     id="path2915" />
  <path
     d="M 145.5889,227.00896 L 145.5889,211.63396 L 133.5889,203.19646 L 133.5889,223.82146"
     style="fill:none;fill-opacity:0.75;fill-rule:evenodd;stroke:black;stroke-width:1.5;stroke-linecap:butt;stroke-linejoin:miter;stroke-miterlimit:4;stroke-dasharray:none;stroke-opacity:1"
     id="path2922" />
  <path
     d="M 187.2139,227.00896 L 187.2139,211.63396 L 199.2139,203.19646 L 199.2139,223.82146"
     style="fill:none;fill-opacity:0.75;fill-rule:evenodd;stroke:black;stroke-width:1.5;stroke-linecap:butt;stroke-linejoin:miter;stroke-miterlimit:4;stroke-dasharray:none;stroke-opacity:1"
     id="path2924" />
  <path
     d="M 177.8389,236.00895 L 166.4014,226.44646 L 154.2139,236.00895"
     style="fill:none;fill-opacity:0.75;fill-rule:evenodd;stroke:black;stroke-width:1.5;stroke-linecap:butt;stroke-linejoin:miter;stroke-miterlimit:4;stroke-dasharray:none;stroke-opacity:1"
     id="path2926" />
  <path
     d="M 166.49515,236.1027 L 154.87015,236.1027 C 154.87015,236.1027 156.0889,246.69645 156.18265,249.9777 C 156.2764,253.25895 157.68265,254.94645 160.30765,255.13395 C 162.93265,255.32145 166.7764,255.13395 166.7764,255.13395"
     style="fill:none;fill-opacity:0.75;fill-rule:evenodd;stroke:black;stroke-width:1.5;stroke-linecap:butt;stroke-linejoin:miter;stroke-miterlimit:4;stroke-dasharray:none;stroke-opacity:1"
     id="path2937" />
  <path
     d="M 166.54203,255.13395 C 166.54203,255.13395 170.1514,255.32145 172.7764,255.13395 C 175.4014,254.94645 176.80765,253.25895 176.9014,249.9777 C 176.99515,246.69645 178.2139,236.1027 178.2139,236.1027 L 166.54203,236.1027 L 154.87015,236.1027 C 154.87015,236.1027 156.0889,246.69645 156.18265,249.9777 C 156.2764,253.25895 157.68265,254.94645 160.30765,255.13395 C 162.93265,255.32145 166.54203,255.13395 166.54203,255.13395 z "
     style="fill:black;fill-opacity:1;fill-rule:evenodd;stroke:black;stroke-width:1.5;stroke-linecap:butt;stroke-linejoin:miter;stroke-miterlimit:4;stroke-opacity:1"
     id="path2939" />
  <path
     d="M 157.4014,236.75895 L 160.4014,244.7277 L 163.2139,236.8527 L 157.4014,236.75895 z "
     style="fill:white;fill-opacity:0.75;fill-rule:evenodd;stroke:black;stroke-width:0.60000002;stroke-linecap:butt;stroke-linejoin:miter;stroke-miterlimit:4;stroke-dasharray:none;stroke-opacity:1"
     id="path2946" />
  <path
     d="M 169.12015,236.75895 L 172.12015,244.7277 L 174.93265,236.8527 L 169.12015,236.75895 z "
     style="fill:white;fill-opacity:0.75;fill-rule:evenodd;stroke:black;stroke-width:0.60000002;stroke-linecap:butt;stroke-linejoin:miter;stroke-miterlimit:4;stroke-dasharray:none;stroke-opacity:1"
     id="path2948" />
  <path
     d="M 168.6514,254.94645 L 170.99515,248.75895 L 173.43265,254.75895 L 168.6514,254.94645 z "
     style="fill:white;fill-opacity:0.75;fill-rule:evenodd;stroke:black;stroke-width:0.60000002;stroke-linecap:butt;stroke-linejoin:miter;stroke-miterlimit:4;stroke-dasharray:none;stroke-opacity:1"
     id="path2950" />
  <path
     d="M 158.9014,254.94645 L 161.24515,248.75895 L 163.68265,254.75895 L 158.9014,254.94645 z "
     style="fill:white;fill-opacity:0.75;fill-rule:evenodd;stroke:black;stroke-width:0.60000002;stroke-linecap:butt;stroke-linejoin:miter;stroke-miterlimit:4;stroke-dasharray:none;stroke-opacity:1"
     id="path2952" />
  <path
     d="M 166.35453,226.82145 L 175.87015,217.5402 L 166.35453,217.44645 L 156.8389,217.5402 L 166.35453,226.82145 z "
     style="fill:none;fill-opacity:0.75;fill-rule:evenodd;stroke:black;stroke-width:1.5;stroke-linecap:butt;stroke-linejoin:miter;stroke-miterlimit:4;stroke-opacity:1"
     id="path2954" />
  <path
     d="M 144.78638,194.85731 C 144.95044,196.00575 148.9378,200.87076 152.24515,202.1652 C 154.32029,202.97737 157.39564,203.50626 159.17689,202.85001 C 161.66038,201.93504 162.18035,199.44645 162.18035,198.4152 C 162.18035,197.38395 160.2139,196.1652 160.2139,196.1652 C 160.2139,196.1652 148.8508,193.35616 146.69455,192.23116 C 144.5383,191.10616 144.62232,193.70887 144.78638,194.85731 z "
     style="fill:black;fill-opacity:1;fill-rule:evenodd;stroke:black;stroke-width:1.5;stroke-linecap:butt;stroke-linejoin:miter;stroke-miterlimit:4;stroke-dasharray:none;stroke-opacity:1"
     id="path2963" />
  <path
     d="M 156.4639,217.25895 C 156.4639,217.25895 156.55765,210.88395 158.24515,207.88395 C 159.93265,204.88395 162.6514,200.94645 162.74515,199.07145 C 162.8389,197.19645 162.37015,196.25895 162.37015,196.25895 C 162.37015,196.25895 157.12015,195.32145 154.49515,194.6652 C 151.87015,194.00895 141.6514,190.25895 140.7139,189.0402"
     style="fill:none;fill-opacity:0.75;fill-rule:evenodd;stroke:black;stroke-width:1.5;stroke-linecap:butt;stroke-linejoin:miter;stroke-miterlimit:4;stroke-dasharray:none;stroke-opacity:1"
     id="path2961" />
  <path
     d="M 157.65744,198.55587 C 157.65744,200.618 156.07374,202.28968 154.12015,202.28968 C 152.16656,202.28968 150.58286,200.618 150.58286,198.55587 C 150.58286,196.49375 152.16656,194.82207 154.12015,194.82207 C 156.07374,194.82207 157.65744,196.49375 157.65744,198.55587 z "
     style="fill:white;fill-opacity:1;stroke:white;stroke-width:0.41923401;stroke-linecap:butt;stroke-linejoin:round;stroke-miterlimit:4;stroke-dasharray:none;stroke-dashoffset:0;stroke-opacity:1"
     id="path2965" />
  <path
     d="M 176.5388,217.25895 C 176.5388,217.25895 176.44505,210.88395 174.75755,207.88395 C 173.07005,204.88395 170.3513,200.94645 170.25755,199.07145 C 170.1638,197.19645 170.63255,196.25895 170.63255,196.25895 C 170.63255,196.25895 175.88255,195.32145 178.50755,194.6652 C 181.13255,194.00895 191.3513,190.25895 192.2888,189.0402"
     style="fill:none;fill-opacity:0.75;fill-rule:evenodd;stroke:black;stroke-width:1.5;stroke-linecap:butt;stroke-linejoin:miter;stroke-miterlimit:4;stroke-dasharray:none;stroke-opacity:1"
     id="path2969" />
  <path
     d="M 45.378985,235.19764 C 42.465253,235.74585 40.25749,236.09566 38.755693,236.24708 C 36.135466,236.55425 34.01365,236.11181 32.390239,234.91978 C 30.894238,233.82397 29.890999,231.91951 29.380515,229.20639 C 29.070647,227.55949 29.026176,226.10315 29.2471,224.83736 C 29.579219,223.05874 30.338233,221.71902 31.524145,220.81819 C 32.550445,220.05669 34.309942,219.38679 36.802639,218.80847 L 46.446412,216.99397 C 47.670997,216.76355 48.127375,215.81963 47.815543,214.16218 C 47.787712,214.01439 48.016618,213.89481 48.502258,213.80343 C 48.998413,213.71008 49.260406,213.7373 49.288237,213.88509 C 49.527418,215.44689 49.780105,216.93511 50.046295,218.34974 C 50.336275,219.89105 50.654659,221.43796 51.001441,222.99046 C 51.029227,223.13825 50.800321,223.25784 50.314726,223.34921 C 49.818526,223.44256 49.556533,223.41534 49.528747,223.26755 C 49.183105,221.43064 48.397993,220.62739 47.173408,220.85781 L 39.76243,222.25221 L 35.345449,223.26364 C 34.042339,223.54161 33.025435,224.03353 32.294731,224.73942 C 31.048306,225.95769 30.609826,227.54863 30.979285,229.51223 C 31.322917,231.33857 32.157541,232.69543 33.48316,233.58282 C 34.643719,234.34819 36.438049,234.50247 38.866156,234.04563 L 49.285864,232.08513 C 50.510449,231.8547 50.966824,230.91077 50.654995,229.25334 C 50.627164,229.10553 50.856067,228.98595 51.34171,228.89459 C 51.837862,228.80122 52.099855,228.82844 52.127689,228.97625 C 52.348993,230.44303 52.550035,231.65676 52.730815,232.61746 C 52.91353,233.58868 53.165371,234.78193 53.486335,236.19721 C 53.516104,236.35554 53.288194,236.4804 52.802599,236.57179 C 52.306396,236.66513 52.043413,236.63263 52.013641,236.4743 C 51.707722,234.84851 50.942473,234.15083 49.717891,234.38126 L 45.378985,235.19764 M 33.283762,264.15983 C 32.24335,264.21718 31.713976,264.07962 31.69564,263.74714 C 31.680262,263.46824 31.964062,263.05453 32.547049,262.50599 L 47.552626,248.41324 C 47.716534,248.26434 47.796427,248.15234 47.792302,248.07727 C 47.784595,247.93783 47.662768,247.87461 47.426815,247.88763 L 34.459207,248.60274 C 33.215002,248.67135 32.637559,249.51547 32.726875,251.13508 C 32.735746,251.29596 32.493487,251.39001 32.000098,251.41723 C 31.485253,251.44561 31.228759,251.37907 31.230613,251.21759 C 31.251277,250.22666 31.229668,249.15201 31.165786,247.99362 C 31.105456,246.89957 31.004623,245.75397 30.863296,244.55681 C 30.833563,244.40783 31.076119,244.31915 31.590961,244.29076 C 32.095078,244.26296 32.351275,244.32414 32.359558,244.4743 C 32.453605,246.17971 33.122728,246.99812 34.366936,246.92951 L 49.715689,246.08308 C 50.938423,246.01565 51.498634,245.05414 51.396325,243.19857 C 51.388615,243.05913 51.631465,242.97581 52.124878,242.9486 C 52.628974,242.9208 52.884877,242.97662 52.892587,243.11605 C 52.868512,243.6553 52.894042,244.60602 52.969186,245.96821 C 53.018848,246.86919 53.037106,247.39535 53.023957,247.54669 C 52.962298,248.18484 52.686187,248.73799 52.195615,249.20615 L 38.877418,261.41455 C 38.733163,261.53008 38.665177,261.66293 38.673466,261.81311 C 38.687656,262.07051 38.861005,262.19005 39.193516,262.17174 L 50.503969,261.54801 C 51.769606,261.47819 52.357183,260.62276 52.266706,258.98172 C 52.257811,258.82082 52.500073,258.72677 52.993483,258.69958 C 53.497579,258.67176 53.754073,258.7383 53.762968,258.89921 C 53.769649,259.99619 53.801392,261.05953 53.858197,262.08923 C 53.917324,263.1618 54.001216,264.19537 54.109879,265.18994 C 54.118135,265.34008 53.875582,265.42877 53.382214,265.456 C 52.878073,265.48378 52.621876,265.4226 52.613617,265.27246 C 52.533742,263.82444 51.860989,263.13534 50.595355,263.20516 L 33.283762,264.15983 M 37.106953,277.08376 C 35.874769,277.26943 35.385934,278.20675 35.640448,279.89569 C 35.662855,280.0444 35.429749,280.15557 34.941127,280.22921 C 34.441879,280.30443 34.181053,280.26769 34.158643,280.11899 C 34.020103,278.69502 33.833983,277.20761 33.60028,275.65677 C 33.344167,273.9572 33.078088,272.44382 32.802043,271.11663 C 32.778034,270.95729 33.010339,270.84081 33.498964,270.76718 C 33.998209,270.69194 34.259836,270.73399 34.283848,270.89333 C 34.543162,272.61413 35.288911,273.38169 36.521095,273.19601 L 51.689683,270.9102 C 52.921843,270.72452 53.409076,269.77659 53.151385,268.06641 C 53.128954,267.9177 53.36206,267.80652 53.850706,267.73289 C 54.34993,267.65766 54.610759,267.6944 54.63319,267.84311 C 54.65689,268.36098 54.853633,269.84679 55.223419,272.30053 C 55.609165,274.86049 55.867024,276.3914 55.996993,276.89327 C 56.019379,277.04198 55.786273,277.15315 55.297672,277.22679 C 54.798403,277.30201 54.537574,277.26527 54.515188,277.11657 C 54.254251,275.38514 53.507701,274.61227 52.275541,274.79795 L 37.106953,277.08376 M 41.785546,297.75495 C 40.589122,298.10327 40.247665,299.15927 40.761169,300.92297 C 40.800202,301.05704 40.582501,301.19315 40.108066,301.3313 C 39.623305,301.47242 39.361411,301.47596 39.322378,301.34189 C 38.974162,299.8769 38.574838,298.37087 38.124403,296.82379 C 37.607899,295.04979 37.113856,293.48743 36.642271,292.1367 C 36.600229,291.9923 36.816427,291.85104 37.290871,291.71291 C 37.775623,291.57177 38.03902,291.5734 38.081065,291.7178 C 38.621587,293.57429 39.490057,294.32838 40.686478,293.98005 L 56.683381,289.32252 C 56.982463,289.23543 57.091477,289.05265 57.01042,288.77418 C 56.365948,286.79129 55.86394,285.25922 55.504396,284.17795 C 55.327597,283.64764 54.895579,283.1245 54.208345,282.60855 C 53.032654,281.79847 51.856078,281.54246 50.678608,281.84053 C 50.513569,281.88858 50.358988,281.66507 50.214865,281.16999 C 50.055694,280.62336 50.058628,280.32602 50.223667,280.27797 L 54.849466,278.93116 C 55.200118,278.82907 55.432573,278.8397 55.546834,278.96307 C 55.707007,279.12901 55.905718,279.61938 56.14297,280.43418 C 57.366313,284.86655 58.324834,288.274 59.01853,290.65652 C 59.709178,293.02872 60.749098,296.48518 62.138299,301.02593 C 62.390515,301.8923 62.452144,302.41139 62.323186,302.5832 C 62.233729,302.69873 62.065246,302.79254 61.81774,302.86463 L 57.191941,304.21145 C 57.026896,304.25948 56.872315,304.03595 56.728198,303.54092 C 56.566018,302.98394 56.567449,302.68145 56.732494,302.63342 C 58.062967,302.24603 58.940167,301.35848 59.364091,299.9708 C 59.605066,299.18459 59.6548,298.51001 59.513293,297.94705 C 59.236216,296.84175 58.858369,295.35185 58.379752,293.47733 C 58.280632,293.13696 58.081531,293.01033 57.782449,293.09742 L 41.785546,297.75495 M 68.271709,308.15111 C 68.040427,307.76372 68.169226,307.42409 68.658106,307.13228 C 68.851777,307.01666 69.06289,306.94067 69.291439,306.90434 L 74.460889,306.07031 C 74.656204,306.04127 74.811691,306.12359 74.927353,306.3173 C 75.103516,306.61244 75.16675,307.16897 75.117052,307.98683 C 75.086437,308.48048 74.974297,308.78513 74.780632,308.90075 C 74.725258,308.93378 74.666269,308.95025 74.603662,308.9501 L 69.511282,308.68721 C 68.883097,308.66186 68.469907,308.48315 68.271709,308.15111 M 55.113931,319.7777 C 54.822091,319.28885 54.745354,319.00313 54.883723,318.92054 L 56.073583,318.21023 C 56.894479,317.72018 56.966302,316.9079 56.289058,315.77339 L 55.17406,313.90559 C 55.01437,313.63811 54.791563,313.58969 54.505639,313.76039 L 49.787713,316.57679 C 49.077481,317.00078 48.748987,317.666 48.802231,318.57254 C 48.832492,319.04237 48.963253,319.47101 49.19452,319.8584 L 51.105508,322.90244 C 51.988414,324.33953 53.184619,324.90779 54.694126,324.60722 C 55.254412,324.49793 55.838941,324.26156 56.447719,323.89817 C 56.604508,323.80457 56.815057,323.97914 57.079366,324.42188 C 57.376687,324.91994 57.44695,325.2158 57.290161,325.3094 L 53.319355,327.67982 C 52.719805,328.03769 52.102534,327.6743 51.467548,326.58965 L 45.741625,316.77776 C 44.89918,315.36653 44.074012,314.05757 43.266115,312.85094 C 43.183522,312.71258 43.354369,312.51674 43.778662,312.26348 C 44.212174,312.00467 44.470228,311.94446 44.552821,312.08282 C 45.444817,313.57706 46.42579,314.00483 47.495746,313.3661 L 60.694873,305.48678 C 61.700239,304.88663 61.729399,303.79328 60.782359,302.20682 C 60.705256,302.0777 60.878857,301.88648 61.303165,301.63319 C 61.736662,301.37441 61.991962,301.30958 62.069065,301.4387 C 62.801086,302.79074 63.571807,304.1447 64.381234,305.50058 C 64.871263,306.32147 66.62236,309.19199 69.634537,314.11208 L 70.38613,315.37112 C 70.699954,315.89687 70.621675,316.30013 70.151293,316.58096 L 65.917609,319.10828 C 65.760784,319.20188 65.552989,319.03193 65.294221,318.59843 C 64.996867,318.10034 64.926601,317.80451 65.083426,317.71091 C 66.282484,316.99508 66.95536,315.97415 67.102051,314.64803 C 67.199665,313.8266 67.08151,313.11521 66.747589,312.51389 L 64.441207,308.33597 C 64.301743,308.08142 64.042933,308.06702 63.664783,308.29277 L 56.622481,312.49673 C 56.35498,312.65642 56.301076,312.86999 56.460769,313.13747 L 57.575767,315.00527 C 58.253011,316.13978 59.011318,316.45652 59.850691,315.95546 L 61.22041,315.13781 C 61.349524,315.06071 61.55725,315.26198 61.843591,315.74162 C 62.135398,316.23047 62.216746,316.51343 62.087632,316.59053 C 61.431082,316.89488 60.337249,317.50406 58.80613,318.4181 C 57.311875,319.31009 56.29348,319.96181 55.750945,320.37326 C 55.612576,320.45585 55.400239,320.25734 55.113931,319.7777"
     style="font-size:11.00000381px;font-style:normal;font-variant:normal;font-weight:bold;font-stretch:normal;text-align:start;line-height:100%;writing-mode:lr-tb;text-anchor:start;fill:black;fill-opacity:1;stroke:none;stroke-width:1px;stroke-linecap:butt;stroke-linejoin:miter;stroke-opacity:1;font-family:Junicode"
     id="text3003" />
  <path
     d="M 91.443247,356.81276 C 90.899704,357.93407 91.454419,358.89533 93.107392,359.69657 C 93.233041,359.7575 93.188104,360.01028 92.972584,360.45494 C 92.752345,360.90926 92.579401,361.10597 92.453752,361.04504 C 91.133239,360.32141 89.748007,359.60816 88.298056,358.90532 C 86.63542,358.0994 85.144891,357.41867 83.826466,356.86316 C 83.691127,356.79755 83.731231,356.54243 83.946775,356.09777 C 84.16699,355.64345 84.344767,355.44911 84.480103,355.51469 C 86.220052,356.35811 87.361795,356.21915 87.905332,355.09784 L 95.172679,340.10522 C 95.308543,339.8249 95.245987,339.62147 94.985011,339.49496 C 93.081595,338.64398 91.608205,337.98947 90.564835,337.53143 C 90.052795,337.30715 89.375005,337.27703 88.531456,337.44113 C 87.142216,337.7705 86.163532,338.47196 85.595404,339.54551 C 85.520425,339.70019 85.250947,339.66509 84.786967,339.44015 C 84.274639,339.19184 84.055963,338.99033 84.130939,338.83565 L 86.232427,334.50026 C 86.391727,334.17161 86.555446,334.00625 86.723584,334.00418 C 86.954092,333.99656 87.451174,334.17782 88.214833,334.54796 C 92.323936,336.61142 95.494966,338.18432 97.727929,339.26666 C 99.951184,340.34435 103.21316,341.88971 107.51386,343.90274 C 108.32581,344.29634 108.75231,344.59856 108.79337,344.80946 C 108.81913,344.95328 108.7758,345.14117 108.66338,345.37316 L 106.56189,349.70855 C 106.48689,349.86323 106.21741,349.8281 105.75345,349.60319 C 105.23144,349.35017 105.00793,349.14635 105.08293,348.99167 C 105.68734,347.74472 105.61677,346.49882 104.87123,345.25403 C 104.44934,344.54819 103.98211,344.05907 103.46952,343.7867 C 102.46359,343.25138 101.10472,342.533 99.392905,341.63159 C 99.073888,341.47697 98.846452,341.53982 98.710591,341.82014 L 91.443247,356.81276 M 124.00558,355.47842 C 123.22497,358.05926 121.24758,359.34662 118.0734,359.34047 C 117.87586,359.32565 117.75378,359.39534 117.70715,359.54957 C 117.67603,359.65238 117.69419,359.81498 117.76161,360.0374 C 118.41194,362.74799 119.42504,365.42804 120.80093,368.07752 C 121.46361,369.41144 122.20863,370.28771 123.03599,370.70627 C 123.28775,370.83854 123.37633,371.02808 123.30171,371.27483 C 123.18351,371.66555 123.00104,371.82359 122.75429,371.74898 L 121.33678,371.37074 C 119.74613,370.87841 118.60808,370.22558 117.92261,369.41222 C 116.7362,368.06579 115.78839,366.32015 115.07916,364.1753 L 113.94647,360.68474 C 113.53192,359.71766 113.26262,359.14238 113.13854,358.95896 C 112.95707,358.66841 112.66583,358.46246 112.26484,358.34117 L 111.23148,358.02863 C 111.03611,357.96956 110.90889,358.03769 110.84981,358.23305 L 109.14246,363.87794 C 108.78171,365.07068 109.3982,365.90807 110.99194,366.39011 C 111.13588,366.43364 111.13633,366.69191 110.99328,367.16489 C 110.84711,367.64813 110.70205,367.868 110.55811,367.82447 C 109.21234,367.33886 107.80943,366.87527 106.34937,366.43367 C 104.79676,365.96408 103.31552,365.55533 101.90566,365.20748 C 101.75143,365.16083 101.74584,364.901 101.8889,364.42802 C 102.03506,363.94478 102.18526,363.72647 102.3395,363.77312 C 104.0052,364.27691 105.01843,363.93245 105.37919,362.73974 L 109.82948,348.02594 C 110.16845,346.9052 109.45368,346.07738 107.68515,345.54245 C 107.54119,345.49892 107.54075,345.24068 107.68381,344.76767 C 107.82997,344.28443 107.97503,344.06456 108.11898,344.10809 C 109.57067,344.61452 111.05225,345.09629 112.56374,345.55343 L 117.18786,346.85102 L 117.2804,346.87901 C 120.74547,347.92709 122.94621,349.57469 123.88263,351.8219 C 124.35331,352.97432 124.39429,354.19316 124.00558,355.47842 M 120.08807,354.29354 C 120.511,352.89518 120.26044,351.53441 119.33638,350.21117 C 118.48808,349.04558 117.18481,348.19685 115.42657,347.66504 C 114.78906,347.47226 114.40491,347.40656 114.27412,347.468 C 114.1464,347.51918 114.04368,347.67326 113.96594,347.9303 L 111.52621,355.99667 C 111.42357,356.336 111.49146,356.57537 111.72987,356.71481 C 112.18513,356.95352 112.61326,357.13352 113.01428,357.25478 C 115.72876,358.07582 117.7364,357.74594 119.03722,356.26517 C 119.50142,355.73222 119.8517,355.07501 120.08807,354.29354 M 143.01397,370.32905 C 143.30382,371.61851 144.30742,372.36557 146.02478,372.57026 C 146.18476,372.58931 146.23552,372.84419 146.17706,373.33484 C 146.11602,373.84685 146.00615,374.08799 145.84744,374.05826 C 144.62965,373.8374 143.21543,373.63097 141.60477,373.43903 C 140.01542,373.24961 138.54963,373.11278 137.20741,373.02854 C 137.0474,373.00946 136.99664,372.75458 137.05513,372.26393 C 137.11486,371.7626 137.22474,371.52146 137.38475,371.54054 C 138.40874,371.66258 138.96206,371.37692 139.0447,370.68359 C 139.07139,370.45958 139.05047,370.18124 138.98195,369.84851 L 137.9483,364.9058 C 137.90158,364.66226 137.7355,364.51265 137.45006,364.45697 L 131.48204,363.7457 C 131.25803,363.71903 131.06893,363.85334 130.91474,364.14869 L 128.61201,368.62886 C 128.4855,368.87342 128.4108,369.0917 128.38793,369.2837 C 128.29512,370.06235 129.03272,370.54514 130.60073,370.73201 C 130.73939,370.74854 130.77948,371.00213 130.72101,371.49281 C 130.65999,372.00479 130.56078,372.24722 130.42339,372.22001 C 129.54695,372.03983 128.31406,371.85503 126.72473,371.66561 C 125.11405,371.47367 123.88827,371.36543 123.04737,371.34095 C 122.89803,371.32313 122.85261,371.06891 122.91108,370.57823 C 122.97083,370.0769 123.07537,369.83513 123.22471,369.85292 C 124.84605,370.04618 126.00665,369.47591 126.70652,368.14211 L 134.4724,353.35961 C 134.6492,353.05616 134.74141,352.87241 134.74905,352.80842 C 134.76175,352.70177 134.72989,352.60601 134.65347,352.52114 C 134.45615,352.27046 134.36322,352.09712 134.37467,352.00109 C 134.39373,351.84113 134.57496,351.72749 134.91835,351.66023 C 135.30693,351.57674 136.00958,351.30887 137.0263,350.85668 C 137.62037,350.59211 138.01874,350.47193 138.22142,350.49605 C 138.57341,350.53802 138.78593,350.88791 138.85901,351.54569 C 138.89983,351.92921 139.06988,352.77164 139.36917,354.07304 L 143.01397,370.32905 M 137.40879,362.48855 L 135.9133,355.42994 C 135.8803,355.25294 135.80514,355.15742 135.68781,355.14344 C 135.58113,355.13072 135.48563,355.2059 135.4013,355.36892 L 131.94664,362.16212 C 131.93342,362.18219 131.92554,362.20289 131.92301,362.22422 C 131.90647,362.36288 132.04755,362.45003 132.34622,362.48561 L 136.93824,363.03287 C 137.23689,363.06848 137.40021,362.96894 137.42819,362.73428 C 137.4358,362.67029 137.42934,362.58839 137.40879,362.48855 M 153.8958,373.89062 C 153.64835,374.36321 153.36367,374.59214 153.04175,374.57741 C 152.67689,374.56073 152.41429,374.30675 152.25396,373.81553 L 146.28961,355.04147 C 145.90657,353.77658 145.17314,353.11934 144.08931,353.06975 C 143.92835,353.0624 143.85915,352.8119 143.88173,352.31825 C 143.9048,351.81392 143.99682,351.56543 144.15778,351.57278 C 144.63822,351.64853 145.87642,351.73205 147.87238,351.82331 C 150.10442,351.92543 151.47921,351.96143 151.99676,351.93131 C 152.13625,351.9377 152.19471,352.18772 152.17214,352.68131 C 152.14907,353.1857 152.06778,353.43467 151.92829,353.42828 C 150.59764,353.36744 149.91661,353.6804 149.88521,354.36716 C 149.8744,354.60326 149.92066,354.88496 150.02399,355.21226 L 153.99261,367.89464 C 154.07936,368.11367 154.20859,368.22713 154.3803,368.23496 C 154.56272,368.24333 154.70786,368.1263 154.81574,367.8839 L 160.11057,355.80266 C 160.24332,355.48613 160.31535,355.20446 160.32665,354.95765 C 160.30783,354.19331 159.79407,353.78807 158.78538,353.7419 C 158.62439,353.73455 158.5552,353.48408 158.5778,352.99043 C 158.60085,352.4861 158.69286,352.23761 158.85384,352.24493 C 159.36646,352.32218 160.47052,352.39955 162.16603,352.47707 C 163.94735,352.55858 165.09679,352.58426 165.61436,352.55414 C 165.76457,352.56104 165.82839,352.8113 165.80584,353.30489 C 165.78275,353.80928 165.6961,354.05801 165.54589,354.05111 C 163.95768,353.97851 162.95494,354.38966 162.53766,355.28459 L 153.8958,373.89062 M 181.74593,370.24223 C 182.27623,371.45279 183.40382,371.99489 185.12871,371.86847 C 185.28939,371.85671 185.3878,372.09722 185.42394,372.59003 C 185.46159,373.10429 185.3997,373.36193 185.23823,373.36301 C 184.00067,373.37828 182.57303,373.44521 180.95532,373.56377 C 179.35899,373.68074 177.894,373.82579 176.56033,373.99892 C 176.39961,374.01071 176.30121,373.77017 176.2651,373.27736 C 176.22819,372.77384 176.29009,372.51617 176.45081,372.50441 C 177.47928,372.42902 177.96801,372.04316 177.917,371.34677 C 177.9005,371.1218 177.82691,370.85255 177.69624,370.53899 L 175.73946,365.88389 C 175.64718,365.6537 175.45563,365.5385 175.16481,365.53826 L 169.17063,365.97752 C 168.94564,365.99402 168.78561,366.1619 168.69054,366.48122 L 167.28393,371.31815 C 167.20635,371.58236 167.17463,371.81087 167.18876,372.00371 C 167.24607,372.78578 168.06216,373.11914 169.63705,373.00373 C 169.77632,372.9935 169.86401,373.23482 169.90013,373.72763 C 169.93781,374.24189 169.88662,374.49875 169.74657,374.49824 C 168.85185,374.4884 167.60634,374.54198 166.01004,374.65898 C 164.39231,374.77751 163.16836,374.90492 162.33821,375.04115 C 162.18822,375.05213 162.09517,374.8112 162.05906,374.31839 C 162.02216,373.81487 162.0787,373.55759 162.22869,373.54661 C 163.85713,373.42727 164.88777,372.64625 165.3206,371.20352 L 170.12661,355.21187 C 170.24233,354.88028 170.29783,354.68234 170.29313,354.61802 C 170.28527,354.51092 170.23575,354.42299 170.14455,354.35426 C 169.90307,354.14579 169.77881,353.99333 169.77175,353.89688 C 169.75996,353.7362 169.91621,353.5901 170.24048,353.45861 C 170.60602,353.30261 171.24474,352.90574 172.15664,352.26803 C 172.68939,351.8951 173.05755,351.70118 173.26112,351.68624 C 173.61465,351.66035 173.88997,351.96332 174.08707,352.59509 C 174.20024,352.96382 174.52775,353.7584 175.06958,354.97889 L 181.74593,370.24223 M 174.74912,363.61379 L 171.9357,356.9696 C 171.86956,356.80214 171.77757,356.7227 171.65973,356.73131 C 171.55259,356.7392 171.47316,356.83118 171.42145,357.00728 L 169.32488,364.33439 C 169.31573,364.35662 169.31195,364.37843 169.31352,364.39985 C 169.32372,364.53914 169.47881,364.59779 169.7788,364.5758 L 174.39094,364.23782 C 174.6909,364.21586 174.83226,364.08701 174.815,363.8513 C 174.81027,363.78704 174.78832,363.70787 174.74912,363.61379 M 193.12478,368.19209 C 193.30289,369.42539 194.23718,369.91997 195.92766,369.67583 C 196.0765,369.65432 196.18624,369.88811 196.25688,370.37717 C 196.32904,370.87688 196.2907,371.13746 196.14186,371.15897 C 194.71706,371.28878 193.22855,371.46575 191.6763,371.68994 C 189.9752,371.93564 188.46021,372.19241 187.13135,372.46031 C 186.97187,372.48335 186.85681,372.25034 186.78618,371.76125 C 186.71401,371.26157 186.75767,371.00021 186.91714,370.97717 C 188.63951,370.72841 189.41163,369.98738 189.23351,368.75408 L 187.04081,353.57177 C 186.86269,352.3385 185.91776,351.84545 184.20603,352.09265 C 184.05719,352.11416 183.94745,351.88037 183.87681,351.39128 C 183.80464,350.89163 183.84298,350.63102 183.99183,350.60951 C 184.50984,350.58899 185.99682,350.40137 188.45278,350.04662 C 191.01506,349.6766 192.54753,349.42814 193.05019,349.30124 C 193.19903,349.27979 193.30877,349.51355 193.37941,350.00261 C 193.45157,350.50232 193.41323,350.76293 193.26439,350.78441 C 191.53139,351.0347 190.75395,351.77651 190.93207,353.00978 L 193.12478,368.19209 M 205.05645,365.21174 C 205.33131,366.36098 205.87246,367.07648 206.6799,367.3583 C 207.08258,367.47185 207.4981,367.4774 207.92646,367.37495 L 213.0806,365.92682 C 213.85665,365.70809 214.49597,365.1023 214.99857,364.10954 C 215.59287,362.80766 215.7476,361.56119 215.46276,360.37016 C 215.41776,360.18212 215.64079,360.02939 216.13184,359.91194 C 216.69599,359.777 217.00056,359.80355 217.04556,359.99162 L 218.3012,365.2415 C 218.40613,365.68028 218.39274,365.97065 218.26104,366.11261 C 218.19698,366.26048 217.67915,366.45059 216.70755,366.683 L 205.3353,369.28697 L 204.01892,369.60182 C 203.26669,369.78173 201.81279,370.16813 199.6572,370.76102 C 199.50048,370.79849 199.36466,370.57694 199.24971,370.09637 C 199.13227,369.60533 199.1519,369.34106 199.30862,369.30359 C 201.00111,368.8988 201.68993,368.03819 201.37509,366.72179 L 197.84429,351.95945 C 197.55444,350.74757 196.51102,350.35652 194.71404,350.78627 C 194.56778,350.82128 194.43718,350.59847 194.32223,350.11787 C 194.20479,349.62686 194.2192,349.36385 194.36546,349.32884 C 194.86899,349.26368 196.37968,348.92996 198.89753,348.32774 C 201.3527,347.74052 202.82477,347.36084 203.31376,347.18864 C 203.46002,347.15366 203.59063,347.37647 203.70558,347.85704 C 203.82301,348.34808 203.8086,348.61109 203.66234,348.64607 C 202.04298,349.0334 201.37822,349.83302 201.66809,351.0449 L 205.05645,365.21174"
     style="font-size:11px;font-style:normal;font-variant:normal;font-weight:bold;font-stretch:normal;text-align:start;line-height:100%;writing-mode:lr-tb;text-anchor:start;fill:black;fill-opacity:1;stroke:none;stroke-width:1px;stroke-linecap:butt;stroke-linejoin:miter;stroke-opacity:1;font-family:Junicode"
     id="text3007" />
  <path
     d="M 248.22277,343.8704 C 249.0135,344.83346 250.10626,344.74238 251.50105,343.59719 C 251.62557,343.49495 251.84463,343.63478 252.1582,344.01668 C 252.47858,344.40689 252.5765,344.6531 252.45198,344.75534 C 251.35816,345.55616 250.13878,346.50869 248.79381,347.61299 C 247.56507,348.62186 246.42246,349.60865 245.36598,350.57339 C 245.25805,350.66201 245.0473,350.51537 244.73373,350.13344 C 244.41335,349.74326 244.30712,349.50383 244.41505,349.41521 C 245.71851,348.34499 245.97487,347.32835 245.18414,346.36529 L 235.42948,334.48472 C 234.68647,333.5798 233.60927,333.70673 232.19787,334.86557 C 232.08165,334.961 231.86675,334.81778 231.55317,334.43585 C 231.2328,334.04567 231.13072,333.80285 231.24694,333.70739 C 232.47508,332.78243 233.69106,331.82576 234.89488,330.83732 L 238.61937,327.65417 C 240.42927,326.16818 242.27696,325.34606 244.16246,325.18784 C 246.21575,325.03091 247.8559,325.69964 249.0829,327.194 C 250.38488,328.77977 250.66686,330.57059 249.92885,332.56643 C 249.32697,334.18646 248.12939,335.73266 246.33611,337.20503 C 245.5889,337.81856 245.00656,338.26889 244.58909,338.55605 C 244.28487,338.77805 244.24524,339.02603 244.47019,339.29999 L 248.22277,343.8704 M 245.90728,329.80139 C 245.08928,328.80515 244.04677,328.22948 242.77975,328.07444 C 241.24889,327.88586 239.73626,328.40507 238.24184,329.63207 C 237.7022,330.07517 237.43028,330.39572 237.42608,330.59372 C 237.43377,330.67082 237.46415,330.75014 237.51719,330.83165 L 242.96712,337.46933 C 243.17843,337.72673 243.42982,337.7705 243.72127,337.60067 C 244.04742,337.38851 244.39315,337.13243 244.75845,336.83249 C 246.82571,335.13515 247.53463,333.35777 246.88521,331.50029 C 246.68997,330.92396 246.36399,330.35765 245.90728,329.80139 M 261.83502,314.57579 C 263.81179,316.40948 264.10117,318.75119 262.70315,321.60095 C 262.60315,321.77195 262.61222,321.91223 262.73035,322.02179 C 262.80911,322.09484 262.9632,322.14989 263.19263,322.18685 C 265.91377,322.79159 268.7666,323.05691 271.75111,322.98284 C 273.24055,322.97252 274.35483,322.68743 275.09394,322.12757 C 275.32325,321.95936 275.53241,321.9629 275.72144,322.13822 C 276.0207,322.41584 276.08267,322.64915 275.90735,322.83815 L 274.9456,323.94605 C 273.80536,325.15946 272.71943,325.89575 271.6878,326.15492 C 269.95736,326.63039 267.97287,326.71631 265.73431,326.41271 L 262.10064,325.89926 C 261.04973,325.84751 260.41463,325.83716 260.19537,325.86818 C 259.85465,325.90382 259.54183,326.07518 259.25692,326.38232 L 258.52272,327.17381 C 258.38391,327.32345 258.38933,327.46769 258.53897,327.60647 L 262.86267,331.61717 C 263.77623,332.46461 264.79919,332.27798 265.93154,331.05725 C 266.03381,330.947 266.26609,331.05989 266.62837,331.39595 C 266.99852,331.7393 267.13245,331.96613 267.03019,332.07638 C 266.00342,333.07268 264.97136,334.13003 263.93398,335.24834 C 262.83085,336.43757 261.81374,337.58933 260.88263,338.70368 C 260.77305,338.82182 260.53712,338.71286 260.17484,338.3768 C 259.80469,338.03345 259.6744,337.80269 259.78398,337.68458 C 260.96747,336.40871 261.10243,335.34707 260.18886,334.49963 L 248.91889,324.0455 C 248.06046,323.24924 247.00297,323.52839 245.74642,324.88298 C 245.64416,324.99323 245.41188,324.88034 245.04959,324.54428 C 244.67945,324.20093 244.54551,323.97413 244.64777,323.86385 C 245.73972,322.78148 246.82264,321.66146 247.89654,320.50373 L 251.0912,316.91759 L 251.15695,316.8467 C 253.6189,314.19266 256.06498,312.93779 258.4952,313.08215 C 259.7373,313.16474 260.85057,313.66262 261.83502,314.57579 M 259.05164,317.57639 C 257.98056,316.58288 256.64778,316.21106 255.0533,316.46093 C 253.6337,316.71191 252.29928,317.51075 251.05003,318.85745 C 250.59711,319.34576 250.36955,319.66214 250.36736,319.80662 C 250.35732,319.94384 250.45074,320.10377 250.64762,320.28638 L 256.82602,326.01752 C 257.08592,326.25863 257.33081,326.30264 257.5607,326.14958 C 257.97494,325.84517 258.32452,325.53941 258.60943,325.23224 C 260.53807,323.15309 261.12239,321.20423 260.36239,319.38566 C 260.0871,318.73472 259.65018,318.13163 259.05164,317.57639 M 277.13139,297.07133 C 279.1892,298.23344 280.75649,300.01295 281.83324,302.40983 C 283.31978,305.74136 283.15977,309.00662 281.35323,312.20558 C 280.16471,314.31017 278.51512,315.8768 276.40444,316.90547 C 273.1055,318.50909 269.69752,318.31784 266.18052,316.33169 C 263.83274,315.00584 262.08075,312.9308 260.92455,310.10657 C 259.6723,306.99374 259.8887,303.94538 261.57374,300.96155 C 262.8732,298.66055 264.72324,297.07757 267.12387,296.21264 C 270.58723,294.97328 273.92306,295.25951 277.13139,297.07133 M 275.16471,301.01261 C 272.77952,299.66564 270.40355,299.08874 268.03681,299.28191 C 265.32245,299.50088 263.56645,300.31655 262.76881,301.72895 C 261.95128,303.15482 261.85409,304.74689 262.47723,306.50516 C 263.26402,308.73833 264.95291,310.58651 267.54388,312.0497 C 270.38741,313.65554 273.10656,314.24735 275.70131,313.82513 C 277.89802,313.47425 279.37935,312.62066 280.14529,311.26436 C 281.54509,308.78561 281.18578,306.37442 279.06735,304.03076 C 278.08379,302.93252 276.78291,301.92647 275.16471,301.01261 M 284.37151,285.53341 C 283.90911,285.35916 283.70443,285.20167 283.75746,285.06093 C 284.04507,284.48055 284.67566,282.89866 285.64922,280.31525 C 286.28564,278.62653 286.68734,277.46922 286.85432,276.84334 C 286.90357,276.71269 287.15436,276.73259 287.6067,276.90303 C 288.0691,277.07731 288.27567,277.22978 288.22643,277.36043 C 287.8173,278.44608 287.99975,279.13474 288.77376,279.42641 L 292.40759,280.79584 C 292.85992,280.96633 293.16565,280.84048 293.32476,280.41827 C 293.38158,280.26751 293.606,280.26598 293.99804,280.4137 C 294.41017,280.56904 294.58782,280.72209 294.53101,280.87285 C 294.34159,281.37547 294.09097,282.40604 293.77915,283.96454 C 293.30499,286.38028 292.8179,288.25157 292.31786,289.57844 C 291.35171,292.23351 289.70576,294.27077 287.38,295.69022 C 284.43128,297.48335 281.3335,297.76811 278.08667,296.5445 C 275.41283,295.53686 273.37367,293.89593 271.96921,291.62173 C 270.008,288.44894 269.73957,284.97276 271.16391,281.19316 C 271.66018,279.87635 272.4516,278.35507 273.53817,276.62932 C 273.98429,275.99388 274.31721,275.38464 274.53691,274.8016 C 275.23607,274.74367 276.6902,275.07355 278.89932,275.79126 L 279.67967,276.0509 C 279.86062,276.11911 279.88975,276.3769 279.76706,276.82427 C 279.60533,277.31437 279.43837,277.54418 279.26616,277.5137 C 277.09331,276.91298 275.3115,277.4526 273.92071,279.13255 C 273.35005,279.82441 272.86205,280.70811 272.4567,281.78367 C 271.67255,283.86447 271.8843,285.86137 273.09193,287.77439 C 274.2996,289.68743 276.19008,291.12884 278.76341,292.09861 C 282.02029,293.32599 284.87228,293.41927 287.31938,292.37844 C 289.16509,291.59314 290.38532,290.4114 290.98007,288.83321 C 291.40055,287.71744 291.63354,286.70319 291.67904,285.79047 C 291.67265,285.07634 291.45836,284.63971 291.03618,284.48059 L 287.38727,283.10547 C 286.61327,282.8138 286.01033,283.24092 285.57848,284.38684 L 285.12957,285.57801 C 285.07654,285.71876 284.82385,285.70389 284.37151,285.53341 M 282.45236,257.92743 C 285.13019,258.24262 286.74482,259.96317 287.29629,263.08909 C 287.31637,263.28616 287.40642,263.3941 287.56644,263.41292 C 287.67314,263.4255 287.83003,263.37906 288.03712,263.27363 C 290.59138,262.15733 293.05182,260.68927 295.41846,258.86942 C 296.61528,257.98275 297.34706,257.09541 297.61382,256.2074 C 297.69981,255.93632 297.87083,255.81583 298.12688,255.84594 C 298.53228,255.89368 298.71991,256.04556 298.68978,256.30159 L 298.56639,257.76349 C 298.36109,259.41589 297.91828,260.65091 297.23796,261.46858 C 296.12082,262.87303 294.56879,264.11271 292.58186,265.18762 L 289.34447,266.91577 C 288.46524,267.49373 287.94622,267.85989 287.78743,268.01425 C 287.53326,268.24394 287.38169,268.56681 287.33271,268.98288 L 287.20652,270.05506 C 287.18267,270.25778 287.27209,270.37106 287.47478,270.39491 L 293.33182,271.08427 C 294.56938,271.22993 295.28547,270.47595 295.4801,268.82231 C 295.49767,268.67296 295.75184,268.62716 296.24259,268.68491 C 296.74402,268.74394 296.98594,268.84813 296.96836,268.99748 C 296.72667,270.40762 296.51668,271.87015 296.33838,273.38507 C 296.14877,274.99603 296.00655,276.52603 295.91172,277.97507 C 295.89288,278.1351 295.63809,278.18623 295.14733,278.12847 C 294.64591,278.06946 294.40462,277.95993 294.42345,277.79991 C 294.62687,276.0716 294.1098,275.13462 292.87225,274.98896 L 277.60554,273.1921 C 276.44268,273.05524 275.75326,273.9043 275.53727,275.73929 C 275.51971,275.88865 275.26554,275.93445 274.77477,275.87669 C 274.27336,275.81768 274.03144,275.71349 274.049,275.56413 C 274.29259,274.04606 274.50667,272.50289 274.69123,270.9346 L 275.1565,266.15445 L 275.1678,266.05844 C 275.59098,262.46315 276.82647,260.00723 278.87426,258.69068 C 279.92611,258.02491 281.11881,257.77049 282.45236,257.92743 M 281.97396,261.99215 C 280.52305,261.82139 279.22741,262.30707 278.08705,263.44916 C 277.08856,264.48901 276.48195,265.92108 276.26721,267.74539 C 276.18938,268.40685 276.19218,268.79657 276.27562,268.91454 C 276.34844,269.03129 276.51819,269.10535 276.78488,269.13673 L 285.15437,270.1218 C 285.50644,270.16324 285.73017,270.05437 285.82557,269.79518 C 285.98061,269.30507 286.08261,268.85197 286.13157,268.43589 C 286.46308,265.61941 285.78572,263.7009 284.09949,262.68038 C 283.49329,262.31701 282.78478,262.0876 281.97396,261.99215 M 273.01715,243.99824 C 273.25689,243.92229 273.47335,243.88835 273.66651,243.89643 C 274.24611,243.92073 274.52645,244.15827 274.50753,244.60903 C 274.49181,244.98469 274.21335,245.34395 273.67212,245.68682 L 269.54942,248.2396 C 269.46134,248.28967 269.37435,248.3129 269.28846,248.3093 C 268.94504,248.29491 268.62,247.9695 268.31334,247.33304 C 268.0854,246.87193 267.97862,246.46965 267.99298,246.12619 C 268.0038,245.86861 268.08523,245.7215 268.23726,245.68486 L 273.01715,243.99824 M 291.81942,242.89923 C 291.79559,243.46808 291.70317,243.74913 291.54218,243.74237 L 290.15765,243.68435 C 289.20244,243.64434 288.69717,244.28439 288.64184,245.60451 L 288.55077,247.7779 C 288.53773,248.08916 288.69757,248.25175 289.03028,248.26569 L 294.5201,248.49574 C 295.34652,248.53037 295.98589,248.15398 296.4382,247.36655 C 296.67039,246.95698 296.79594,246.5268 296.81483,246.07601 L 296.88477,242.48252 C 296.93392,240.79659 296.24482,239.66568 294.81748,239.08977 C 294.28894,238.87411 293.67049,238.75143 292.96212,238.72173 C 292.77967,238.7141 292.69924,238.45269 292.72082,237.9375 C 292.74511,237.35795 292.84848,237.07198 293.03094,237.07961 L 297.6514,237.27323 C 298.34903,237.30248 298.66617,237.94474 298.60281,239.20001 L 298.01451,250.5452 C 297.94569,252.18733 297.9185,253.73442 297.93291,255.18649 C 297.92616,255.34748 297.67593,255.41763 297.18223,255.39694 C 296.67779,255.37581 296.42894,255.28474 296.43569,255.12375 C 296.50855,253.38504 295.92248,252.4896 294.67747,252.43743 L 279.31886,251.79383 C 278.149,251.74481 277.52539,252.64332 277.44801,254.48935 C 277.44174,254.63962 277.19173,254.7044 276.69801,254.68371 C 276.19359,254.66257 275.94451,254.57688 275.95079,254.42662 C 276.07952,252.89453 276.17694,251.33962 276.24302,249.7619 C 276.28308,248.80669 276.39165,245.44598 276.56875,239.67977 L 276.63014,238.21474 C 276.65579,237.603 276.9423,237.30858 277.48965,237.3315 L 282.416,237.53793 C 282.59847,237.5456 282.67913,237.80164 282.65798,238.30606 C 282.63371,238.88565 282.53033,239.17161 282.34786,239.16395 C 280.95261,239.1055 279.83024,239.59067 278.98074,240.61947 C 278.44889,241.25305 278.15782,241.91283 278.10755,242.59881 L 277.74687,247.35742 C 277.72402,247.64677 277.9326,247.80065 278.37262,247.81908 L 286.5671,248.16247 C 286.87837,248.17552 287.04051,248.02641 287.05354,247.71516 L 287.14462,245.54177 C 287.19995,244.22165 286.73927,243.54112 285.76257,243.50018 L 284.16876,243.43339 C 284.01851,243.42711 283.95507,243.14491 283.97845,242.58679 C 284.0023,242.01796 284.08934,241.7367 284.23959,241.74298 C 284.95555,241.84825 286.20434,241.93822 287.98598,242.01286 C 289.7247,242.08573 290.93371,242.09877 291.61301,242.05196 C 291.77401,242.05872 291.84281,242.34114 291.81942,242.89923 M 293.69637,219.7378 C 295.62682,219.96988 297.15675,220.74346 298.28618,222.05855 C 299.52139,223.48375 300.01144,225.25756 299.75629,227.37997 C 299.57167,228.91579 299.22198,230.20456 298.70726,231.24627 L 297.43843,233.43076 C 295.66402,233.79089 293.96091,233.87287 292.32909,233.67671 C 292.07313,233.64594 291.96397,233.38397 292.00161,232.89079 C 292.03116,232.37501 292.15984,232.11458 292.38766,232.1095 C 293.63767,232.15158 294.79923,231.80434 295.87236,231.06777 C 297.26549,230.0992 298.06976,228.71902 298.28516,226.92722 C 298.37747,226.15932 298.15621,225.43486 297.62136,224.75384 C 296.96581,223.90686 296.03011,223.41028 294.81425,223.26411 C 292.61718,223 290.9776,224.26354 289.89551,227.05473 C 288.30931,231.15941 285.65509,232.98801 281.93285,232.54055 C 280.41838,232.35849 279.12524,231.50518 278.05342,229.98061 C 277.18552,228.74023 276.87144,227.12282 277.11117,225.12838 C 277.26504,223.84854 277.51358,222.72614 277.85677,221.76117 C 278.05657,221.1793 278.16031,220.85637 278.16798,220.79236 L 278.20522,220.21258 L 278.20714,220.19658 C 279.51312,219.95327 280.98969,219.86569 282.63687,219.93386 C 282.91675,219.94588 283.06452,220.20167 283.08019,220.70124 C 283.08522,221.19956 282.98853,221.46383 282.79013,221.49407 C 281.50383,221.66404 280.49178,222.07253 279.75399,222.71956 C 279.01624,223.36661 278.57106,224.32472 278.41847,225.59389 C 278.29669,226.60711 278.64591,227.4822 279.46614,228.21915 C 280.01214,228.71757 280.74374,229.02191 281.66095,229.13217 C 283.5914,229.36424 285.03493,228.20155 285.99152,225.64412 C 287.61918,221.28477 290.18746,219.316 293.69637,219.7378"
     style="font-size:11.00001526px;font-style:normal;font-variant:normal;font-weight:bold;font-stretch:normal;text-align:start;line-height:100%;writing-mode:lr-tb;text-anchor:start;fill:black;fill-opacity:1;stroke:none;stroke-width:1px;stroke-linecap:butt;stroke-linejoin:miter;stroke-opacity:1;font-family:Junicode"
     id="text3011" />
  <text
     x="285.90555"
     y="187.9324"
     transform="matrix(0.688716,0.725031,-0.725031,0.688716,0,0)"
     style="font-size:35.9999733px;font-style:normal;font-variant:normal;font-weight:normal;font-stretch:normal;text-align:start;line-height:100%;writing-mode:lr-tb;text-anchor:start;fill:black;fill-opacity:1;stroke:none;stroke-width:1px;stroke-linecap:butt;stroke-linejoin:miter;stroke-opacity:1;font-family:Junicode"
     id="text3080"
     xml:space="preserve"><tspan
       x="285.90555"
       y="187.9324"
       id="tspan3082">-</tspan></text>
  <text
     x="7.8718548"
     y="426.38132"
     transform="matrix(0.855761,-0.517371,0.517371,0.855761,0,0)"
     style="font-size:35.99995422px;font-style:normal;font-variant:normal;font-weight:normal;font-stretch:normal;text-align:start;line-height:100%;writing-mode:lr-tb;text-anchor:start;fill:black;fill-opacity:1;stroke:none;stroke-width:1px;stroke-linecap:butt;stroke-linejoin:miter;stroke-opacity:1;font-family:Junicode"
     id="text3084"
     xml:space="preserve"><tspan
       x="7.8718548"
       y="426.38132"
       id="tspan3086">-</tspan></text>
  <path
     d="M 188.54099,194.85731 C 188.37693,196.00575 184.38957,200.87076 181.08222,202.1652 C 179.00708,202.97737 175.93173,203.50626 174.15048,202.85001 C 171.66699,201.93504 171.14702,199.44645 171.14702,198.4152 C 171.14702,197.38395 173.11347,196.1652 173.11347,196.1652 C 173.11347,196.1652 184.47657,193.35616 186.63282,192.23116 C 188.78907,191.10616 188.70505,193.70887 188.54099,194.85731 z "
     style="fill:black;fill-opacity:1;fill-rule:evenodd;stroke:black;stroke-width:1.5;stroke-linecap:butt;stroke-linejoin:miter;stroke-miterlimit:4;stroke-dasharray:none;stroke-opacity:1"
     id="path2844" />
  <path
     d="M 175.66993,198.55587 C 175.66993,200.618 177.25363,202.28968 179.20722,202.28968 C 181.16081,202.28968 182.74451,200.618 182.74451,198.55587 C 182.74451,196.49375 181.16081,194.82207 179.20722,194.82207 C 177.25363,194.82207 175.66993,196.49375 175.66993,198.55587 z "
     style="fill:white;fill-opacity:1;stroke:white;stroke-width:0.41923401;stroke-linecap:butt;stroke-linejoin:round;stroke-miterlimit:4;stroke-dasharray:none;stroke-dashoffset:0;stroke-opacity:1"
     id="path2846" />
</svg>
