<?xml version="1.0" encoding="utf-8"?>
<!-- Generator: NordNordWest -->
<!DOCTYPE svg PUBLIC "-//W3C//DTD SVG 1.1//EN" "http://www.w3.org/Graphics/SVG/1.1/DTD/svg11.dtd">
<svg version="1.1" id="Burundi" xmlns="http://www.w3.org/2000/svg" xmlns:xlink="http://www.w3.org/1999/xlink" x="0px" y="0px"
	 width="623.625px" height="680.307px" viewBox="0 0 623.625 680.307" enable-background="new 0 0 623.625 680.307"
	 xml:space="preserve">
<rect fill-rule="evenodd" clip-rule="evenodd" fill="#E0E0E0" width="623.625" height="680.307"/>
<polygon fill-rule="evenodd" clip-rule="evenodd" fill="#FEFEE9" points="575.353,226.552 571.941,231.576 570.687,233.422 
	569.031,237.347 567.156,238.339 565.744,240.372 564.775,240.835 564.718,241.945 569.312,248.758 571.927,250.262 575.081,252.43 
	575.22,254.833 574.7,257.673 575.042,260.98 578.816,266.144 580.466,270.58 580.462,273.142 578.705,280.208 578.667,282.809 
	578.664,283.239 577.214,285.86 575.271,288.064 574.654,289.55 574.82,292.438 577.18,297.208 577.406,298.757 575.525,300.184 
	568.683,303.774 566.447,304.711 561.544,305.815 561.099,306.012 554.208,309.057 552.31,308.511 549.911,307.124 548.58,307.348 
	547.959,308.552 547.769,310.81 546.664,312.511 545.06,313.583 539.736,314.621 534.144,316.788 532.33,317.792 531.605,318.532 
	530.314,319.855 527.662,321.5 521.958,326.981 520.853,328.965 521.943,331.918 522.148,332.477 523.353,333.735 527.726,336.161 
	528.58,337.492 529.587,340.231 529.212,345.879 528.316,347.01 525.664,348.515 514.238,357.502 509.47,358.04 506.953,358.98 
	502.921,363.387 500.046,364.936 498.202,365.631 492.235,366.717 491.203,367.573 489.15,371.044 485.281,374.659 483.915,374.342 
	481.89,372.726 479.544,371.699 478.376,371.837 477.355,374.127 476.119,374.006 472.968,378.616 472.714,378.987 469.75,382.204 
	465.609,384.189 465.628,386.864 467.082,390.245 467.226,392.331 466.421,397.62 464.562,401.024 463.202,401.425 461.46,403.329 
	460.7,405.618 459.085,407.128 458.447,408.568 457.416,409.619 457.238,411.903 456.4,412.756 456.931,414.449 456.611,415.038 
	455.183,415.178 454.74,416.877 454.952,419.159 453.091,422.368 451.825,426.747 451.769,428.182 450.871,429.624 454.148,439.149 
	454.386,439.839 455.201,444.53 454.958,447.076 454,449.235 454.203,450.342 453.365,451.391 452.644,450.483 451.474,450.426 
	450.232,449.196 449.062,449.204 448.595,447.51 447.482,446.213 446.703,446.35 445.852,445.443 442.417,446.509 439.679,445.093 
	438.708,445.557 436.966,447.395 435.847,447.768 433.566,449.256 432.119,451.127 431.335,455.068 431.159,459.262 
	430.605,460.045 428.25,461.579 427.941,465.645 425.573,470.42 422.789,472.001 418.515,475.8 418.132,475.958 415.083,477.213 
	413.843,478.305 411.689,487.92 408.308,490.285 407.5,491.545 406.591,496.048 405.159,499.563 404.968,500.4 403.79,505.583 
	403.373,506.313 402.007,508.71 401.99,511.52 402.88,515.1 402.473,517.697 399.539,521.959 394.869,524.766 390.268,534.483 
	389.318,536.128 388.712,536.407 388.285,536.603 376.285,549.293 373.958,550.618 368.517,553.715 363.652,555.182 
	361.521,557.087 361.218,560.286 360.318,561.856 359.941,563.62 358.001,565.263 358.01,566.372 356.199,567.688 355.623,568.801 
	355.957,570.429 354.861,571.741 354.544,572.983 355.148,575.717 355.084,575.887 354.83,576.568 355.098,577.871 353.416,578.86 
	353.224,579.448 354.798,581.721 354.286,582.637 351.421,582.003 351.501,584.09 350.214,586.186 350.031,587.687 344.773,588.7 
	340.318,593.229 338.959,594.02 337.334,593.9 336.041,595.083 335.388,594.565 334.531,594.672 331.037,595.114 329.295,597.083 
	327.18,601.531 323.945,604.03 321.881,606.196 317.146,607.987 311.381,610.827 308.324,610.52 307.546,610.852 306.193,612.612 
	305.935,612.949 304.832,613.216 303.927,614.004 302.838,616.425 298.943,617.363 296.407,617.182 295.885,616.794 
	294.367,613.413 293.586,613.157 292.094,613.557 289.483,612.073 287.598,612.02 286.236,612.549 284.942,613.536 283.785,615.37 
	283.402,616.742 283.549,619.023 282.506,622.105 282.281,623.409 276.381,627.223 273.547,631.824 273.115,632.935 273.9,638.982 
	273.615,640.166 271.2,641.883 269.289,642.195 265.897,641.336 262.274,639.225 261.365,638.944 260.651,638.722 254.403,639.585 
	251.308,638.946 247.174,637.356 242.383,636.435 226.161,636.151 216.402,635.98 190.418,636.202 167.67,636.394 167.275,632.838 
	167.354,620.446 166.65,611.612 166.926,606.018 166.527,600.606 165.92,592.338 165.006,569.925 164.66,566.226 164.527,564.809 
	164.082,560.027 161.199,544.019 160.946,538.536 159.11,534.396 157.719,529.834 155.302,521.911 154.171,519.735 149.402,513.594 
	143.412,507.197 137.276,502.611 136.799,501.879 131.588,493.92 130.133,490.895 128.618,486.966 126.035,474.843 126.02,472.82 
	125.281,468.541 124.8,465.747 124.717,461.7 122.408,450.799 123.996,439.29 124.846,433.133 125.227,430.38 125.62,412.057 
	126.285,408.75 125.703,397.385 125.105,385.7 124.226,374.417 122.672,365.109 121.473,361.924 121.211,361.232 118.936,347.51 
	116.271,338.37 114.561,329.33 114.469,326.85 114.162,318.416 113.653,314.213 114.478,310.958 115.629,308.979 123.113,303.118 
	123.213,302.809 123.32,302.477 122.797,301.638 120.061,300.065 118.271,297.97 116.822,294.521 116.942,292.76 118.803,289.032 
	118.795,287.401 116.961,284.737 116.434,283.175 116.808,280.629 118.43,280.425 118.227,279.122 116.861,278.542 118.531,275.728 
	118.064,273.513 119.972,269.625 120.311,268.936 119.842,266.656 120.029,265.35 121.851,265.927 122.359,264.098 124.373,264.609 
	123.717,263.308 124.165,262.132 125.85,261.666 125.521,260.82 126.357,259.641 124.79,258.02 124.783,256.65 123.67,254.96 
	124.572,253.977 125.014,251.757 126.564,250.575 126.754,249.726 125.577,248.232 126.477,246.662 124.65,245.042 124.719,244.589 
	124.838,243.801 125.482,243.015 125.346,241.973 122.668,239.052 122.27,237.359 120.445,236.326 120.311,235.283 120.953,234.17 
	120.623,233.325 117.512,233.994 117.121,233.735 117.059,234.192 114.078,234.991 112.52,234.869 110.045,233.382 105.936,229.752 
	104.559,227.216 102.727,227.084 101.07,226.965 101.076,226.734 101.104,224.496 99.717,220.069 99.895,217.263 98.852,216.356 
	97.868,214.666 96.445,214.266 93.743,213.696 90.094,210.197 86.346,209.218 84.328,207.334 82.209,207.544 80.7,206.819 
	79.619,204.308 79.171,203.266 79.18,199.198 80.008,196.402 79.791,192.995 75.802,190.506 73.662,187.81 72.674,184.408 
	68.609,176.805 67.953,176.732 64.874,177.919 63.648,178.392 61.451,178.446 59.016,177.418 55.834,174.575 54.733,171.6 
	54.785,168.074 55.24,166.947 61.129,160.278 62.127,159.729 65.938,159.081 66.467,157.682 65.85,155.755 67.619,154.123 
	68.2,151.083 69.52,147.903 70.694,143.308 70.855,141.413 70.941,140.406 70.008,131.846 70.2,130.563 71.723,127.652 
	71.912,125.964 70.547,122.872 69.922,119.774 71.312,117.402 72.229,114.158 72.896,113.749 76.047,113.321 78.447,111.077 
	82.111,112.888 86.586,112.668 89.58,114.543 91.527,114.859 92.631,114.788 95.211,112.296 97.088,111.634 99.23,111.883 
	100.336,112.399 102.623,115.386 104.579,117.202 109.465,118.809 111.014,119.318 113.305,119.182 116.436,119.755 120.801,121.44 
	122.098,121.587 126.597,120.354 131.052,120.216 134.797,122.115 137.144,124.024 140.623,125.144 143.645,127.152 
	144.787,127.612 146.442,127.765 148.418,127.948 149.615,128.616 150.244,129.549 151.161,134.386 150.158,137.171 
	150.146,137.207 149.902,139.345 151.318,141.417 154.658,144.517 154.89,147.693 157.043,151.426 157.733,153.713 157.484,154.965 
	155.086,156.802 153.361,158.123 152.753,159.899 154.544,163.74 156.059,165.239 157.686,167.935 157.652,170.279 156.631,172.319 
	156.689,173.204 160.619,178.904 160.74,181.195 161.262,181.555 163.281,181.175 165.326,176.814 165.83,175.737 168.667,173.84 
	172.455,174.487 173.904,174.215 176.852,173.203 178.963,171.415 182.064,170.401 183.09,170.435 184.605,170.485 187.94,172.855 
	195.988,174.718 197.561,175.474 198.121,175.744 202.35,179.513 205.777,180.527 207.952,180.145 210.119,178.93 211.869,177.249 
	218.783,173.286 223.227,172.424 223.545,172.362 229.447,172.658 230.7,172.721 235.042,171.699 235.09,171.649 237.812,168.807 
	239.301,168.276 239.672,168.289 242.609,168.387 251.664,174.006 252.963,174.389 254.533,176.206 257.254,175.667 259.583,174.61 
	267.04,173.913 267.943,173.059 269.955,169.254 270.122,168.937 271.84,163.645 271.572,162.276 272.084,161.23 274.613,161.019 
	279.986,159.16 281.867,159.279 283.562,160.572 284.482,162.393 285.788,163.559 287.995,163.675 290.017,165.293 293.498,162.011 
	295.118,161.674 296.67,160.752 302.506,160.324 303.344,159.602 304.176,157.771 306.438,156.517 307.662,155.205 308.426,152.918 
	314.791,144.27 316.882,137.101 318,136.024 319.074,131.225 320.049,129.001 320.752,127.399 320.576,125.629 319.061,123.119 
	319.67,119.409 319.393,111.68 317.156,106.116 317.252,103.132 317.285,102.142 317.699,100.635 320.12,96.319 320.725,92.02 
	322.446,86.958 323.396,85.716 325.361,84.411 329.088,82.929 330.021,79.485 329.643,72.377 329.451,68.753 327.633,62.004 
	326.887,55.784 324.601,50.542 324.375,49.041 324.884,46.031 326.885,42.578 326.982,37.908 326.998,37.102 328.32,35.534 
	328.362,35.533 328.961,35.528 334.433,38.648 338.035,41.678 340.165,41.836 347.064,42.352 351.037,45.001 354.593,48.729 
	355.743,50.64 358.22,54.764 364.792,61.471 370.167,65.772 375.308,67.553 377.66,67.747 379.368,67.41 384.263,66 388.208,64.863 
	389.698,64.152 392.402,61.874 396.031,55.615 398.039,53.074 400.797,51.01 401.214,49.825 401.647,44.238 402.118,43 
	402.964,42.294 404.138,42.176 405.88,43.322 410.744,46.52 416.31,48.027 420.103,48.423 426.135,48.208 430.55,46.29 
	436.474,46.021 439.66,44.588 442.804,43.173 443.25,42.471 444.654,40.268 446.068,38.044 447.583,34.272 448.587,33.083 
	451.667,31.283 453.269,31.162 454.929,31.791 457.951,35.252 460.042,36.415 462.177,36.395 464.993,34.706 466.212,34.558 
	467.873,34.357 468.25,34.729 467.744,37.794 468.023,39.241 469.214,41.109 470.181,41.798 471.55,45.543 475.904,48.724 
	477.83,49.189 481.583,51.142 485.039,55.19 489.646,55.757 489.902,55.789 492.855,57.641 497.781,58.991 500.154,61.707 
	498.611,62.77 493.304,65.958 489.727,72.003 486.56,76.112 482.636,85.06 480.953,90.553 480.509,92.005 477.468,98.261 
	475.175,104.724 471.947,108.136 464.458,122.028 463.804,123.243 461.751,126.698 459.845,128.541 459.214,129.728 
	459.189,132.895 460.325,134.388 462.738,135.547 465.843,136.378 468.327,139.255 469.876,139.563 473.115,137.171 
	478.429,134.351 481.25,132.855 484.371,129.659 486.284,128.406 487.57,129.47 489.628,130.469 488.96,135.254 486.64,138.497 
	482.707,140.68 479.595,145.058 477.878,146.644 477.423,147.064 476.035,147.077 474.529,146.125 472.027,147.06 471.347,148.623 
	470.779,149.036 470.534,150.863 469.118,152.308 465.24,154.487 463.705,157.432 465.535,159.441 465.871,160.939 465.365,162.768 
	466.095,165.045 464.89,168.901 464.121,170.016 463.212,170.217 462.261,173.289 460.642,173.431 460.002,174.87 460.597,176.366 
	460.542,176.93 460.476,177.605 455.607,186.118 454.511,187.168 455.099,187.621 456.722,187.805 456.867,189.761 458.107,190.926 
	459.73,191.045 461.284,190.448 461.95,191.121 462.892,191.693 463.111,194.597 464.029,196.591 464.244,199.172 467.351,201.662 
	470.05,201.767 470.761,202.277 471.152,202.79 470.075,204.349 470.269,204.735 472.136,205.105 472.914,205.68 476.689,211.134 
	477.505,211.205 478.003,212.067 482.493,213.406 483.097,213.339 484.417,213.194 489.142,209.793 495.327,204.312 
	499.523,199.365 500.851,197.092 501.496,197.151 502.205,197.532 506.623,202.786 509.202,204.135 513.66,206.466 522.325,212.327 
	522.792,214.453 522.702,218.458 523.16,219.422 523.68,220.127 526.132,221.203 527.363,222.224 529.009,224.566 529.414,225.05 
	530.58,224.781 532.384,223.073 533.796,220.975 538.325,218.92 539.298,219.044 543.156,222.929 545.243,224.153 548.755,225.431 
	550.964,225.543 555.433,224.535 558.095,224.71 559.665,223.892 561.392,222.991 563.404,222.911 566.833,221.646 568.652,222.024 
	570.523,220.575 572.922,220.296 576.806,219.094 577.931,219.757 579.253,220.96 577.74,222.348 575.628,225.41 "/>
<path fill-rule="evenodd" clip-rule="evenodd" fill="#C6ECFF" d="M88.893,680.196c0.182-0.412,0.349-0.802,0.525-1.157
	c0.784-1.567,3.354-3.823,4.242-5.488c0.215-0.405,0.283-0.926,0.498-1.33c0.216-0.403,1.216-1.967,1.498-2.329
	c1.199-1.543,4.211-3.344,3.908-5.571c-0.643-1.317-1.552-2.805-1.248-4.323c0.262-1.312,1.477-2.494,2.078-3.66
	c0.531-1.028,0.527-2.077,0.916-2.993c0.19-0.45,1.354-1.784,1.746-2.162c0.709,0.013,2.718,0.269,3.326,0.583
	c2.035,1.05,2.46,5.962,5.072,6.652l1.33-0.084c1.888-0.874,2.556-3.484,2.412-5.404c-0.035-0.473-0.333-1.021-0.416-1.497
	c-0.199-1.136-0.102-2.364-0.332-3.493c-0.109-0.53-0.381-1.05-0.5-1.58c-0.256-1.143-0.225-2.345-0.416-3.492
	c-0.098-0.585-0.32-1.161-0.416-1.746c-0.096-0.595-0.051-1.24-0.166-1.83c-0.103-0.528-0.377-1.052-0.498-1.579
	c-0.369-1.597-0.363-5.768-0.084-7.401c0.091-0.529,0.321-1.051,0.416-1.58c0.391-2.175,0.518-4.272,1.248-6.402
	c0.154-0.45,0.439-0.879,0.582-1.33c0.322-1.026,0.402-1.919,0.914-2.911c1.484-2.874,3.393-4.307,3.992-7.733
	c0.418-2.393,0.27-4.074-0.084-6.431c-0.106-0.714-0.332-1.589-0.332-2.301c0-0.594,0.223-1.231,0.25-1.829
	c0.084-1.888-0.25-3.756,0.082-5.654c0.621-3.553,2.45-6.601,3.576-9.979c0.93-2.791,0.752-5.566,1.248-8.399
	c0.545-3.114,2.263-6.089,2.826-9.23c0.307-1.708,0.241-3.518,0.499-5.238c0.161-1.072,0.567-2.104,0.749-3.16
	c0.102-0.597,0.076-1.229,0.166-1.829c0.074-0.494,0.284-1.004,0.332-1.497c0.061-0.62-0.027-1.287,0-1.913
	c0.053-1.191,0.28-2.385,0.333-3.575c0.054-1.223-0.095-2.534,0.167-3.742c0.207-0.963,0.701-1.911,0.914-2.91
	c-0.2-0.933-0.539-2.073-0.998-2.911c-0.481-0.878-1.072-1.498-1.414-2.494c-0.375-1.098-0.44-2.205-0.664-3.326
	c-0.206-1.027-0.476-2.147-0.749-3.16c-0.134-0.494-0.396-0.998-0.499-1.496c-0.112-0.549-0.021-1.213-0.166-1.747
	c-0.197-0.729-1.046-1.888-1.663-2.328h-1.165c-0.263,0.288-0.714,0.676-0.914,0.998c-0.238,0.383-0.402,0.99-0.582,1.413
	c-0.643,1.517-1.313,3.023-1.94,4.547c-0.295,0.717-0.528,1.6-0.887,2.272c-0.584,1.095-0.909,1.196-1.331,2.578
	c-0.324,1.063-1.044,3.626-1.164,4.656c-0.146,1.254,0.265,2.7,0.084,3.908c-0.022,0.146-0.51,1.176-0.582,1.414
	c-0.459,1.501-0.623,3.155-1.082,4.656c-0.146,0.479-0.431,0.935-0.582,1.414c-0.623,1.984-0.982,4.089-1.662,6.07
	c-0.154,0.45-0.44,0.878-0.582,1.33c-0.159,0.505-0.175,1.075-0.334,1.58c-0.299,0.955-0.867,1.857-1.164,2.827
	c-0.146,0.483-0.181,1.016-0.332,1.497c-0.607,1.935-1.423,3.824-2.078,5.737c-0.171,0.497-0.214,1.103-0.416,1.58
	c-0.168,0.396-0.543,0.778-0.749,1.164c-0.463,0.869-0.722,1.834-1.081,2.744c-0.714,1.813-1.762,3.635-2.328,5.488
	c-0.154,0.508-0.174,1.075-0.332,1.58c-0.143,0.452-0.441,0.879-0.583,1.33c-0.429,1.367-0.696,3.453-0.915,4.906
	c-0.084,0.561-0.043,1.199-0.166,1.747c-0.118,0.526-0.43,1.056-0.582,1.579c-0.439,1.521-0.781,3.049-1.247,4.574
	c-0.751,2.456-0.479,6.587-1.247,8.398c-0.036,0.085-0.735,1.029-0.832,1.164c-1.592,1.315-4.375-0.027-6.07-0.498
	c-1.037-0.288-2.135-0.397-3.16-0.749c-1.396-0.479-2.492-1.467-3.908-1.913c-0.549-0.758-1.039-1.637-1.414-2.494l-1.579-0.416
	c-0.632,0.254-2.428,0.625-3.077,0.499c-0.743-0.145-7.35-3.318-7.9-3.825c-0.068-0.063-0.732-1.027-0.83-1.164h0.249
	c0.366-0.466,1.249-2.033,1.331-2.578c0.266-1.778-0.61-3.547,0.498-5.238l0.666-0.665c1.081-1.082,1.868-2.503,2.992-3.493
	c0.352-0.308,0.8-0.536,1.164-0.831c0.737-0.595,1.232-1.396,1.913-1.996c0.677-0.596,1.623-0.983,2.329-1.579
	c0.353-0.299,0.639-0.709,0.998-0.998c0.35-0.283,0.82-0.461,1.164-0.749c0.87-0.731,3.093-3.394,3.492-4.407
	c0.141-0.355,0.642-4.457,0.665-4.989c0.029-0.656-0.098-1.337-0.083-1.995c0.037-1.7,0.418-3.354,0.332-5.073
	c-0.451-0.956-1.168-1.411-1.828-2.161c-0.283-0.322-0.473-0.753-0.75-1.082c-3.354-3.993-2.854-1.496-4.406-7.4
	c0.376-2.665,3.163-5.105,3.825-7.9c0.208-0.879,0.19-1.998,0.276-2.91c0.068-0.711,0.239-1.539,0.223-2.245
	c-0.04-1.661-0.714-3.28-0.998-4.906c-0.102-0.579-0.096-1.269-0.25-1.829c-0.258-0.94-0.777-1.795-1.08-3.077
	c-0.432-1.819-0.498-3.72-0.971-5.516c-0.551-2.096-1.484-3.679-1.358-5.96c1.706-1.432,6.466-6.631,6.902-8.647
	c0.239-1.11,0.241-2.613,0.166-3.742c-0.038-0.574-0.235-1.175-0.249-1.747c-0.014-0.562,0.141-1.178,0.166-1.746
	c0.082-1.844,0.135-3.99-0.083-5.82c-0.188-1.585-0.854-3.103-1.164-4.656c-0.286-1.433-0.737-3.896-0.665-5.322
	c0.168-3.385,2.918-4.532,3.159-6.486c-0.095-0.427-0.163-1.108-0.333-1.497c-0.226-0.517-1.979-2.995-2.41-3.492
	c-0.445-1.912,0.585-4.401,2.244-5.488c1.464-0.959,2.27-0.856,3.492-2.495c0.176-1.018,0.57-1.996,0.749-2.993
	c0.106-0.595,0.064-1.233,0.167-1.829c0.084-0.493,0.391-1.094,0.415-1.58c0.083-1.648-1.437-4.238-2.495-5.488
	c-0.556-0.657-1.35-1.16-1.912-1.83c-0.306-0.363-0.524-0.801-0.832-1.164c-0.289-0.342-0.74-0.639-0.998-0.998
	c-0.432-0.604-1.562-3.525-1.662-4.24c-0.166-1.186,0.041-2.247,0.498-3.326c0.773-1.822,1.966-3.25,2.994-4.906
	c0.248-0.399,0.418-0.848,0.666-1.248c0.729-1.176,1.674-2.266,2.328-3.492c0.689-1.294,1.242-2.692,1.912-3.991
	c0.207-0.402,0.547-0.76,0.748-1.164c0.857-1.714,0.854-4.302,1.83-5.821c0.595-0.926,2.454-2.079,3.492-2.412
	c0.146-0.324,1.141-2.586,1.164-2.743c0.105-0.704-0.072-1.8-0.139-2.522c-0.141-1.553-0.67-2.989-0.775-4.546
	c-0.095-1.384,0.099-4.066,0.166-5.571c0.026-0.596,0.18-1.238,0.166-1.83c-0.013-0.544-0.236-1.118-0.25-1.662
	c-0.013-0.536,0.234-1.23,0.167-1.746c-0.042-0.317-0.757-1.938-0.915-2.412c-0.467-1.402-1.547-5.619-1.58-6.985
	c-0.055-2.321,1.416-3.806,1.912-5.904c0.338-1.425,0.434-3.94,0.334-5.405c-0.08-1.163-0.422-2.329-0.5-3.492
	c-0.117-1.76-0.009-3.521-0.582-5.238c-0.402-1.21-1.604-3.046-1.912-4.158c-0.316-1.141-0.025-2.349,0-3.492
	c0.024-1.104,0-2.39-0.083-3.492c-0.083-1.106-0.226-2.402-0.415-3.493c-0.287-1.638-0.969-3.13-1.082-4.823
	c-0.009-0.135-0.014-1.919,0-1.996c0.017-0.094,0.514-1.156,0.582-1.331c0.747-1.896,1.784-3.851,1.83-5.904
	c0.014-0.659-0.113-1.339-0.084-1.996c0.045-0.994,0.413-4.247,0.582-5.239c0.091-0.53,0.324-1.051,0.416-1.581
	c0.187-1.064,0.09-2.29,0.416-3.326c0.205-0.652,0.982-1.939,1.414-2.495c1.596-2.053,5.389-3.468,7.899-3.908
	c0.596-0.104,3.995,1.575,4.591,1.471c0,0,6.25,2,8,1.5s3.5-0.75,5,0.5s6.25,1.5,7,0s0.5-2.25,2.25-2.25s6.066-0.694,6.066-0.694
	s-0.816,4.194,2.684,4.444s4.25,0.75,4.25,2s0.5,2.5,1.75,3.5s0.75,4.25,0.75,6s-1.25,4.5-1,7s-0.5,9-1,10.5s-3,3.75-1.75,6
	s3,6.5,1.75,7.75s-1.5,3.5-1.5,3.5l-0.25,6.25c0,0,2.5,3,3,4.25s1.5,4,0.5,5.5s-0.75,4.25-0.75,4.25s-2.25,13.25-2.25,14.5
	s-1.25,4.5-1.25,4.5s-1.75,4-1.75,5.25s-0.75,6.75-0.75,6.75s-2.25,2-3.25,3s-1.5,3-1.5,3s0.25,2.5,2.25,4.5s4.25,3.75,4,5.5
	s-0.25,5,1.25,7.75s1.5,4.5,1.5,6s-0.5,4,1.25,5.25s3.75,3,3.75,4.75s0.25,1.75,1.5,3s3.25,4,3.25,5.5s0,3.5,1.75,5.5
	s5.5,6.5,6,7.75s1.75,9.5,1.75,9.5s0.75,3.5,3.75,5s3.75,4.25,2.5,5.75s-1.75,2.75-1.75,4s-0.5,2.75,1,3.75s2.5,1,3.25,2.25
	s2.25,4,3.25,5s1.5,5,1.5,5s4,5.75,4.75,7s5,6,5.25,7.5s-0.25,4.5,1,6.25s2,3,2,4.75s-0.5,6.25,0.25,7.5s3.25,3.75,3.25,3.75l5,3
	c0,0,2.25,2.25,2.25,4s0,7,1,8.75s2.5,5.75,3.5,7.25s1.5,3.5,1.5,4.75s1.5,8.5,3.25,10s2.5,3.5,2,4.5s-1,1.75,1.25,4
	s3.5,2.5,3.5,2.5s2.75,0.75,4.25,2s5,3,5.75,4s7.75,6,7.75,7s0,3.75,0,3.75v7c0,0-0.5,6.75,1,9.25s3,9.5,1.5,12.5s-5.5,9-5.5,9
	l-1.5,7.5v5.5L88.893,680.196z"/>
<path fill-rule="evenodd" clip-rule="evenodd" fill="#C6ECFF" d="M51.914,0.259c-0.475,0.89-0.727,1.933-0.686,2.904l0.832,0.749
	c1.594-0.343,2.12-1.941,3.492-2.412l1.109-0.11c0.641-0.064,1.522,0.044,2.134,0.277l0.665,1.331
	c-0.597,0.711-1.289,1.394-1.995,1.996L57.133,6.49c0.895,1.05,1.96,1.917,2.91,2.91l1.082-0.582
	c0.216-0.769,1.183-1.713,1.912-1.996l1.33,0.25c-0.055,2.203-2.182,3.106-2.66,5.073c-0.293,1.205,0.029,2.313,0,3.492
	c-0.027,1.054-0.355,2.268-0.499,3.327v-0.25c-0.085,0.943,0.076,2.491,0.581,3.327c0.881,0.116,3.941-0.399,4.74-0.749
	c0.035-0.016,2.207-1.561,2.328-1.663c0.335-0.283,0.58-0.717,0.916-0.998c0.342-0.288,0.822-0.459,1.164-0.749
	c0.342-0.29,0.637-0.836,0.997-1.081c1.618-1.098,4.345-0.033,5.987-1.747c0.594-0.619,0.936-1.717,1.497-2.412
	c1.215-1.504,2.71-2.544,3.659-4.324c1.055-1.979,1.16-4.262,0.582-6.403c-0.146-0.541-0.368-1.097-0.559-1.657h26.978
	c-0.094,0.345-0.392,1.43-0.392,1.491c0,0.146,0.375,1.327,0.416,1.58c0.354,2.189-0.404,3.936-2.494,4.823v1.58
	c1.429,1.454,1.234,3.75,2.66,5.239c0.887-0.049,1.979-0.383,2.744-0.832l0.998,0.998v1.497c-0.848,1.436-3.7,2.216-5.239,2.661
	c-2.146-0.304-3.229-1.649-4.656-3.077l-1.413,0.25c-0.299,0.627-2.117,2.699-2.662,3.16c-0.725,0.613-1.535,0.85-2.162,1.663
	c-0.279,0.364-0.504,0.853-0.748,1.247c-0.09,0.146-0.717,1.077-0.748,1.164c-0.145,0.406-0.051,0.99-0.166,1.414
	c-0.122,0.445-0.475,0.884-0.583,1.331c-0.261,1.072-0.163,2.229-0.499,3.326c-0.669,2.189-2.167,4.469-3.242,6.486
	c-0.213,0.399-0.334,0.964-0.582,1.331l-0.666,0.666l-0.332,0.333l-1.164-0.749c-0.039-3.084,3.433-5.953,2.993-10.561l-1.331,0.167
	c-0.523,0.772-0.999,1.693-1.58,2.412c-0.271,0.337-0.77,0.643-0.997,0.998c-1.114,1.732,0.183,4.242-1.58,6.07l-1.413,0.583
	l-1.164-0.749l-0.582-1.331l-1.248-0.831c-1.03,0.731-2.197,4.063-2.412,5.321c-0.101,0.591-0.043,1.246-0.166,1.83
	c-0.094,0.445-0.402,0.886-0.498,1.331c-0.244,1.125-0.205,2.192-0.582,3.326c-0.48,1.438-1.212,2.414-2.246,3.493
	c-0.281,0.293-0.782,0.669-0.998,0.998c-0.255,0.39-0.363,0.991-0.582,1.414c-0.208,0.403-0.534,0.763-0.748,1.164
	c-0.897,1.682-1.627,3.413-3.076,4.74l-1.331,0.167l-0.749-1.164l0.084-1.331c0.64-0.755,1.522-1.162,2.162-1.829
	c0.527-0.551,2.241-4.432,2.411-5.239c0.118-0.56,0.114-1.254,0.167-1.83c-0.95-0.949-2.182-1.91-2.578-3.243
	c-1.023-3.44,1.615-5.17,1.081-8.149c-0.177-0.986-1.104-1.842-1.413-2.744c-0.354-1.029-0.158-2.083-0.832-3.077
	c-1.312-1.934-4.773-3.082-6.902-2.079l-0.305,0.333c-1.887,2.057-0.766,3.225-1.691,5.322c-0.733,1.664-3.23,4.394-3.824,5.904
	c-0.895,2.269,0.189,4.935-0.416,7.235c-1.015,3.853-4.754,1.628-6.57,7.151c-1.818,1.919-7.893,0.667-10.311,1.497
	c-0.362,0.124-0.796,0.592-1.164,0.748c-1.897,0.805-4.142,0.846-5.987,1.83c-2.96,1.579-3.421,4.442-4.407,7.318
	c-0.314,0.919-0.854,1.787-1.081,2.744c-0.351,1.478-0.322,3.047-0.638,4.546c-0.582,2.768-1.266,5.534-2.023,8.26
	c-1.33,0.988-4.399,1.225-5.987,0.998c-1.497-0.214-3.52-0.648-4.657-1.746c-0.107-0.104-2.758-3.567-2.91-3.825
	c-0.504-0.86-1.141-3.668-1.164-4.657c-0.043-1.849,0.462-3.684,0.333-5.571c-0.19-2.785-0.784-4.076-0.333-7.151
	c1.186-1.271,1.826-3.963,2.079-5.655c0.078-0.521,0.017-1.257,0.167-1.747l0.748-1.247c0.904-1.121,3.82-2.294,5.238-2.578
	c0.588-0.118,1.242-0.049,1.83-0.167c0.17-0.034,2.768-0.922,2.91-0.998c1.96-1.045,3.278-3.39,4.906-4.823
	c0.666-0.586,1.623-1.173,2.412-1.58c1.297-0.669,2.713-1.105,3.99-1.829c1.186-0.671,2.316-1.835,3.659-2.162
	c0.882-0.215,1.991-0.201,2.911-0.333c0.227-0.032,0.353-0.089,0.582-0.083c1.062,0.027,1.938,0.461,3.16,0.333
	c2.5-3.18,0.45-4.879,1.662-7.65c0.343-0.783,1.099-1.531,1.497-2.329c0.784-1.569,0.782-2.992,1.081-4.657
	c0.303-1.686,1.01-3.135,0.915-4.906L48.9,15.637c-0.6,0.684-1.35,1.299-1.912,1.996c-0.739,0.916-1.635,2.819-2.328,3.576
	c-0.271,0.296-0.794,0.461-1.081,0.749c-1.271,1.271-1.874,3.839-3.077,4.74c-2.826,0.127-3.422,0.814-4.822,2.994
	c-0.25,0.387-0.618,0.763-0.832,1.164c-0.208,0.389-0.266,0.967-0.499,1.33c-0.765,1.189-3.313,2.459-4.491,3.41
	c-0.336,0.272-0.645,0.675-0.997,0.915c-0.642,0.435-1.435,0.731-2.106,1.164c-0.152,0.098-0.219,0.191-0.389,0.25
	c-0.465,0.16-1.244,0.178-1.746,0.249l0.166-1.746c2.191-2.286,4.051-3.376,6.57-5.156l0.582-1.331
	c-0.426-0.8-0.472-2.339-0.084-3.16c0.625-0.625,1.953-1.143,2.828-1.165l0.914-1.081c-0.075-1.132,0.001-2.288-0.083-3.41
	c-0.04-0.54-0.276-1.219-0.249-1.746c0.027-0.555,1.064-3.912,1.33-4.574l-0.333-1.081l-2.827,0.749
	c-0.511-0.77-0.793-2.17-0.748-3.077l-0.832-0.749h-1.912c-2.758,1.378-3.853,4.608-4.158,7.484h-1.247
	c-0.606-0.649-1.026-2.04-0.998-2.91H22.79c-1.011,1.055-1.29,2.618-1.913,3.908l-1.33,0.665l-0.998-0.998
	c-0.109-1.733-0.622-3.515-0.249-5.239c0.208-0.963,0.701-1.913,0.915-2.911c-0.565-1.419-2.105-1.956-2.412-3.492V6.102
	c0-3.114,2.272-4.109,3.727-5.842H51.914z"/>
<path fill-rule="evenodd" clip-rule="evenodd" fill="none" stroke="#84BCD5" stroke-width="1.1339" stroke-linejoin="round" stroke-miterlimit="3.8637" d="
	M88.893,680.196c0.182-0.412,0.349-0.802,0.525-1.157c0.784-1.567,3.354-3.823,4.242-5.488c0.215-0.405,0.283-0.926,0.498-1.33
	c0.216-0.403,1.216-1.967,1.498-2.329c1.199-1.543,4.211-3.344,3.908-5.571c-0.643-1.317-1.552-2.805-1.248-4.323
	c0.262-1.312,1.477-2.494,2.078-3.66c0.531-1.028,0.527-2.077,0.916-2.993c0.19-0.45,1.354-1.784,1.746-2.162
	c0.709,0.013,2.718,0.269,3.326,0.583c2.035,1.05,2.46,5.962,5.072,6.652l1.33-0.084c1.888-0.874,2.556-3.484,2.412-5.404
	c-0.035-0.473-0.333-1.021-0.416-1.497c-0.199-1.136-0.102-2.364-0.332-3.493c-0.109-0.53-0.381-1.05-0.5-1.58
	c-0.256-1.143-0.225-2.345-0.416-3.492c-0.098-0.585-0.32-1.161-0.416-1.746c-0.096-0.595-0.051-1.24-0.166-1.83
	c-0.103-0.528-0.377-1.052-0.498-1.579c-0.369-1.597-0.363-5.768-0.084-7.401c0.091-0.529,0.321-1.051,0.416-1.58
	c0.391-2.175,0.518-4.272,1.248-6.402c0.154-0.45,0.439-0.879,0.582-1.33c0.322-1.026,0.402-1.919,0.914-2.911
	c1.484-2.874,3.393-4.307,3.992-7.733c0.418-2.393,0.27-4.074-0.084-6.431c-0.106-0.714-0.332-1.589-0.332-2.301
	c0-0.594,0.223-1.231,0.25-1.829c0.084-1.888-0.25-3.756,0.082-5.654c0.621-3.553,2.45-6.601,3.576-9.979
	c0.93-2.791,0.752-5.566,1.248-8.399c0.545-3.114,2.263-6.089,2.826-9.23c0.307-1.708,0.241-3.518,0.499-5.238
	c0.161-1.072,0.567-2.104,0.749-3.16c0.102-0.597,0.076-1.229,0.166-1.829c0.074-0.494,0.284-1.004,0.332-1.497
	c0.061-0.62-0.027-1.287,0-1.913c0.053-1.191,0.28-2.385,0.333-3.575c0.054-1.223-0.095-2.534,0.167-3.742
	c0.207-0.963,0.701-1.911,0.914-2.91c-0.2-0.933-0.539-2.073-0.998-2.911c-0.481-0.878-1.072-1.498-1.414-2.494
	c-0.375-1.098-0.44-2.205-0.664-3.326c-0.206-1.027-0.476-2.147-0.749-3.16c-0.134-0.494-0.396-0.998-0.499-1.496
	c-0.112-0.549-0.021-1.213-0.166-1.747c-0.197-0.729-1.046-1.888-1.663-2.328h-1.165c-0.263,0.288-0.714,0.676-0.914,0.998
	c-0.238,0.383-0.402,0.99-0.582,1.413c-0.643,1.517-1.313,3.023-1.94,4.547c-0.295,0.717-0.528,1.6-0.887,2.272
	c-0.584,1.095-0.909,1.196-1.331,2.578c-0.324,1.063-1.044,3.626-1.164,4.656c-0.146,1.254,0.265,2.7,0.084,3.908
	c-0.022,0.146-0.51,1.176-0.582,1.414c-0.459,1.501-0.623,3.155-1.082,4.656c-0.146,0.479-0.431,0.935-0.582,1.414
	c-0.623,1.984-0.982,4.089-1.662,6.07c-0.154,0.45-0.44,0.878-0.582,1.33c-0.159,0.505-0.175,1.075-0.334,1.58
	c-0.299,0.955-0.867,1.857-1.164,2.827c-0.146,0.483-0.181,1.016-0.332,1.497c-0.607,1.935-1.423,3.824-2.078,5.737
	c-0.171,0.497-0.214,1.103-0.416,1.58c-0.168,0.396-0.543,0.778-0.749,1.164c-0.463,0.869-0.722,1.834-1.081,2.744
	c-0.714,1.813-1.762,3.635-2.328,5.488c-0.154,0.508-0.174,1.075-0.332,1.58c-0.143,0.452-0.441,0.879-0.583,1.33
	c-0.429,1.367-0.696,3.453-0.915,4.906c-0.084,0.561-0.043,1.199-0.166,1.747c-0.118,0.526-0.43,1.056-0.582,1.579
	c-0.439,1.521-0.781,3.049-1.247,4.574c-0.751,2.456-0.479,6.587-1.247,8.398c-0.036,0.085-0.735,1.029-0.832,1.164
	c-1.592,1.315-4.375-0.027-6.07-0.498c-1.037-0.288-2.135-0.397-3.16-0.749c-1.396-0.479-2.492-1.467-3.908-1.913
	c-0.549-0.758-1.039-1.637-1.414-2.494l-1.579-0.416c-0.632,0.254-2.428,0.625-3.077,0.499c-0.743-0.145-7.35-3.318-7.9-3.825
	c-0.068-0.063-0.732-1.027-0.83-1.164h0.249c0.366-0.466,1.249-2.033,1.331-2.578c0.266-1.778-0.61-3.547,0.498-5.238l0.666-0.665
	c1.081-1.082,1.868-2.503,2.992-3.493c0.352-0.308,0.8-0.536,1.164-0.831c0.737-0.595,1.232-1.396,1.913-1.996
	c0.677-0.596,1.623-0.983,2.329-1.579c0.353-0.299,0.639-0.709,0.998-0.998c0.35-0.283,0.82-0.461,1.164-0.749
	c0.87-0.731,3.093-3.394,3.492-4.407c0.141-0.355,0.642-4.457,0.665-4.989c0.029-0.656-0.098-1.337-0.083-1.995
	c0.037-1.7,0.418-3.354,0.332-5.073c-0.451-0.956-1.168-1.411-1.828-2.161c-0.283-0.322-0.473-0.753-0.75-1.082
	c-3.354-3.993-2.854-1.496-4.406-7.4c0.376-2.665,3.163-5.105,3.825-7.9c0.208-0.879,0.19-1.998,0.276-2.91
	c0.068-0.711,0.239-1.539,0.223-2.245c-0.04-1.661-0.714-3.28-0.998-4.906c-0.102-0.579-0.096-1.269-0.25-1.829
	c-0.258-0.94-0.777-1.795-1.08-3.077c-0.432-1.819-0.498-3.72-0.971-5.516c-0.551-2.096-1.484-3.679-1.358-5.96
	c1.706-1.432,6.466-6.631,6.902-8.647c0.239-1.11,0.241-2.613,0.166-3.742c-0.038-0.574-0.235-1.175-0.249-1.747
	c-0.014-0.562,0.141-1.178,0.166-1.746c0.082-1.844,0.135-3.99-0.083-5.82c-0.188-1.585-0.854-3.103-1.164-4.656
	c-0.286-1.433-0.737-3.896-0.665-5.322c0.168-3.385,2.918-4.532,3.159-6.486c-0.095-0.427-0.163-1.108-0.333-1.497
	c-0.226-0.517-1.979-2.995-2.41-3.492c-0.445-1.912,0.585-4.401,2.244-5.488c1.464-0.959,2.27-0.856,3.492-2.495
	c0.176-1.018,0.57-1.996,0.749-2.993c0.106-0.595,0.064-1.233,0.167-1.829c0.084-0.493,0.391-1.094,0.415-1.58
	c0.083-1.648-1.437-4.238-2.495-5.488c-0.556-0.657-1.35-1.16-1.912-1.83c-0.306-0.363-0.524-0.801-0.832-1.164
	c-0.289-0.342-0.74-0.639-0.998-0.998c-0.432-0.604-1.562-3.525-1.662-4.24c-0.166-1.186,0.041-2.247,0.498-3.326
	c0.773-1.822,1.966-3.25,2.994-4.906c0.248-0.399,0.418-0.848,0.666-1.248c0.729-1.176,1.674-2.266,2.328-3.492
	c0.689-1.294,1.242-2.692,1.912-3.991c0.207-0.402,0.547-0.76,0.748-1.164c0.857-1.714,0.854-4.302,1.83-5.821
	c0.595-0.926,2.454-2.079,3.492-2.412c0.146-0.324,1.141-2.586,1.164-2.743c0.105-0.704-0.072-1.8-0.139-2.522
	c-0.141-1.553-0.67-2.989-0.775-4.546c-0.095-1.384,0.099-4.066,0.166-5.571c0.026-0.596,0.18-1.238,0.166-1.83
	c-0.013-0.544-0.236-1.118-0.25-1.662c-0.013-0.536,0.234-1.23,0.167-1.746c-0.042-0.317-0.757-1.938-0.915-2.412
	c-0.467-1.402-1.547-5.619-1.58-6.985c-0.055-2.321,1.416-3.806,1.912-5.904c0.338-1.425,0.434-3.94,0.334-5.405
	c-0.08-1.163-0.422-2.329-0.5-3.492c-0.117-1.76-0.009-3.521-0.582-5.238c-0.402-1.21-1.604-3.046-1.912-4.158
	c-0.316-1.141-0.025-2.349,0-3.492c0.024-1.104,0-2.39-0.083-3.492c-0.083-1.106-0.226-2.402-0.415-3.493
	c-0.287-1.638-0.969-3.13-1.082-4.823c-0.009-0.135-0.014-1.919,0-1.996c0.017-0.094,0.514-1.156,0.582-1.331
	c0.747-1.896,1.784-3.851,1.83-5.904c0.014-0.659-0.113-1.339-0.084-1.996c0.045-0.994,0.413-4.247,0.582-5.239
	c0.091-0.53,0.324-1.051,0.416-1.581c0.187-1.064,0.09-2.29,0.416-3.326c0.205-0.652,0.982-1.939,1.414-2.495
	c1.596-2.053,5.389-3.468,7.899-3.908c0.596-0.104,3.995,1.575,4.591,1.471c0,0,6.25,2,8,1.5s3.5-0.75,5,0.5s6.25,1.5,7,0
	s0.5-2.25,2.25-2.25s6.066-0.694,6.066-0.694s-0.816,4.194,2.684,4.444s4.25,0.75,4.25,2s0.5,2.5,1.75,3.5s0.75,4.25,0.75,6
	s-1.25,4.5-1,7s-0.5,9-1,10.5s-3,3.75-1.75,6s3,6.5,1.75,7.75s-1.5,3.5-1.5,3.5l-0.25,6.25c0,0,2.5,3,3,4.25s1.5,4,0.5,5.5
	s-0.75,4.25-0.75,4.25s-2.25,13.25-2.25,14.5s-1.25,4.5-1.25,4.5s-1.75,4-1.75,5.25s-0.75,6.75-0.75,6.75s-2.25,2-3.25,3
	s-1.5,3-1.5,3s0.25,2.5,2.25,4.5s4.25,3.75,4,5.5s-0.25,5,1.25,7.75s1.5,4.5,1.5,6s-0.5,4,1.25,5.25s3.75,3,3.75,4.75
	s0.25,1.75,1.5,3s3.25,4,3.25,5.5s0,3.5,1.75,5.5s5.5,6.5,6,7.75s1.75,9.5,1.75,9.5s0.75,3.5,3.75,5s3.75,4.25,2.5,5.75
	s-1.75,2.75-1.75,4s-0.5,2.75,1,3.75s2.5,1,3.25,2.25s2.25,4,3.25,5s1.5,5,1.5,5s4,5.75,4.75,7s5,6,5.25,7.5s-0.25,4.5,1,6.25
	s2,3,2,4.75s-0.5,6.25,0.25,7.5s3.25,3.75,3.25,3.75l5,3c0,0,2.25,2.25,2.25,4s0,7,1,8.75s2.5,5.75,3.5,7.25s1.5,3.5,1.5,4.75
	s1.5,8.5,3.25,10s2.5,3.5,2,4.5s-1,1.75,1.25,4s3.5,2.5,3.5,2.5s2.75,0.75,4.25,2s5,3,5.75,4s7.75,6,7.75,7s0,3.75,0,3.75v7
	c0,0-0.5,6.75,1,9.25s3,9.5,1.5,12.5s-5.5,9-5.5,9l-1.5,7.5v5.5"/>
<path fill-rule="evenodd" clip-rule="evenodd" fill="none" stroke="#84BCD5" stroke-width="1.1339" stroke-linejoin="round" stroke-miterlimit="3.8637" d="
	M110.079,0.259c-0.094,0.345-0.392,1.43-0.392,1.491c0,0.146,0.375,1.327,0.416,1.58c0.354,2.189-0.404,3.936-2.494,4.823v1.58
	c1.429,1.454,1.234,3.75,2.66,5.239c0.887-0.049,1.979-0.383,2.744-0.832l0.998,0.998v1.497c-0.848,1.436-3.7,2.216-5.239,2.661
	c-2.146-0.304-3.229-1.649-4.656-3.077l-1.413,0.25c-0.299,0.627-2.117,2.699-2.662,3.16c-0.725,0.613-1.535,0.85-2.162,1.663
	c-0.279,0.364-0.504,0.853-0.748,1.247c-0.09,0.146-0.717,1.077-0.748,1.164c-0.145,0.406-0.051,0.99-0.166,1.414
	c-0.122,0.445-0.475,0.884-0.583,1.331c-0.261,1.072-0.163,2.229-0.499,3.326c-0.669,2.189-2.167,4.469-3.242,6.486
	c-0.213,0.399-0.334,0.964-0.582,1.331l-0.666,0.666l-0.332,0.333l-1.164-0.749c-0.039-3.084,3.433-5.953,2.993-10.561l-1.331,0.167
	c-0.523,0.772-0.999,1.693-1.58,2.412c-0.271,0.337-0.77,0.643-0.997,0.998c-1.114,1.732,0.183,4.242-1.58,6.07l-1.413,0.583
	l-1.164-0.749l-0.582-1.331l-1.248-0.831c-1.03,0.731-2.197,4.063-2.412,5.321c-0.101,0.591-0.043,1.246-0.166,1.83
	c-0.094,0.445-0.402,0.886-0.498,1.331c-0.244,1.125-0.205,2.192-0.582,3.326c-0.48,1.438-1.212,2.414-2.246,3.493
	c-0.281,0.293-0.782,0.669-0.998,0.998c-0.255,0.39-0.363,0.991-0.582,1.414c-0.208,0.403-0.534,0.763-0.748,1.164
	c-0.897,1.682-1.627,3.413-3.076,4.74l-1.331,0.167l-0.749-1.164l0.084-1.331c0.64-0.755,1.522-1.162,2.162-1.829
	c0.527-0.551,2.241-4.432,2.411-5.239c0.118-0.56,0.114-1.254,0.167-1.83c-0.95-0.949-2.182-1.91-2.578-3.243
	c-1.023-3.44,1.615-5.17,1.081-8.149c-0.177-0.986-1.104-1.842-1.413-2.744c-0.354-1.029-0.158-2.083-0.832-3.077
	c-1.312-1.934-4.773-3.082-6.902-2.079l-0.305,0.333c-1.887,2.057-0.766,3.225-1.691,5.322c-0.733,1.664-3.23,4.394-3.824,5.904
	c-0.895,2.269,0.189,4.935-0.416,7.235c-1.015,3.853-4.754,1.628-6.57,7.151c-1.818,1.919-7.893,0.667-10.311,1.497
	c-0.362,0.124-0.796,0.592-1.164,0.748c-1.897,0.805-4.142,0.846-5.987,1.83c-2.96,1.579-3.421,4.442-4.407,7.318
	c-0.314,0.919-0.854,1.787-1.081,2.744c-0.351,1.478-0.322,3.047-0.638,4.546c-0.582,2.768-1.266,5.534-2.023,8.26
	c-1.33,0.988-4.399,1.225-5.987,0.998c-1.497-0.214-3.52-0.648-4.657-1.746c-0.107-0.104-2.758-3.567-2.91-3.825
	c-0.504-0.86-1.141-3.668-1.164-4.657c-0.043-1.849,0.462-3.684,0.333-5.571c-0.19-2.785-0.784-4.076-0.333-7.151
	c1.186-1.271,1.826-3.963,2.079-5.655c0.078-0.521,0.017-1.257,0.167-1.747l0.748-1.247c0.904-1.121,3.82-2.294,5.238-2.578
	c0.588-0.118,1.242-0.049,1.83-0.167c0.17-0.034,2.768-0.922,2.91-0.998c1.96-1.045,3.278-3.39,4.906-4.823
	c0.666-0.586,1.623-1.173,2.412-1.58c1.297-0.669,2.713-1.105,3.99-1.829c1.186-0.671,2.316-1.835,3.659-2.162
	c0.882-0.215,1.991-0.201,2.911-0.333c0.227-0.032,0.353-0.089,0.582-0.083c1.062,0.027,1.938,0.461,3.16,0.333
	c2.5-3.18,0.45-4.879,1.662-7.65c0.343-0.783,1.099-1.531,1.497-2.329c0.784-1.569,0.782-2.992,1.081-4.657
	c0.303-1.686,1.01-3.135,0.915-4.906L48.9,15.637c-0.6,0.684-1.35,1.299-1.912,1.996c-0.739,0.916-1.635,2.819-2.328,3.576
	c-0.271,0.296-0.794,0.461-1.081,0.749c-1.271,1.271-1.874,3.839-3.077,4.74c-2.826,0.127-3.422,0.814-4.822,2.994
	c-0.25,0.387-0.618,0.763-0.832,1.164c-0.208,0.389-0.266,0.967-0.499,1.33c-0.765,1.189-3.313,2.459-4.491,3.41
	c-0.336,0.272-0.645,0.675-0.997,0.915c-0.642,0.435-1.435,0.731-2.106,1.164c-0.152,0.098-0.219,0.191-0.389,0.25
	c-0.465,0.16-1.244,0.178-1.746,0.249l0.166-1.746c2.191-2.286,4.051-3.376,6.57-5.156l0.582-1.331
	c-0.426-0.8-0.472-2.339-0.084-3.16c0.625-0.625,1.953-1.143,2.828-1.165l0.914-1.081c-0.075-1.132,0.001-2.288-0.083-3.41
	c-0.04-0.54-0.276-1.219-0.249-1.746c0.027-0.555,1.064-3.912,1.33-4.574l-0.333-1.081l-2.827,0.749
	c-0.511-0.77-0.793-2.17-0.748-3.077l-0.832-0.749h-1.912c-2.758,1.378-3.853,4.608-4.158,7.484h-1.247
	c-0.606-0.649-1.026-2.04-0.998-2.91H22.79c-1.011,1.055-1.29,2.618-1.913,3.908l-1.33,0.665l-0.998-0.998
	c-0.109-1.733-0.622-3.515-0.249-5.239c0.208-0.963,0.701-1.913,0.915-2.911c-0.565-1.419-2.105-1.956-2.412-3.492V6.102
	c0-3.114,2.272-4.109,3.727-5.842"/>
<path fill-rule="evenodd" clip-rule="evenodd" fill="none" stroke="#84BCD5" stroke-width="1.1339" stroke-linejoin="round" stroke-miterlimit="3.8637" d="
	M83.102,0.259c0.19,0.56,0.412,1.116,0.559,1.657c0.578,2.141,0.473,4.424-0.582,6.403c-0.949,1.78-2.444,2.82-3.659,4.324
	c-0.562,0.695-0.903,1.793-1.497,2.412c-1.643,1.713-4.369,0.649-5.987,1.747c-0.36,0.245-0.655,0.791-0.997,1.081
	c-0.342,0.289-0.822,0.46-1.164,0.749c-0.336,0.281-0.581,0.715-0.916,0.998c-0.121,0.103-2.293,1.647-2.328,1.663
	c-0.799,0.35-3.859,0.864-4.74,0.749c-0.505-0.835-0.666-2.384-0.581-3.327v0.25c0.144-1.059,0.472-2.273,0.499-3.327
	c0.029-1.179-0.293-2.288,0-3.492c0.479-1.966,2.605-2.87,2.66-5.073l-1.33-0.25c-0.729,0.283-1.696,1.227-1.912,1.996L60.043,9.4
	c-0.95-0.994-2.016-1.86-2.91-2.91l0.333-1.497c0.706-0.602,1.398-1.284,1.995-1.996l-0.665-1.331
	c-0.611-0.232-1.493-0.341-2.134-0.277L55.553,1.5c-1.372,0.471-1.898,2.069-3.492,2.412l-0.832-0.749
	c-0.041-0.971,0.211-2.014,0.686-2.904"/>
<path fill-rule="evenodd" clip-rule="evenodd" fill="none" stroke="#84BCD5" stroke-width="1.1339" stroke-linejoin="round" stroke-miterlimit="3.8637" d="
	M195.109,102.937c2.405-1.517,2.846-1.86,4.324-4.324c0.148-0.247,1.133-1.886,1.247-1.996c1.687-1.616,5.378-1.492,7.401-2.412
	c0.398-0.181,0.774-0.61,1.164-0.831c0.369-0.209,2.465-1.191,2.744-1.248c2.166-0.433,4.15,1.459,6.735,0.499
	c0.09-0.033,1.009-0.73,1.164-0.832c0.387-0.253,0.894-0.462,1.247-0.749c0.679-0.548,1.151-1.448,1.83-1.996
	c0.88-0.711,2.34-1.56,3.409-1.856c1.278-0.355,2.638-0.372,3.908,0.028c0.442,0.139,0.886,0.471,1.331,0.582
	c1.334,0.334,3.958,0.173,5.238-0.333c1.078-0.833,2.07-3.648,2.994-4.657c0.613-0.67,1.542-1.062,2.162-1.83
	c0.283-0.351,0.472-0.805,0.748-1.164c0.803-1.043,1.922-2.041,2.91-2.91c1.018-0.896,2.312-1.826,3.492-2.495
	c0.414-0.234,0.918-0.348,1.331-0.582c1.888-1.07,2.935-2.06,3.575-4.158c1.179-3.855,0.17-5.452,0.25-8.981
	c0.012-0.551,0.141-1.112,0.166-1.663c0.058-1.26-0.018-2.482,0.166-3.742c-0.334-0.549-1.162-1.928-1.58-2.328
	c-0.967-0.927-2.611-1.32-3.408-2.495c-0.059-0.085-0.424-1.152-0.5-1.331c-0.729-1.719-1.613-3.556-2.826-4.989
	c-0.375-0.442-1.548-1.619-1.996-1.995c-0.713-0.599-1.549-0.996-2.246-1.664c-0.645-0.618-1.061-1.501-1.662-2.079
	c-0.673-0.645-1.609-0.988-2.246-1.747c-0.287-0.343-0.459-0.823-0.748-1.164c-0.581-0.687-1.426-1.201-1.996-1.913
	c-0.28-0.351-0.459-0.823-0.748-1.164c-0.596-0.704-1.469-1.22-2.078-1.913c-0.99-1.125-1.524-2.469-2.246-3.742
	c-0.201-0.355-0.588-0.714-0.748-1.081c-0.848-1.938-0.752-4.168-1.83-6.07c-1.117-1.974-3.306-3.212-4.739-4.907
	c-0.382-0.451-1.394-1.822-1.663-2.328c-0.704-1.32-0.997-3.001-1.746-4.324c-0.291-0.513-1.197-1.792-1.58-2.245
	c-1.293-1.529-1.668-1.196-1.996-3.493c-0.032-0.227-0.094-0.353-0.083-0.582c0.026-0.524,0.172-0.994,0.403-1.414"/>
<path fill-rule="evenodd" clip-rule="evenodd" fill="none" stroke="#84BCD5" stroke-width="1.1339" stroke-linejoin="round" stroke-miterlimit="3.8637" d="
	M299.721,241.52l-1.875-1.5c0,0-2.75-1.625-4.125-2.5s-3.5-0.75-5.25-0.875s-4.875,0.375-7.875,0.625s-6.625,4.25-7.985,5.202
	s-2.64,2.798-4.89,2.548s-6.625-2.25-8.25-2s-2.25-0.875-2.25-1.625s-0.25-3.5-0.659-5.326s-2.591-5.549-4.657-7.151
	c-2.064-1.603-3.684-0.397-4.559-0.147s-2.5,0.875-3.625,0.875s-3.125,0.5-5.25,2s-5-2.125-5.875-3s-5.471-2.222-5.471-2.222
	c-0.897-1.582-2.217-3.131-3.659-4.241c-0.341-0.262-0.861-0.458-1.165-0.749c-0.313-0.301-0.545-0.824-0.831-1.164
	c-0.255-0.304-0.703-0.592-0.915-0.915c-1.178-1.798-1.346-4.177-2.078-5.904c-0.346-0.814-1.881-2.68-2.578-3.243
	c-0.706-0.57-3.783-2.557-4.574-2.827"/>
<path fill-rule="evenodd" clip-rule="evenodd" fill="none" stroke="#84BCD5" stroke-width="1.1339" stroke-linejoin="round" stroke-miterlimit="3.8637" d="
	M430.06,0.074c0.039,0.9-0.137,1.961-0.451,2.744c0.557,1.278,1.348,2.509,2.244,3.576c0.268,2.52-0.105,3.077-0.498,5.322
	c-0.18,1.022-0.357,2.461-0.334,3.492c0.014,0.572,0.211,1.172,0.25,1.746c0.043,0.648-0.076,1.355,0,1.996
	c0.105,0.894,0.535,2.214,0.832,3.077c1.099,3.202,4.42,3.551,5.903,5.738c0.636,0.937,1.386,3.549,1.331,4.657
	c-0.025,0.503-0.367,1.072-0.416,1.58c-0.105,1.099,0.119,2.57,0.332,3.659"/>
<path fill-rule="evenodd" clip-rule="evenodd" fill="none" stroke="#84BCD5" stroke-width="1.1339" stroke-linejoin="round" stroke-miterlimit="3.8637" d="
	M161.349,125.472c1.821-1.442,4.503-0.317,6.485-1.414c2.193-2.809,0.536-7.524,4.075-9.48c1.171,0.08,2.511,0.019,3.659-0.25
	c1.091-0.881,1.604-2.413,2.744-3.16c0.373-0.245,0.996-0.393,1.413-0.583c0.431-0.196,0.888-0.513,1.331-0.665
	c1.121-0.384,4.107-0.751,5.238-0.582c0.404,0.061,0.928,0.373,1.33,0.499c2.263,0.711,2.501,0.545,4.324,2.218l0.666,0.61
	c0.83,1.223,0.764,2.508,1.996,3.908c0.586,0.667,1.356,1.225,1.912,1.913c0.308,0.381,0.516,0.875,0.831,1.248
	c0.284,0.334,0.708,0.583,0.998,0.915c0.607,0.694,0.987,1.627,1.58,2.328c1.107,1.309,1.798,1.489,2.411,3.41
	c-0.336,1.867-0.29,3.609-0.249,5.488c0.024,1.141-0.126,2.55,0.166,3.659c0.43,1.633,2.084,3.519,3.575,4.241
	c1.228,0.593,3.105,0.928,4.158,1.746c0.594,0.462,1.703,3.037,1.996,3.825c0.181,0.487,0.203,1.113,0.416,1.58
	c0.184,0.405,0.646,0.759,0.831,1.164c0.21,0.46,0.249,1.093,0.416,1.58c0.544,1.586,1.128,2.834,1.247,4.573
	c0.166,2.427-0.748,3.706-0.748,5.793c0,1.856,0.477,6.121,1.496,7.678c0.281,0.43,0.943,0.947,1.331,1.303
	c0.426,0.39,0.86,0.815,1.413,1.026l3.578,1.352l1.256,1.029l0.318-0.062l5.902,0.296l1.253,0.063l4.342-1.022l2.77-2.893
	l1.489-0.531l0.371,0.013l2.938,0.098l9.055,5.619l1.299,0.383l1.57,1.816l2.721-0.538l2.329-1.058l7.457-0.697l0.903-0.854
	l2.012-3.805l0.167-0.317l1.718-5.292l-0.268-1.368l0.512-1.046l2.529-0.211l5.373-1.859l1.881,0.119l1.695,1.293l0.92,1.82
	l1.306,1.166l2.207,0.117l2.021,1.618l3.481-3.282l1.62-0.336l1.552-0.922l5.836-0.428l0.838-0.723l0.832-1.831l2.262-1.253
	l1.225-1.312l0.764-2.287l6.365-8.648l2.091-7.169l1.118-1.077l1.074-4.799l0.975-2.224l0.703-1.603l-0.176-1.77l-1.516-2.51
	l0.609-3.71l-0.277-7.729l-2.236-5.564l0.096-2.983l0.033-0.991l0.414-1.506l2.421-4.316l0.604-4.3l1.722-5.061l0.95-1.243
	l1.965-1.305l3.727-1.481l0.933-3.444l-0.378-7.108l-0.191-3.624l-1.818-6.749l-0.746-6.221l-2.286-5.241l-0.226-1.501l0.509-3.01
	l2.001-3.453l0.098-4.67l0.016-0.807l-0.336-6.094c0.13-1.779-0.158-3.853,0.249-5.572c0.731-3.087,3.388-3.865,3.575-7.983
	c0.082-1.796-0.506-3.748-0.083-5.488c0.103-0.422,0.42-0.917,0.583-1.331c0.073-0.188,0.439-1.322,0.498-1.414
	c0.072-0.111,1.44-1.357,1.663-1.58c0.501-0.501,0.593-1.054,0.998-1.58c0.253-0.33,0.769-0.577,0.998-0.915
	c0.028-0.042,0.567-1.351,0.582-1.414c0.282-1.192,0.168-2.384-0.142-3.574"/>
<polyline fill-rule="evenodd" clip-rule="evenodd" fill="none" stroke="#84BCD5" stroke-width="1.1339" stroke-linejoin="round" stroke-miterlimit="3.8637" points="
	326.721,30.52 329.346,33.645 335.471,37.145 337.596,39.27 "/>
<polyline fill-rule="evenodd" clip-rule="evenodd" fill="none" stroke="#84BCD5" stroke-width="1.1339" stroke-linejoin="round" stroke-miterlimit="3.8637" points="
	444.101,41.136 444.654,40.268 446.068,38.044 447.583,34.272 448.587,33.083 451.667,31.283 453.269,31.162 454.929,31.791 
	457.951,35.252 460.042,36.415 462.177,36.395 464.993,34.706 466.212,34.558 467.873,34.357 468.25,34.729 467.744,37.794 
	468.023,39.241 469.214,41.109 470.181,41.798 471.55,45.543 475.904,48.724 477.83,49.189 481.583,51.142 485.039,55.19 
	489.646,55.757 489.902,55.789 492.855,57.641 497.781,58.991 500.154,61.707 502.234,61.473 508.181,57.767 512.652,56.169 
	516.238,57.048 519.335,57.126 521.606,58.745 524.152,60.169 525.904,60.287 527.132,59.691 528.41,57.008 531.759,54.18 
	535.402,47.046 536.564,46.19 538.183,45.918 540.894,44.529 542.45,44.257 546.416,45.663 547.878,47.583 549.625,49.877 
	551.187,50.713 554.827,51.534 557.044,53.409 558.539,53.593 561.577,52.527 564.021,49.836 567.503,47.398 571.392,47.173 
	572.23,46.45 574.599,42.651 575.743,40.604 578.181,36.234 579.738,36.157 580.312,34.914 581.41,34.45 582.502,33.203 
	582.24,32.749 580.746,32.368 579.944,29.31 581.664,25.254 581.523,24.017 580.218,21.155 580.027,19.065 579.056,8.507 
	579.695,6.688 579.751,4.051 580.56,2.808 580.128,0.505 580.218,0.131 "/>
<path fill-rule="evenodd" clip-rule="evenodd" fill="#C6ECFF" stroke="#84BCD5" stroke-width="1.1339" stroke-linejoin="round" stroke-miterlimit="3.8637" d="
	M338.885,38.077c1.344-0.641,2.367-1.766,3.824-2.162c2.521,0.348,2.121,3.345,6.985,2.162c0.964-0.234,1.958-0.69,2.911-0.998
	c0.035,1.437-0.641,2.839-0.666,4.324c0.402,1.15,1.184,1.28,1.996,1.913c1.236,0.961,1.645,2.432,2.578,3.326
	c0.049,0.048,1.041,0.595,1.164,0.665c0.553,0.771,0.896,2.226,0.83,3.16c0.668,0.579,3.283,1.204,4.158,1.247
	c1.161,0.058,2.068-0.312,3.244,0.167l-0.749,1.164c-0.862,0.459-1.755,0.879-2.661,1.248l0.582,1.331
	c1.141,0.484,1.383,1.217,2.162,1.746c0.108,0.073,2.561,1.042,2.744,1.081c0.585,0.123,1.238,0.063,1.83,0.167
	c0.5,0.087,2.803,0.422,3.326,0.582c0.775,0.237,1.555,1.168,2.328,1.497c1.291,0.547,3.566,0.926,4.906,0.499l0.914-0.998
	l0.25,1.331c-0.595,0.72-1.05,1.908-1.164,2.827c0.699,0.515,1.4,1.327,1.83,2.079l-0.166,1.331
	c-1.082-0.152-2.236-0.221-3.328-0.167c0.512,1.68,3.018,2.329,4.158,3.742l-0.25,0.915c-1.303,0.03-3.399-0.59-4.49-1.331
	c-0.75-0.509-1.205-1.454-1.828-2.079c-0.623-0.622-3.244-1.081-3.244-1.081c0.516,1.557,0.301,3.223,0.582,4.823
	c1.541,1.246,3.905,0.99,5.156,2.661c-0.023,0.721-0.668,1.757-1.248,2.162c1.383,1.1,3.21,0.021,4.658,1.081
	c0.205,0.646,3.075,5.547,3.575,6.237v1.497c-1.28,0.536-1.733,2.321-2.245,3.493l-1.33-0.499l-0.666-1.331
	c0.207-1.083,0.207-2.41,0-3.493l-0.832-1.164h-1.496l-1.248,0.749c-0.099,0.803-0.802,1.98-1.496,2.412
	c-0.838,0.256-2.314-0.025-2.994-0.583c-0.995-1.66-0.209-3.936-1.414-5.987c-0.85,0.834-1.727,2.09-2.244,3.16
	c-0.2,0.413-0.332,1.045-0.582,1.414c-0.514,0.756-2.432,2.024-3.326,2.246c0-1.546-0.232-3.723,0.333-5.156
	c0.153-0.393,0.612-0.771,0.747-1.165c0.232-0.679,0.359-2.697,0.416-3.492l0.914-0.998c0.602-2.437,1.291-5.659,0.084-7.983h-1.58
	c-0.432,0.896-0.696,1.836-1.081,2.744c-0.386,0.911-1.464,4.925-1.913,5.821c-0.036,0.073-0.812,0.961-0.914,1.081l-0.832-1.247
	c-0.303-1.054,0.1-1.969,0.5-2.911c0.531-1.253,1.856-4.742,2.078-5.655c0.396-1.63-0.102-3.03,0.354-4.704
	c-0.781-1.244-1.779-2.026-2.744-3.077c-0.633-0.691-1.107-1.444-1.828-2.079c-0.659,0.493-1.004,1.252-1.186,2.043l-1.164,0.749
	c-1.172-0.958-1.164-3.267-1.164-4.657c-0.533-0.761-1.322-1.357-1.83-2.079c-0.543-0.771-0.789-1.84-1.414-2.578
	c-0.162-0.191-0.975-0.763-1.08-0.915c-0.152-0.215-0.344-1.087-0.5-1.331c-0.496-0.773-2.225-2.312-3.16-2.412
	c-0.711,1.414-0.262,3.481,0.25,4.906l-0.997,0.998l-1.164-0.333c-0.157-1.026-0.448-2.113-0.832-3.077
	c-1.052-2.695-0.118-4.191-2.231-6.367c-0.978-0.373-2.2-0.569-3.244-0.582c-1.373,0.532-2.152,0.824-2.924,1.959h-1.247
	l-0.333-1.497c0.732-2.341,1.246-3.065,2.994-4.74L338.885,38.077z"/>
<path fill-rule="evenodd" clip-rule="evenodd" fill="#C6ECFF" stroke="#84BCD5" stroke-width="1.1339" stroke-linejoin="round" stroke-miterlimit="3.8637" d="
	M433.017,29.178c1.877,1.273,1.566,3.604,2.412,5.405c0.18,0.384,0.593,0.801,0.83,1.164c0.108,0.165,0.674,1.172,0.75,1.248
	c0.934,0.934,2.979,0.971,4.156,1.58c1.186,0.611,3.293,2.867,3.827,4.075c0.329,0.749,0.392,2.439,0.25,3.243
	c-1.231,2.988-6.521,2.459-8.399,5.488c-1.262,2.031-0.396,4.683-0.998,6.237c-0.213,0.547-2.14,2.655-2.662,3.077
	c-0.381,0.308-0.875,0.516-1.246,0.831c-1.395,1.179-2.271,2.903-3.576,4.158c-1.071,0.352-2.318,0.32-3.326,0.665
	c-0.807,0.277-5.908,4.371-6.486,5.156c-1.029,0.402-2.398,0.559-3.492,0.499c-0.762-0.297-1.648-1.372-1.83-2.162
	c0.334-2.374,2.164-4.311,3.825-5.904c0.31-0.76,0.409-2.136,0.084-2.91c-0.456-0.671-1.542-1.396-2.329-1.58
	c-0.998-0.823-1.242-3.98-1.082-5.156c0.066-0.477,0.58-1.41,0.916-1.746c1.141-1.142,2.475-2.37,3.326-3.742
	c0.728-1.172,1.373-2.495,2.244-3.575c1.123-1.389,2.795-2.579,3.66-4.158c0.377-0.689,0.637-1.561,0.914-2.3
	c0.904-2.413,1.82-4.864,3.409-6.93C429.498,30.144,430.723,28.966,433.017,29.178z"/>
<path fill-rule="evenodd" clip-rule="evenodd" fill="none" stroke="#84BCD5" stroke-width="1.1339" stroke-linejoin="round" stroke-miterlimit="3.8637" d="
	M49.92,412.941c-1.019,0.219-1.941,0.769-2.91,0.997c-0.55,0.131-1.189,0.056-1.746,0.167c-0.521,0.104-1.062,0.425-1.58,0.499
	c-2.367,0.338-4.545-0.574-6.819-0.915c-0.577-0.087-1.169-0.079-1.746-0.166c-1.61-0.242-3.152-0.83-4.739-1.165
	c-0.521-0.109-1.06-0.139-1.58-0.249c-1.058-0.222-2.1-0.641-3.16-0.831c-1.64-0.295-3.572-0.425-5.239-0.499
	c-3.053-0.136-6.367-0.286-9.396,0.083c-3.486,0.426-6.833,1.29-10.351,1.211l-0.564,0.012"/>
<path fill-rule="evenodd" clip-rule="evenodd" fill="none" stroke="#84BCD5" stroke-width="1.1339" stroke-linejoin="round" stroke-miterlimit="3.8637" d="
	M501.986,339.52c0,0,9.734-7.5,11.484-8s7.383-2.555,7.383-2.555"/>
<path fill-rule="evenodd" clip-rule="evenodd" fill="none" stroke="#84BCD5" stroke-width="1.1339" stroke-linejoin="round" stroke-miterlimit="3.8637" d="
	M623.435,177.689c-0.459-0.005-1.658-0.003-1.738,0.004c-3.09,0.302-4.299,3.534-6.568,5.156c-1.344,0.96-4.066,1.405-5.24,2.578
	c-0.104,0.106-0.603,1.052-0.748,1.248c-0.145,0.197-2.635,2.824-2.826,2.993c-0.332,0.292-0.818,0.468-1.164,0.748
	c-0.359,0.29-0.645,0.7-0.998,0.999c-2.621,2.217-5.49,2.857-7.816,5.737c-0.754,0.933-2.487,3.717-3.078,4.823
	c-0.714,1.34-1.099,2.78-2.078,3.992c-1.352,1.674-3.316,3.306-4.99,4.657c-0.341,0.275-0.867,0.522-1.164,0.831
	c-0.294,0.308-0.475,0.827-0.748,1.165c-0.575,0.713-1.421,1.286-1.912,2.079c-0.244,0.393-0.362,0.918-0.581,1.331
	c-0.429,0.802-0.799,2.696-1.456,3.969l-0.316,0.247l-2.271,2.104l-2.111,3.062l-0.26,1.142l-3.428,5.024l-1.254,1.846l-1.656,3.925
	l-1.875,0.992l-1.412,2.032l-0.969,0.464l-0.057,1.109l4.594,6.813l2.615,1.504l3.153,2.168l0.14,2.402l-0.521,2.841l0.343,3.307
	l3.773,5.164l1.65,4.436l-0.004,2.562l-1.758,7.065l-0.037,2.601l-0.004,0.43l-1.449,2.622l-1.943,2.204l-0.617,1.486l0.166,2.888
	l2.36,4.771l0.226,1.548l-1.881,1.427l-6.842,3.59l-2.236,0.938l-4.902,1.104l-0.445,0.197l-6.891,3.045l-1.898-0.546l-2.399-1.387
	l-1.331,0.224l-0.62,1.204l-0.19,2.257l-1.105,1.702l-1.604,1.072l-5.324,1.037l-5.592,2.167l-1.814,1.004l-0.725,0.74l-1.291,1.323
	l-2.652,1.646l-5.703,5.48l-1.105,1.984"/>
<path fill-rule="evenodd" clip-rule="evenodd" fill="none" stroke="#84BCD5" stroke-width="1.1339" stroke-linejoin="round" stroke-miterlimit="3.8637" d="
	M282.281,623.409l0.225-1.304l1.043-3.082l-0.146-2.281l0.383-1.372l1.157-1.834l1.294-0.986l1.361-0.529l1.886,0.053l2.61,1.484
	l1.492-0.4l0.781,0.256l1.518,3.382l0.522,0.388l2.536,0.181l3.895-0.938l1.089-2.421l0.905-0.788l1.103-0.268l0.259-0.337
	l1.353-1.76l0.778-0.332l3.057,0.307l5.766-2.84l4.734-1.791l2.064-2.166l3.234-2.499l2.115-4.448l1.742-1.969l3.494-0.441
	l0.856-0.107l0.653,0.518l1.293-1.183l1.625,0.12l1.359-0.791l4.455-4.529l5.258-1.013l0.184-1.501l1.287-2.096l-0.08-2.087
	l2.864,0.634l0.513-0.916l-1.574-2.273l0.191-0.588l1.683-0.989l-0.269-1.303l0.255-0.681l0.063-0.17l-0.604-2.734l0.316-1.242
	l1.096-1.312l-0.334-1.628l0.576-1.113l1.812-1.316l-0.009-1.108l1.939-1.644l0.377-1.764l0.9-1.57l0.303-3.198l2.131-1.905
	l4.865-1.467l5.441-3.098l2.326-1.324l12-12.69l0.428-0.196l0.605-0.278l0.95-1.646l4.601-9.717l4.67-2.807l2.935-4.263l0.407-2.597
	l-0.891-3.58l0.018-2.81l1.365-2.397l0.417-0.73l1.179-5.183l0.19-0.837l1.433-3.515l0.908-4.503l0.809-1.261l3.381-2.364
	l2.154-9.615l1.24-1.092l3.049-1.256l0.383-0.157l4.273-3.799l2.784-1.581l2.368-4.775l0.309-4.066l2.355-1.533l0.554-0.783
	l0.177-4.194l0.783-3.94l1.447-1.871l2.281-1.488l1.119-0.373l1.742-1.838l0.971-0.464l2.738,1.416l3.435-1.066l0.851,0.907
	l0.779-0.137l1.113,1.297l0.467,1.693l1.17-0.008l1.242,1.23l1.17,0.057l0.721,0.908l0.838-1.049L454,449.235l0.959-2.159
	l0.242-2.546l-0.814-4.69l-0.238-0.69l-3.277-9.525l0.898-1.441l0.056-1.436l1.267-4.379l1.86-3.209l-0.212-2.281l0.443-1.699
	l1.428-0.141l0.32-0.589l-0.531-1.692l0.838-0.854l0.178-2.284l1.031-1.051l0.639-1.439l1.614-1.511l0.761-2.289l1.741-1.903
	l1.36-0.401l1.859-3.404l0.805-5.289l-0.145-2.086l-1.453-3.381l-0.016-2.128l-0.775-0.412c0,0-0.586-0.201-2.049-1.465
	c-1.464-1.264-1.904-1.996-1.464-3.899c0.438-1.904,0.293-2.69,1.023-4.101c0.732-1.41,1.026-2.728,0.879-4.046
	c-0.146-1.318-0.146-3.461-0.438-4.485c-0.293-1.025,0.648-2.693,2.492-3.03c1.846-0.338,4.629-2.535,5.654-2.242
	c1.023,0.293,1.957-2.435,2.342-3.606c0.385-1.171,0.531-1.903,1.703-2.636s4.926-2.05,6.535-3.075
	c1.611-1.025,2.93-2.729,5.127-3.314c2.195-0.586,4.631-1.611,5.803-2.636c1.173-1.025,2.689-2.05,4.246-2.05
	s2.729,0.824,3.754-0.439s2.051-4.046,2.051-4.046"/>
<path fill-rule="evenodd" clip-rule="evenodd" fill="none" stroke="#84BCD5" stroke-width="1.1339" stroke-linejoin="round" stroke-miterlimit="3.8637" d="
	M562.091,51.131c-0.545,1.866,0.603,4.31,0.648,6.236c0.023,0.963-0.127,2.464-0.331,3.41c-0.058,0.261-0.964,2.646-1.082,2.827
	c-0.517,0.789-1.478,1.118-2.079,1.746c-0.932,0.972-1.566,3-1.496,4.325c0.164,3.144,3.982,5.002,3.825,8.149
	c-0.007,0.105-0.368,1.383-0.417,1.58c-0.324,1.339-0.701,2.575-1.829,3.492c-1.397,0.399-3.19,0.621-4.324,1.58
	c-0.714,0.604-1.093,1.539-1.663,2.246c-0.623,0.771-1.425,1.21-2.162,1.829c-1.041,0.875-2.008,1.89-3.076,2.744
	c-1.197,0.958-2.528,1.285-3.826,1.996c-2.236,1.227-2.566,2.031-4.074,3.825c-0.252,0.301-0.709,0.594-0.914,0.915
	c-0.477,0.742-0.752,1.908-1.082,2.744c-0.324,0.827-2.15,4.646-2.66,5.156c-0.621,0.621-3.211,1.763-4.075,1.83l-1.163-0.111
	c-1.883-0.179-3.854-0.321-5.656,0.443c-1.771,0.752-2.125,3.103-3.99,3.742c-2.533,0.868-6.641-1.763-10.062-1.164
	c-1.309,0.229-2.508,1.544-3.824,1.996c-1.605,0.55-3.4,0.676-5.072,0.915c-1.863,1.197-1.895,5.825-3.494,7.983
	c-0.051,0.069-0.957,1.055-0.996,1.081c-0.062,0.04-1.271,0.45-1.414,0.499c-2.73,0.936-6.172,1.075-7.484,4.075l0.979,1.858
	l0.318,1.393l-0.652,4.785l-2.32,3.243l-3.934,2.184l-3.111,4.378l-1.717,1.585l-0.455,0.42l-1.389,0.013l-1.506-0.952l-2.502,0.935
	l-0.68,1.563l-0.568,0.413l-0.245,1.828l-1.416,1.445l-3.878,2.179l-1.535,2.945l1.83,2.009l0.336,1.498l-0.506,1.829l0.73,2.277
	l-1.205,3.856l-0.77,1.114l-0.908,0.202l-0.951,3.072l-1.619,0.142l-0.64,1.439l0.595,1.496l-0.055,0.564l-0.066,0.675l-4.869,8.512
	l-1.096,1.051l0.588,0.452l1.623,0.185l0.145,1.956l1.24,1.165l1.623,0.12l1.554-0.598l0.666,0.673l0.942,0.572l0.219,2.904
	l0.918,1.994l0.215,2.581l3.107,2.49l2.699,0.104l0.711,0.51l0.391,0.513l-1.077,1.56l0.194,0.386l1.867,0.371l0.777,0.574
	l3.775,5.455l0.566,0.487l0.42,0.343c0.189,2.195,0.545,3.056-0.955,3.806s-1.75,2.5-2.25,3.75s-1.5,3-4.615,2.163
	c-3.115-0.837-3.885,1.087-4.135,2.587s-2.633,2.277-2.633,2.277s-1.117,1.473-1.367,2.723s-1.75,3.75-1.75,3.75s-0.5,4.25-0.5,6.25
	s-1.25,2.75-3,2.75s-1.5,2.75-1.5,2.75s-2.25,0.75-4.25,1s-2.75,3.5-3.25,4.5s-0.25,2.75,0.75,4.75s0.25,3.25-0.5,4.75
	s-1.25,2.5-3.25,3s-1.25,2.25-1.5,5.25s-4.5,1.75-4.5,1.75s-1,2-2,3s-1,0.75-2,0.75s-1.75,0-2.25,1s-0.75,2.25-2.25,3s-1,3.5-1,3.5
	s-2-0.25-4,0s-0.75,1.5-0.5,2.5s-3.75,2.5-6,4s-4,2.75-4.5,4.5s-6.5,6.25-6.5,6.25v3.5l-3.25,2.75l-0.5,4.75c0,0-0.5,0-2,0
	s-1.25,0.5-1.25,2s-0.75,2-2,2s-2.5,0-3.75,1s-2.5,3.75-2.5,3.75l-5.75,0.25l-5.25,3.25h-5l-2,2c0,0-1.25,1.25-2.5,0.25
	s-2-1.5-2-1.5l-8.5,3.25l-5.25,0.75l-2,3.5h-2.75l-1.25,2.25c0,0-2.5,1.25-3.5,1.5s-1.75,1.25-2.5,2.75s-1.75,1.5-3.5,1
	c-1.75-0.5-1.25-2-1.25-3s0-1.75-1-2.25s-3.25-2-4.75-3.25s0-2,0-3s1.25-2.25,2.25-4s2.25-2,2.25-3s0.25-4.5,0.25-4.5l2.75-3
	c0,0,2-2.5,2.75-4s1-6.25,1.25-8s-0.5-3.25-1.25-4.75s-2.75-3.75-4.5-4.5s-2-2-2.25-3.25s-2.75-4.5-3.75-5.75s-4.25-6.25-5.75-9
	s-5-1-5.75,0s-1.25,1.75-2.75,2s-3,2.75-3,2.75l-4.5-0.25l-2-1.75c0,0,0-6.75,0-8s0.25-2.25,1.75-3.75s1.25-4.5,1.25-4.5l2-2
	l0.25-2.25l1.75-2.25l0.203-2.018l-3.953-0.232l-3-5.5h-2.25l-3.5-2.75l-4.397,0.077"/>
<path fill-rule="evenodd" clip-rule="evenodd" fill="none" stroke="#84BCD5" stroke-width="1.1339" stroke-linejoin="round" stroke-miterlimit="3.8637" d="
	M454.173,450.342c0.3,2.032,0.645,3.183,1.129,5.174c0.123,0.502,0.168,1.096,0.333,1.58c0.153,0.446,0.536,0.883,0.665,1.331
	l0.5,3.575c-0.053,1.039-0.766,1.957-0.998,2.91c-0.121,0.498-0.131,1.228-0.167,1.747c-0.159,2.3,0.13,4.805,0.583,7.067
	c0.222,1.112,0.637,2.166,0.664,3.326c0.051,2.196-1.092,4.23-1.247,6.403c-0.061,0.861-0.046,2.935,0.167,3.742
	c0.115,0.435,0.504,0.898,0.666,1.33c0.295,0.799,0.451,1.743,0.637,2.578c0.184,0.827,0.016,1.706,0.193,2.495
	c0.07,0.309,1.17,2.202,1.414,2.494c2.418,2.878,7.027,2.539,9.064,4.49c0.387,0.372,0.785,1.092,1.08,1.553
	c1.535,2.388,2.924,4.539,5.904,5.184c1.871,0.404,3.563-0.334,5.35-0.805l1.053-0.277l1.58,0.416
	c0.773,0.305,1.713,1.033,2.246,1.663c0.287,0.34,0.455,0.831,0.748,1.165c0.296,0.334,0.755,0.602,1.081,0.914
	c0.146,0.139,0.82,0.938,0.915,0.998c1.396,0.898,3.457,0.552,4.988,0.914c2.324,0.551,3.744,2.825,5.904,3.742
	c1.042,0.442,2.152,0.419,3.244,0.582c2.004,0.301,7.355,1.584,9.064,2.495c0.793,0.423,2.91,1.88,3.408,2.578
	c0.566,0.791,0.703,1.846,1.164,2.661c0.234,0.411,0.682,0.752,0.914,1.164c0.218,0.383,0.321,0.92,0.5,1.33
	c0.387,0.886,0.891,1.85,1.413,2.661c0.54,0.837,1.229,1.411,1.829,2.162c0.279,0.348,0.457,0.832,0.75,1.164
	c0.154,0.175,3.002,2.507,3.242,2.661c0.381,0.244,0.922,0.371,1.33,0.582c0.403,0.208,0.832,0.59,1.248,0.748
	c0.615,0.236,1.426,0.29,2.078,0.472c1.99,0.553,3.91,1.017,5.988,1.108c1.801,0.08,3.901-0.26,5.654,0.166
	c0.576,0.141,1.223,0.545,1.801,0.749c0.76,0.269,1.653,0.528,2.357,0.915c0.832,0.456,1.418,1.202,2.162,1.746
	c0.35,0.256,0.822,0.4,1.164,0.665c1.258,0.979,0.945,1.294,1.579,2.411c0.468,0.826,1.3,1.447,1.413,2.495
	c0.196,1.813-0.977,4.912-0.082,6.818c0.957,2.042,4.533,3.854,5.654,6.32c0.198,0.433,0.289,1.11,0.416,1.579
	c0.398,1.473,1.662,6.636,2.328,7.568c1.215,1.701,4.286,3.011,4.906,4.822c0.744,2.172-0.797,3.855-1.414,5.821
	c-0.482,1.536-0.592,3.545-0.664,5.155c-0.029,0.627,0.059,1.291,0,1.912c-0.188,1.968-0.882,2.525-1.914,3.992
	c-0.242,0.346-0.397,0.846-0.664,1.164c-0.279,0.333-0.762,0.608-1.082,0.915c-1.085,1.039-1.9,2.065-3.243,2.827
	c-1.128,0.639-1.778,0.62-2.909,0.998c-0.482,0.16-0.937,0.487-1.414,0.665c-0.81,0.3-1.627,0.469-2.439,0.804
	c-0.184,0.075-0.307,0.082-0.471,0.193c-0.054,0.036-0.846,0.912-0.916,0.998c-0.465,0.578-1.227,1.646-1.496,2.328
	c-0.191,0.486-0.262,1.076-0.416,1.58c-0.387,1.266-0.967,2.466-1.469,3.688c-0.211,0.513-0.402,1.357-0.692,1.801
	c-0.368,0.561-1.774,1.623-2.413,1.83c-1.68,0.545-3.887,0.176-5.654,0.332c-0.58,0.052-1.164,0.211-1.746,0.25
	c-1.223,0.084-2.31-0.079-3.492,0.416l-0.998,0.998l-0.332,1.58c0.775,1.288,1.898,1.978,2.826,3.076
	c0.283,0.334,0.494,0.802,0.749,1.164c0.116,0.165,0.782,0.975,0.831,1.081c0.406,0.866,0.756,4.365,0.666,5.322
	c-0.039,0.4-0.937,4.331-1.081,4.656c-0.19,0.433-0.618,0.82-0.832,1.247c-0.218,0.435-0.282,0.979-0.499,1.414
	c-0.424,0.848-1.719,2.739-2.328,3.492c-0.821,1.02-1.452,1.12-2.078,1.746c-0.666,0.666-1.045,2.085-0.998,2.994
	c0.994,1.165,2.414,1.18,3.408,2.412c0.062,0.076,0.806,1.185,0.832,1.247c0.209,0.474,0.233,1.089,0.416,1.579
	c0.17,0.455,0.496,0.876,0.666,1.331c0.479,1.287,0.959,3.165,1.413,4.49c0.337,0.981,0.843,1.853,0.997,2.911
	c0.283,1.929,0.201,5.623-0.082,7.566c0.193,0.411,0.407,1.053,0.664,1.414c0.234,0.327,0.719,0.609,0.998,0.914
	c0.736,0.804,1.881,2.508,2.328,3.493c0.211,0.463,0.322,1.017,0.5,1.497c0.816,2.196,1.459,3.143,2.826,4.989
	c0.26,0.349,0.531,0.863,0.832,1.163c1.246,1.247,3.333,1.982,4.74,3.078c0.32,0.248,0.277,0.564,0.232,1.005"/>
<path fill-rule="evenodd" clip-rule="evenodd" fill="none" stroke="#84BCD5" stroke-width="1.1339" stroke-linejoin="round" stroke-miterlimit="3.8637" d="
	M291.971,484.77c0,0-0.5-3.125-1.375-4.625s-1.5-2.25-2-3.375s-1.5-0.875-1-3.5s0.375-3.625-0.375-4.625s-1.375-1.75-3.5-2.25
	s-2.875-0.125-3.875-1.5s-2.375-2-3-2.625s-0.75-0.875-0.875-1.625s-0.25-2.875-0.25-2.875c1.865-2.213,4.75-5.5,4.75-5.5
	s0.5-5,0.5-6s0-2.5,1-2.75s3.25,0.25,3-2.5s0.5-4.25,0.5-4.25l3.75-4.25c0,0,2.625-2.75,2.75-3.875s0.125-1.25,1.25-1.5
	s2.681-1.129,2.59-1.564c-0.09-0.436,1.785-1.561,3.285-0.561s4.375,1.375,6.25,0.25s3.75-2.75,5.375-1.75s3,0,3.125-0.875
	s0.125-1.625,1.625-2.5s1.625-3.875,1.25-4.75s-1.75-4.5-1.75-7s-0.25-6.75,0.25-8.125s0.375-5.875,0.375-6.625s-0.125-3.625,1-4.75
	s2.875-2.75,1.5-3.75s-2-1-2.25-2.25s-1.375-2.75-1.75-3.25s-4.25-4.875-4.625-5.5s-0.875-2.375-2.875-2.25s-2,0.25-2.875,1
	s-3.375,1.25-4.5,1.125s-2.875-0.375-3.625-0.875s-2.125-1.125-2.125-1.125l0.75-10.5c0,0,1.5-5.5,1.5-7s0.5-8.25,0.5-8.25
	s0.752-2.359,2.251-3.43c1.499-1.07,3.249-2.07,3.249-2.07l-1-3.75c0,0-2.25-0.25-3.25-1.25s-2.5-3.5-2.5-3.5s-2.75-0.25-4-0.5
	s-3-1-3-1s-1.75-1.5,0.25-2.25s3.25-1.25,3-3l-0.205-1.388l0.08-0.487c0,0,0.125-1.25,1.625-1.125s2.5-0.75,3.5-1.25
	s2.5-0.5,3-1.375s0.5-1.375,2.125-1.75s5.125-1.5,6-2.25s2.875-1,3.5,0.125s-0.5,1.875,2.625,1.875s4.25,0.75,5.25,1.625
	s2.625,1.875,4.25,2.625s3.25,0.75,4.5,0.75s1.625,0.125,2.5,0.375s4.262,0.75,4.262,0.75"/>
<polyline fill-rule="evenodd" clip-rule="evenodd" fill="none" stroke="#84BCD5" stroke-width="1.1339" stroke-linejoin="round" stroke-miterlimit="3.8637" points="
	114.41,325.225 114.162,318.416 113.653,314.213 114.478,310.958 115.629,308.979 123.113,303.118 123.213,302.809 123.32,302.477 
	122.797,301.638 120.061,300.065 118.271,297.97 116.822,294.521 116.942,292.76 118.803,289.032 118.795,287.401 116.961,284.737 
	116.434,283.175 116.808,280.629 118.43,280.425 118.227,279.122 116.861,278.542 118.531,275.728 118.064,273.513 119.972,269.625 
	120.311,268.936 119.842,266.656 120.029,265.35 121.851,265.927 122.359,264.098 124.373,264.609 123.717,263.308 124.165,262.132 
	125.85,261.666 125.521,260.82 126.357,259.641 124.79,258.02 124.783,256.65 123.67,254.96 124.572,253.977 125.014,251.757 
	126.564,250.575 126.754,249.726 125.577,248.232 126.477,246.662 124.65,245.042 124.719,244.589 124.838,243.801 125.482,243.015 
	125.346,241.973 122.668,239.052 122.27,237.359 120.445,236.326 120.311,235.283 120.953,234.17 120.623,233.325 117.512,233.994 
	117.059,234.192 114.078,234.991 112.52,234.869 110.045,233.382 105.936,229.752 104.559,227.216 102.727,227.084 101.076,226.734 
	101.104,224.496 99.717,220.069 99.895,217.263 98.852,216.356 97.868,214.666 96.445,214.266 93.743,213.696 90.094,210.197 
	86.346,209.218 84.328,207.334 82.209,207.544 80.7,206.819 79.619,204.308 79.171,203.266 79.18,199.198 80.008,196.402 
	79.791,192.995 75.802,190.506 73.662,187.81 72.674,184.408 68.609,176.805 67.953,176.732 64.874,177.919 63.648,178.392 
	61.451,178.446 59.016,177.418 55.834,174.575 54.733,171.6 54.785,168.074 55.24,166.947 61.129,160.278 62.127,159.729 
	65.938,159.081 66.467,157.682 65.834,155.755 64.289,152.829 63.707,151.717 61.332,148.441 56.177,144.295 50.977,142.028 
	47.624,142.169 46.569,142.835 43.779,140.802 40.824,139.817 38.152,137.996 34.561,136.995 34.041,136.478 30.133,132.59 
	27.143,131.367 26.747,130.325 27.064,129.019 28.809,127.511 29.178,123.922 26.938,105.284 25.818,102.551 18.851,97.174 
	16.5,94.447 16.106,93.471 16.359,92.231 17.457,91.182 23.146,87.763 24.565,86.452 25.527,84.294 25.84,82.272 25.764,80.186 
	24.869,79.058 "/>
<path fill-rule="evenodd" clip-rule="evenodd" fill="none" stroke="#84BCD5" stroke-width="1.1339" stroke-linejoin="round" stroke-miterlimit="3.8637" d="
	M134.471,324.52c0,0-0.5-0.5-1.75-2.25s-1.25-3.75-1.25-4.75s0.25-2.125-1.25-2.75s-2.25-0.875-2.625-1.875s-2.25-4.625-2.75-5.875
	s-1.633-4.211-1.633-4.211"/>
<polyline fill-rule="evenodd" clip-rule="evenodd" fill="none" stroke="#646464" stroke-width="2.5512" stroke-linejoin="round" stroke-miterlimit="3.8637" points="
	167.67,636.394 168.473,653.446 166.225,663.465 162.198,670.966 158.359,679.791 "/>
<path fill-rule="evenodd" clip-rule="evenodd" fill="none" stroke="#646464" stroke-width="1.1339" stroke-linejoin="round" stroke-miterlimit="3.8637" d="
	M124.537,253.131c0,0,9.865,0,10.425,0s1.492-0.746,1.306-2.424c-0.187-1.679,0-6.694,0-7.627s-0.746-1.865-0.933-3.17
	c-0.187-1.305-0.373-2.405-0.373-3.711c0-1.305,0-2.797,0-2.797l2.237-2.797c0,0,0.729-1.1,0.729-1.66s-0.188-1.678,1.118-1.678
	s2.63,0.559,5.222-0.187c2.592-0.746,4.27-0.746,4.27-0.746s0.746-1.865,2.238-2.238s3.319-0.914,2.779-2.405
	c-0.541-1.492-0.541-1.492-0.541-2.424c0-0.933,0.541-3.17,0.541-3.17l2.237-3.897c0,0,0.745,0.187,1.491-0.559
	c0.746-0.746,2.258-1.865,3.544-2.052s2.219-0.373,2.965,0c0.745,0.373,1.864,1.306,1.864,1.306l1.492,2.984l3.524,0.186
	c0,0,0.373-1.865,1.306-2.61c0.932-0.746,3.17-2.611,3.17-2.611s2.965-0.933,3.897-1.306s1.864-0.746,3.916-0.746
	s4.084,0.187,4.644,0s0.932-0.354,0.932-1.287c0-0.933,0.373-1.679,0.373-1.679s0.934-1.305,1.307-1.865s1.118-2.238,1.118-2.238
	s-2.983-3.338-3.356-4.083c-0.373-0.746-1.306-3.917-1.679-4.476c-0.372-0.559-1.659-2.778-1.846-3.524
	c-0.187-0.746-1.679-4.849-1.679-4.849s-0.746-4.644-0.746-5.576c0-0.933,0-2.611,0-2.611l-3.066-3.189"/>
<path fill-rule="evenodd" clip-rule="evenodd" fill="none" stroke="#646464" stroke-width="1.1339" stroke-linejoin="round" stroke-miterlimit="3.8637" d="
	M283.232,281.587h-1.305c0,0-0.914-0.187-1.66-0.746c-0.746-0.559-1.678-0.186-2.611-0.186c-0.932,0-1.678,0.559-3.916,1.305
	c-2.237,0.746-3.338,3.17-3.338,3.17s-0.559,0.187-1.492,0.187c-0.932,0-1.491,0.932-1.491,0.932s-0.933,2.778-1.491,3.711
	c-0.561,0.933-2.22,1.119-3.152,0.933c-0.932-0.187-2.424-0.933-3.356-1.492s-3.897-1.678-5.39-2.051
	c-1.492-0.373-1.305-0.914-1.305-1.847c0-0.932-0.373-2.61-0.56-3.17s-1.119-2.051-1.679-2.797
	c-0.559-0.746-2.778-2.592-3.896-3.152c-1.119-0.559-1.492-1.305-1.492-1.865s-0.373-4.271-0.373-4.271l-1.119,0.187
	c0,0-5.203,1.473-5.949,1.66s-2.797,0.187-3.916,0.187s-2.032-0.187-2.965-0.746c-0.932-0.56-1.305-1.474-2.424-2.779
	s-1.679-1.492-2.611-1.305c-0.932,0.187-5.575,0-5.575,0s-3.524-7.254-3.897-8s-0.933-0.933-1.678-1.679
	c-0.746-0.746-3.171-1.865-3.171-1.865l-1.864-1.119"/>
<path fill-rule="evenodd" clip-rule="evenodd" fill="none" stroke="#646464" stroke-width="1.1339" stroke-linejoin="round" stroke-miterlimit="3.8637" d="
	M216.641,335.164c0,0-2.611,1.678-3.357,2.051s-2.629,1.865-3.355,0.373c-0.729-1.492-2.22-5.762-2.966-7.067
	c-0.745-1.306-2.983-4.457-3.356-5.017c-0.373-0.559-0.951-1.491-1.678-2.424c-0.729-0.933-1.455-1.679-0.541-2.424
	c0.913-0.746,1.473-1.846,1.286-2.965c-0.187-1.119-0.728-2.237-1.474-2.983c-0.745-0.746-0.745-1.306-0.745-2.051
	c0-0.746,0-2.406,0-2.406s-1.864-0.746-2.61-2.424c-0.746-1.679-0.934-3.17-1.307-3.73c-0.372-0.559-0.559-2.406-0.559-2.406"/>
<path fill-rule="evenodd" clip-rule="evenodd" fill="none" stroke="#646464" stroke-width="1.1339" stroke-linejoin="round" stroke-miterlimit="3.8637" d="
	M140.537,323.826c0,0,0-7.441-0.186-8c-0.187-0.56-0.373-1.306-0.56-2.052s-0.933-1.305,0-1.305s2.983,0,2.983,0
	s1.306,1.865,1.865,2.611c0.559,0.746,1.1,1.678,2.592,0.56c1.492-1.119,2.797-2.052,2.797-2.052s7.627,0.746,8.933,0.933
	s3.338,0.373,4.457,0.56c1.118,0.187,3.562,0.933,5.78,1.492c2.22,0.56,2.406,0.373,3.338,0.373c0.934,0,1.68,0,1.68,0
	s-3.357,3.897-3.917,4.457s-0.354,0.56-1.846,0.56c-1.492,0-0.933,0.933-0.933,1.865c0,0.932-0.373,3.151-0.373,3.151l-1.119,2.424
	l0.373,6.322c0,0,0.188,1.492,0.373,2.238c0.187,0.746,0,2.424-0.932,1.679c-0.934-0.746-2.816-1.119-3.916-0.933
	c-1.101,0.187-1.082,1.697-0.729,2.797c0.355,1.101,0.729,2.033,0.729,2.592s0.559,1.492,1.305,2.238s0.746,1.119-0.373,1.492
	s-2.778,1.305-3.897,0.373c-1.118-0.933-1.306-0.56-2.052,0.746c-0.745,1.305-0.932,2.778-0.186,4.083
	c0.746,1.306,1.305,3.357,0.559,4.289c-0.746,0.933-0.932,1.101-0.932,2.22c0,1.118-0.373,2.051-0.373,2.61
	s-0.187,1.119-0.933,1.306s-3.338,0.373-3.338,0.373l-4.737,0.694"/>
<path fill-rule="evenodd" clip-rule="evenodd" fill="none" stroke="#646464" stroke-width="1.1339" stroke-linejoin="round" stroke-miterlimit="3.8637" d="
	M316.674,250.002l0.297,0.018l4-1.25l1-8l7.25,0.5l4-7.5l0.75-3.25l2-4h2c0,0,2.5-3,4-4c1.5-1,3-3,4.75-2s3.25,1.25,3.25,1.25
	l3.75-2.75l9,0.25c0,0,9.5-7.5,12.25-8.5s6.5-3.25,8.75-4.75s3.25-2.75,3.25-2.75l0.25-2.5l1.5-2.5"/>
<path fill-rule="evenodd" clip-rule="evenodd" fill="none" stroke="#646464" stroke-width="1.1339" stroke-linejoin="round" stroke-miterlimit="3.8637" d="
	M201.471,567.27l0.5-6c0,0,1.75-1.5,3.25-3s3.5,0.25,5.25,0.25s4.25-1.75,4.25-1.75s3.25,0,4.5-0.5s4.5-1,4.5-1s2.25-1.25,3.5-2
	s3-4.75,3-4.75s0.5-1.5,2-3.5s2.75-4,3.5-5.5s2-3.5,3-4s2.75-0.75,3.75-1.5s1.25-1.75,3-0.25s2.75,0,4-1s3.25-2.75,5.25-2.5
	s4.25,0,4.25,0l1.5-2.5l1.25-7.75c0,0,0.25-1.5,2-1.5s3,0,3,0s-0.75-3.25,0.75-3.75s3.25,0.75,3.25,0.75l4,0.25
	c0,0,2,3.25,2.75,4.75s2.75,2.75,2.75,2.75l1.75,0.5l3.75-3.25c0,0,1-3.25,1-4.25s0.25-2.75,0.25-2.75s2.5-2.25,3-3.75
	s1.5-4,2.75-5.5s4-6,4-6s0-2.75,0.5-3.75s0-3.25,1.75-3.5s1.5-0.5,2.25-2.25s1-3.25,1-3.25l-0.5-5.75c0,0,1-1.25,2.5-1.5
	s4-0.25,4-0.25s0.75-1-0.5-2.5s-2-2.25-1.75-3.75s0.25-1.75-0.5-2.75s-0.75-2-0.75-2l3.75-2.5l3.25-2"/>
<path fill-rule="evenodd" clip-rule="evenodd" fill="none" stroke="#646464" stroke-width="1.1339" stroke-linejoin="round" stroke-miterlimit="3.8637" d="
	M391.595,534.395c0,0-2.875-2.875-3.125-3.5s-0.875-0.875-2.25-0.875s-3-1.875-3.875-2.625s-1.375-1.75-2.875-2.5
	s-3.375,0.75-4.625,1.625s-4.5,3.75-5.5,4.75s-3.5,1.625-4.875,1.5s-17.5-2-20-2.25s-5.5,1.25-6,2.5s-1.5,1.25-2.75,1
	s-1.375,0.75-1.125,1.75s-0.125,0.75-1.625,1.75s-3,0.75-4,0s-2.5,0-3.75,1.25s-5,1-5,1s-1-0.75-1.75-1.75s-1.75-1.75-3-1
	s-1.5,0.5-3.5,0s-2,0.75-2.5,2s-2,1.5-4.75,0.75s-4-0.25-4-0.25s-1.75-2.25-2.75-3.75s-2-1.5-3-1.5s-2.75-0.25-4.25,0.75
	s-2.25,1.25-3.5,1.25s-2.75,0.5-3.5-0.5s-2-0.75-2-2.25s0-2.25,1-3s1.5-1.5,0.5-2.75s-1.25-4-1.25-4"/>
<path fill-rule="evenodd" clip-rule="evenodd" fill="none" stroke="#646464" stroke-width="1.1339" stroke-linejoin="round" stroke-miterlimit="3.8637" d="
	M452.845,431.02l-3.125,0.75l-0.75,2.25c0,0-1.5,0-2.5-0.75s-1.5-2.25-1.5-2.25s-2.25,2.75-4,3.5s-3,0-3,0l-1-2
	c0,0-2.75-0.25-5-0.25s-2.75-1.25-2.75-1.25s-0.25-2-0.5-3.5s-1.5-2.75-2.5-2.75s-1.5,0.25-2.25-1s-4-1.75-4-1.75s-1,0.5-1.75,1.75
	s-2,1-2.5,0s-2.25-1.75-3.25-2.75s-1.75-2.25-2-3.5s-1-2.25-2-3.25s-1.5-1.25-2.75-1.25s-1.75,0.25-3-0.5s-3.5-0.75-4.75-0.25
	s-9.5,3.5-11.25,4.25s-3,1.75-3,2.75s-1,2-1,2l-2.25,1.75c0,0-2.75-5.5-3.25-6.5s-0.75-2-2-2.75s-2-0.75-2.75-2s-2.25-2-2.25-2
	l-5.75-2.25"/>
<path fill-rule="evenodd" clip-rule="evenodd" fill="none" stroke="#646464" stroke-width="1.1339" stroke-linejoin="round" stroke-miterlimit="3.8637" d="
	M439.22,271.27l-1.75-3.25l-2.75,0.25l-2.75,1.25l-3.25,0.5c0,0-0.25-1-0.25-2.5s-2.75-0.75-3.75-0.25s-2.25,0.75-5,1.75
	s-5.5,0-6.25-1.25s-1.75-1.25-3.5-1.5s-2.25-1.5-2.75-2.5s-0.75-2-1.75-3.5s-0.5-3,0.25-4.25s3.25-6.75,3.25-6.75l4.5-5.5
	c0,0,2.25-1.5,2.25-2.5s0.5-4.25,1.25-6.75s1.25-7.5,1.5-8.5s-0.75-6.25-0.75-6.25l1.75-4.5c0,0-1.25-2.25-2-3.25
	s-1.25-1.75-2.5-2.75s-4.75-5.75-4.75-5.75s-2.75-2-4.25-3s-6.25-2.25-6.25-2.25h-11l-0.5-10.25h2.5l2-2l0.5-3.25l-6.5-1.25l-2-1.75
	l-2.75-0.25l-4.25,5.5c0,0-3-2.75-4-4s-1.75-2.75-1.75-3.75s-1-2.25-2.25-3.25s-1.25-2-1.25-3.5s-0.75-2.75-0.75-2.75l-5-4.5
	l-4.75-0.5c0,0-1.5-3.5-2.25-5.25s-2-3.25-2-3.25v-3.25c0,0-3.75-0.75-4.75-1.75s-5.5-4.75-5.5-4.75s1-2.75,1-4.25s-2-4.5-2-4.5
	s-2.75,0-3.5-1.25s-1.75-3.25-1.75-3.25s-4.25,0-6.25-1.75s-3-2-4-2.5s-6.395-1.391-6.395-1.391"/>
<path fill-rule="evenodd" clip-rule="evenodd" fill="none" stroke="#646464" stroke-width="1.1339" stroke-linejoin="round" stroke-miterlimit="3.8637" d="
	M362.72,163.27c0,0,1.25-2.25,2.25-3s1.25-1.25,4.5,0.25s4.75,0.75,5.75-0.25s1.5-1.5,1.5-2.75s0.5-3.75,0.5-3.75l3.5-2.75
	c0,0-0.25-2.75,0.75-3.5s2.5-0.5,4.5,0.5s2.5,1.25,4.75-0.25s5.5-6.25,5.5-6.25l12-8.25l7.5,0.25l0.75,2.75h3.5l6.75-9.25l3.25-1.75
	l3.75-6.75l4.25,0.25l1-3.5l5.5-5.5c0,0,5.5,0,6.5,0.5s3.75-0.75,4.25-2s3-6,3-6s-0.5-1-0.75-3.75s-0.25-4,0.5-5.25s2.5-3,0.75-4.75
	s-3.25-3-3.5-4.25s-0.5-3.75,1.25-5s3.25-3,3.25-3v-6.5c0,0-0.75-2-2-3s-3.75-3.25-4-5s-0.25-3.5-1-4.5s-3-7.75-3-7.75l-1.5-4
	l-2.25-4.25l-2.312-2.438"/>
<path fill-rule="evenodd" clip-rule="evenodd" fill="none" stroke="#646464" stroke-width="1.1339" stroke-linejoin="round" stroke-miterlimit="3.8637" d="
	M428.97,281.02v2.5c0,0,0.25,3.25,1.25,3.5s3.75,0,5.25-0.75s4.75,0,6.75,0.5s2.5,2.75,4,3.25s4.75,0.75,6.75,0.75s4.5,1.5,5.5,2.75
	s4.75,5.75,4.75,5.75h2.5c0,0,0,2.75-1,3.75s1,3,2,6s2.75,3.75,3.5,4.75s2.5,1.5,3.5,1.5s3.5,0,4.25-1.5s2.75-2.25,2.75-2.25
	l1.25,0.5l4,0.25l6,4c0,0-2.75,1-4.75,1.5s-1.25,2-1,3.25l0.75,3.75l7,0.25c0,0,3,4.75,4,6.25s4.25,2,4.25,2l-0.187,4.812
	c0.929-0.709,2.62-2.015,4.368-3.292c2.533-1.85,5.629-4.041,6.757-4.362c1.731-0.495,7.306-2.53,7.306-2.53l0.869,2.343"/>
<path fill-rule="evenodd" clip-rule="evenodd" fill="none" stroke="#646464" stroke-width="2.5512" stroke-linejoin="round" stroke-miterlimit="3.8637" d="
	M500.876,59.844l-2.266,2.926l-5.307,3.188l-3.577,6.046l-3.167,4.109l-3.924,8.948l-1.684,5.493l-0.443,1.453l-3.041,6.255
	l-2.293,6.463l-3.229,3.412l-7.488,13.893l-0.654,1.214l-2.053,3.455l-1.906,1.843l-0.631,1.187l-0.025,3.167l1.136,1.493
	l2.413,1.159l3.105,0.831l2.483,2.877l1.55,0.308l3.238-2.392l5.314-2.82l2.82-1.496l3.121-3.196l1.913-1.252l4.593-0.155h-0.016
	l0.16,0.432l0.318,1.393l0.028,0.632c-0.503,3.681-1.073,5.587-1.935,7.01c-0.895,1.478-2.131,2.435-5.516,4.314l-2.881,4.05
	l-0.24,0.274c-2.213,2.043-3.416,3.666-6.47,1.732l-0.976,0.364c-0.355,0.816-0.377,0.951-0.916,1.553
	c-0.279,2.071-0.447,1.899-2.055,3.54l-0.396,0.304l-3.418,1.921l-0.721,1.382c1.867,2.049,2.107,2.894,1.367,5.577
	c1.061,3.311,0.66,2.56-0.633,6.698l-0.234,0.479c-0.672,0.972-0.758,1.289-1.738,1.792c-0.505,1.629-0.598,3.212-2.613,3.389
	c0.342,0.857,0.399,1.099,0.311,2.012c-0.195,2.021-1.812,4.183-3.048,6.082c-0.767,1.18-1.126,2.258-1.696,3.136
	c0.762,0.381,0.908,1.089,1.02,2.623l0.281,0.264l0.604,0.044c1.629-0.627,2.268-0.867,3.59,0.47c2,1.212,1.615,2.01,1.797,4.425
	l0.785,1.704l0.156,0.593l0.152,1.823l2.058,1.65c2.103,0.082,2.287-0.156,3.79,0.922l0.379,0.368
	c0.717,0.944,0.803,1.604,0.559,2.258c0.322,0.139,0.65,0.36,1.234,0.792l0.403,0.416l3.292,4.77
	c-0.001,0.516,0.891,1.123,1.811,2.516l3.022,1.448l0.604-0.066l1.32-0.145l4.725-3.401l6.185-5.481l4.196-4.947l1.328-2.272
	l0.645,0.059l0.709,0.381l4.418,5.254l2.579,1.349l4.458,2.332l8.665,5.86l0.468,2.126l-0.091,4.004l0.458,0.965l0.521,0.705
	l2.452,1.075l1.23,1.021l1.646,2.342l0.404,0.484l1.166-0.269l1.805-1.708l1.412-2.098l4.528-2.055l0.974,0.124l3.857,3.885
	l2.087,1.224l3.513,1.278l2.209,0.112l4.469-1.008l2.662,0.176l1.569-0.819l1.728-0.901l2.012-0.08l3.43-1.265l1.818,0.378
	l1.871-1.449l2.399-0.279l3.884-1.203l4.236,2.528l-1.395,1.292l-0.254,0.293l-2.11,3.062l-0.437,1.279l-3.443,5.023l-1.154,1.699
	c-1.632,3.866-0.908,3.855-3.885,5.431c-0.855,1.231-0.881,1.502-1.777,2.208c0.615,0.553,3.963,5.518,3.963,5.518l2.32,1.337
	c3.885,2.667,3.873,1.777,4.117,5.963l-0.025,0.423l-0.477,2.591l0.268,2.578l3.492,4.778l0.23,0.427l1.648,4.437l0.111,0.619
	l-0.004,2.562l-0.053,0.425l-1.707,6.867l-0.033,2.395c-0.02,1.542-0.877,2.44-1.676,3.885l-0.221,0.315l-1.75,1.983l-0.35,0.839
	l0.123,2.123l2.201,4.447l0.164,0.53c0.43,2.957,0.103,2.79-2.337,4.641l-0.247,0.157l-6.912,3.622l-2.305,0.97l-0.295,0.094
	l-4.732,1.066c-2.787,1.23-4.209,1.858-5.348,2.4c-1.402,0.667-2.373,1.043-4.936,0.307l-0.396-0.169l-1.729-0.993
	c-0.526,6.261-4.017,6.216-9.464,7.278l-5.334,2.067l-1.482,0.82l-1.834,1.876l-0.334,0.268l-2.492,1.547l-5.377,5.167l-0.977,1.752
	l-1.066,0.416l0.609,1.677l0.205,0.559l1.205,1.258l4.373,2.426l0.854,1.331l1.008,2.74l-0.375,5.648l-0.896,1.13l-2.652,1.505
	l-11.426,8.988l-4.768,0.537l-2.518,0.94l-4.031,4.407l-2.875,1.549l-1.845,0.695l-5.967,1.086l-1.032,0.855l-2.053,3.472
	l-3.869,3.614l-1.366-0.316l-2.024-1.616l-2.346-1.027l-1.168,0.139l-1.021,2.29l-1.236-0.121l-3.15,4.609l-0.254,0.371
	l-2.965,3.217l-2.594,1.244l0.242,1.275l-0.002,1.77l1.312,3.053l0.139,0.577l0.146,2.086l-0.017,0.389l-0.805,5.289l-0.197,0.582
	c-1.428,2.614-1.324,3.786-3.799,4.516l-1.154,1.262c-0.875,2.624-0.5,2.089-2.463,3.929l-0.493,1.111l-0.354,0.522l-0.58,0.591
	c-0.049,0.627-0.032,2.134-0.631,2.744c0.234,1.52,0.088,3.479-1.916,3.676l-0.053,0.204c0.314,3.403,0.219,2.563-1.8,6.045
	l-1.147,3.963c-0.059,1.528,0.01,1.569-0.766,2.813c3.242,9.418-0.002,0.001,3.242,9.418l0.07,0.274l0.812,4.69l0.02,0.471
	l-0.242,2.545l-0.144,0.552l-0.737,1.659c0.404,2.211-2.053,5.314-4.082,2.758c-1.074-0.053-1.515-0.515-2.248-1.241
	c-1.869,0.013-2.101-1.106-2.516-2.606l-0.238-0.279c-0.439-0.066-1.164-0.334-1.342-0.523c-3.354,0.867-2.766,1.061-5.723-0.469
	c-1.498,1.583-1.299,1.693-3.068,2.283l-1.838,1.199l-1.01,1.307l-0.676,3.398c-0.205,4.814,0.463,4.951-3.149,7.305
	c-0.388,5.09,0.001,2.994-2.791,8.623c-0.597,1.199-2.171,1.58-3.334,2.241l-4.134,3.675l-0.502,0.312
	c-1.285,0.531-0.408,0.17-3.158,1.302l-0.586,0.517l-2.029,9.053c-0.364,1.623-2.443,2.273-3.807,3.228l-0.439,0.686l-0.843,4.179
	l-0.097,0.318l-1.379,3.379l-0.158,0.696l-1.178,5.183l-0.188,0.484l-0.416,0.73l-1.137,1.995l-0.015,2.124
	c1.614,6.473,1.151,5.967-2.765,11.654c-1.066,1.55-3.143,2.074-4.756,3.044l-4.406,9.297c-0.89,1.548-0.908,2.034-2.382,2.711
	L377.57,550.51l-0.41,0.322c-4.66,2.651-0.332,0.188-7.768,4.421l-0.365,0.156l-4.488,1.354l-1.32,1.182
	c-0.279,2.938,0.033,2.351-1.226,4.552c-0.493,2.299-0.384,2.03-2.214,3.582c0.01,1.472-1.156,2.035-2.201,2.796l-0.096,0.185
	c0.383,1.854,0.205,2.061-1.004,3.508l-0.113,0.445c0.315,1.433,0.796,2.381,0.301,3.699c0.289,1.395,0.18,2.186-1.135,2.958
	c1.538,2.219,0.979,5.272-2.297,4.548c-0.264,1.161-0.473,1.202-1.309,2.566c-0.441,3.587-2.724,2.865-6.277,3.55l-4.068,4.136
	l-0.371,0.289c-1.544,0.898-1.579,1.086-3.244,0.963c-0.778,0.712-1.916,1.625-3.021,0.749l-0.189-0.042l-2.834,0.358l-1.135,1.281
	c-2.594,5.459-1.183,3.827-5.65,7.28c-3.226,3.382-1.873,2.217-7.281,4.264c-5.974,2.943-4.353,3.207-9.213,2.719
	c-1.064,1.387-1.273,2.092-2.973,2.504l-0.286,0.25c-1.683,3.738-1.471,2.902-6.024,3.999l-0.539,0.044
	c-4.232-0.3-3.915-0.195-5.648-4.061c-1.632,0.655-2.75-0.426-4.178-1.237l-1.086-0.03l-0.795,0.309l-0.842,0.643l-0.85,1.344
	l-0.231,0.833c0.201,3.158,0.229,2.095-0.961,5.614l-1.946,0.867l-5.9,3.814l-2.834,4.601l-0.432,1.111l0.785,6.047l-0.285,1.184
	l-2.415,1.718l-1.911,0.312l-3.392-0.858l-3.623-2.111l-0.909-0.281l-0.714-0.222l-6.248,0.863l-3.096-0.64l-4.134-1.59
	l-4.791-0.921l-16.222-0.284l-9.759-0.171l-25.984,0.222l-22.748,0.192"/>
<path fill-rule="evenodd" clip-rule="evenodd" fill="none" stroke="#646464" stroke-width="2.5512" stroke-linejoin="round" stroke-miterlimit="3.8637" d="
	M64.203,156.32l3.416-2.197l0.581-3.04l1.319-3.18l1.175-4.595l0.161-1.895l0.086-1.007l-0.934-8.56l0.192-1.283l1.522-2.912
	l0.189-1.688l-1.365-3.093l-0.625-3.098l1.391-2.372l0.917-3.244l0.667-0.41l3.15-0.428l2.4-2.244l3.664,1.811l4.475-0.22
	l2.994,1.875l1.947,0.315l1.104-0.071l2.58-2.492l1.877-0.662l2.143,0.249l1.105,0.516l2.287,2.987l1.956,1.815l4.886,1.607
	l1.549,0.509l2.291-0.136l3.131,0.573l4.365,1.686l1.297,0.146l4.499-1.232l4.455-0.138l3.745,1.899l2.347,1.909l3.479,1.119
	l3.021,2.008l1.143,0.46l1.655,0.153l1.976,0.183l1.197,0.668l0.629,0.933l0.917,4.837l-1.003,2.785l-0.256,2.174l1.416,2.073
	l3.34,3.099l0.231,3.176l2.153,3.733l0.69,2.287l-0.249,1.252l-2.398,1.836l-1.725,1.321l-0.608,1.776l1.791,3.841l1.515,1.499
	l1.627,2.696l-0.033,2.345l-1.021,2.04l0.059,0.885l3.93,5.7l0.121,2.291l0.521,0.36l2.02-0.38l2.045-4.36l0.504-1.077l2.837-1.897
	l3.788,0.647l1.449-0.272l2.947-1.013l2.111-1.788l3.102-1.014l1.025,0.034l1.516,0.05l3.335,2.37l8.048,1.863l1.572,0.756
	l0.561,0.27l4.229,3.769l3.428,1.015l2.175-0.382l2.167-1.215l1.75-1.681l6.914-3.962l4.406-3.18l0.605,0.497l6.744,0.338
	l3.588-0.845c3.821-3.992,3.312-3.653,8.542-3.479c1.702,0.057,3.199,1.287,4.624,2.304c1.727,1.233,3.348,2.366,5.102,3.454
	c1.715,0.506,1.6,0.5,2.805,1.894l1.51-0.298l2.143-0.973l0.566-0.15l6.85-0.641l0.247-0.234l1.972-3.729l1.528-4.71
	c-0.692-3.53,1.142-4.003,4.229-4.261c5.268-1.823,8.661-3.929,11.668,2.021l0.591,0.528c1.954,0.104,1.971-0.032,3.419,1.126
	c2.416-2.278,1.929-2.405,4.547-2.949c2.914-1.733,2.469-1.044,7.324-1.4c1.236-2.507,0.926-2.048,3.542-3.497l0.771-0.825
	l0.642-1.923l0.253-0.488l6.18-8.396c1.266-4.339,0.756-5.992,3.209-8.355l0.957-4.279l0.107-0.324l1.491-3.402l-0.091-0.911
	c-2.087-3.457-1.686-2.488-0.959-6.906l-0.26-7.243c-2.615-6.511-2.311-4.031-2.119-9.969l0.062-0.413l0.414-1.506l0.163-0.396
	l2.259-4.025l0.559-3.971l0.076-0.323l1.722-5.061l0.27-0.505l0.95-1.243l0.428-0.399l1.965-1.305l0.325-0.17l2.903-1.154
	l0.627-2.315l-0.545-10.263l-1.77-6.569l-0.049-0.25l-0.715-5.962l-2.182-5.003l-0.128-0.444l-0.226-1.501l0.004-0.558l0.51-3.011
	l0.213-0.592l1.772-3.058l0.089-4.214l0.015-0.739l-0.134-2.42l3.883,0.816l5.456,3.121l3.603,3.029l2.13,0.159l6.899,0.516
	l3.973,2.649l3.557,3.728l1.149,1.911l2.478,4.124l6.572,6.707l5.375,4.302l5.141,1.781l2.352,0.194l1.708-0.337l4.896-1.41
	l3.945-1.137l1.489-0.711l2.704-2.278l3.629-6.259l2.008-2.541l2.759-2.064l0.417-1.185l0.433-5.587L402.118,43l0.847-0.706
	l1.174-0.118l1.742,1.146l4.863,3.198l5.566,1.507l3.793,0.396l6.032-0.215l4.415-1.918l5.924-0.268l3.186-1.434l2.979-4.402
	c0.885-1.389,0.604-0.999,1.85-2.954l1.453-3.619l0.289-0.482l1.005-1.189l0.46-0.387c6.016-3.515,6.818-2.934,11.385,2.301
	l1.414,0.785l1.186-0.011c2.053-1.232,5.594-3.35,7.813-1.16c0.979,0.966,0.167,3.587,0.048,4.3l0.156,0.804l0.824,1.293
	c1.814,1.293,1.572,2.006,2.506,4.564l3.635,2.655l1.584,0.383l0.4,0.15c2.559,1.33,3.408,1.658,4.084,2.202
	c0.695,0.561,1.205,1.35,3.207,3.696c2.623,0.323,3.492,0.297,4.275,0.545c0.737,0.233,1.396,0.707,3.364,1.94
	c2.931,0.804,3.948,0.857,4.755,1.297c0.668,0.365,1.193,0.997,2.545,2.544l0.762-0.085l5.607-3.494l0.34-0.165
	c5.592-2,3.742-2.079,8.889-0.817c2.003,0.05,2.73-0.021,3.367,0.186c0.623,0.202,1.158,0.67,2.713,1.778l2.114,1.183l0.886,0.06
	l0.246-0.12c1.652-3.469,0.965-2.291,4.545-5.312c1.125-2.203,1.963-4.148,2.836-5.663c0.937-1.627,1.945-2.757,4.438-3.177
	l2.469-1.264l0.502-0.168c2.006-0.352,3.475,0.155,4.658,0.572c1.279,0.452,2.225,0.872,3.158,1.987
	c0.75,0.897,1.494,1.97,2.395,3.153l1.012,0.542c2.197,0.496,2.947,0.544,3.584,0.835c0.568,0.259,1.049,0.71,2.389,1.842
	l0.559,0.069l2.225-0.78l2.143-2.359l0.295-0.26c4.425-3.098,2.783-2.663,7.686-2.945l0.18-0.155l2.228-3.572l1.099-1.972
	c0.439-0.789,1.078-1.936,1.645-2.962c0.672-1.22,1.332-2.268,2.738-2.337c0.229-0.494,0.522-0.706,0.906-0.948
	c-0.684-0.641-0.702-1.632-1.254-3.736c-0.305-1.162,1.605-4.731,1.62-4.768l-0.056-0.497l-1.188-2.605l-0.152-0.573l-0.192-2.09
	c-0.427-4.65-0.733-6.606-0.866-8.284c-0.104-1.31-0.213-2.452,0.533-4.574c0.045-2.112-0.225-2.419,0.758-3.931
	c-0.158-0.844-0.259-1.705-0.239-2.317"/>
<path fill="none" stroke="#646464" stroke-width="1.1339" stroke-linejoin="round" stroke-miterlimit="3.8637" d="M478.837,211.867
	c0.523,6.052-1.277,3.187-2.584,6.061c-1.344,2.956-1.836,6.157-6.693,4.852c-3.922-1.054-1.031,2.71-5.654,4.669
	c-1.221,1.795-1.704,3.992-2.836,5.94c-0.104,0.907-0.465,4.204-0.465,5.882c0,2.823-1.975,3.885-4.135,3.885
	c-0.65,0,0.11,2.275-1.141,2.692c0,0-2.367,0.787-4.469,1.049c-1.188,0.148-1.922,2.973-2.376,3.882
	c-0.958,1.916,2.519,4.52,0.808,8.36c-1.01,2.266-1.867,4.063-4.547,4.733c-1.768,0.442,1.777,8.385-5.682,7.186l-0.246,0.422
	c-1.252,2.088-1.973,3.176-4.348,3.176c-2.682,0-0.66,2.214-3.992,3.88c-1.163,0.581,0.64,3.897-1.648,3.611
	c0,0-1.85-0.23-3.703-0.002l0.259,0.556c1.63,3.92-9.038,5.134-10.323,9.632c-0.543,1.897-4.891,5.289-6.457,6.5v2.939
	c0,0.15-0.287,0.77-0.402,0.866l-2.902,2.456c-0.203,1.93,0.09,5.312-1.58,5.312h-2c-0.127,0.243-0.115,0.529-0.115,0.865
	c0,2.226-1.362,3.135-3.135,3.135c-5.234,0-4.269,4.665-6.201,4.749l-5.454,0.237l-4.997,3.094c-0.043,0.026-0.549,0.17-0.598,0.17
	h-4.53l-1.667,1.668c0,0-0.123,0.126-0.342,0.288c-2.125,1.579-3.429,0.163-5.121-1.064l-7.936,3.034l-0.244,0.063l-4.701,0.671
	c-0.414,0.725-1.527,3.59-2.709,3.59h-2.082c-1.203,2.164-0.793,1.875-2.82,2.803c-2.293,1.051-2.818,0.54-4.083,3.07
	c-1.725,3.449-7.21,2.126-6.948-1.764c0.018-0.263,0.049-0.518,0.049-0.744c0-0.486,0.117-0.99-0.373-1.235
	c-1.834-0.917-6.92-3.629-5.859-6.281c0.133-0.332,0.365-0.626,0.475-0.967c0-1.565,2.941-5.536,4.119-6.631l0.258-0.247
	c0.121-0.593,0.16-4.841,0.678-5.406l2.701-2.942c4.017-5.023,2.917-5.542,3.763-11.451c0.388-2.723-2.699-7.029-5.074-8.047
	c-3.046-1.305-2.149-2.893-3.34-4.98c-0.878-1.539-1.996-2.974-3.1-4.354c-1.055-1.318-4.341-6.38-5.86-9.166
	c-1.131-2.074-3.534-0.197-4.41,0.875c-1.86,2.274-3.188,0.698-5.12,3.916c-0.655,1.092-5.467,0.68-6.221,0.021
	c-0.394-0.345-2.387-1.695-2.387-2.604v-8c0-4.1,3.361-3.854,3.004-8.156c-0.079-0.94,1.957-2.526,2.047-2.615
	c0.312-2.823,0.043-1.918,1.986-4.418l0.053-0.515c-3-0.176-3.352-0.199-4.029-1.412c-0.441-0.79-1.168-2.083-2.35-4.25h-1.576
	c-0.078,0-0.641-0.194-0.701-0.242l-3.184-2.5l-5.24-0.142"/>
<path fill-rule="evenodd" clip-rule="evenodd" fill="none" stroke="#646464" stroke-width="1.1339" stroke-linejoin="round" stroke-miterlimit="3.8637" d="
	M192.718,418.406c1.743-1.372,2.752-2.886,2.752-2.886s0.25-1.25,0.5-2.75s0.25-3.5,0.25-3.5s1.75-3.25,2-5s-0.5-3,0.75-3.75
	s2.25-1.75,2.25-3.25s0-2.75,1.25-3.75s3.75-3.5,3.75-3.5l0.5-3.25l3-2l4.75-3c0,0,4,0.5,4-1.75s-0.25-3.75-0.25-3.75l-2-1
	l-0.25-5.25l3.25-6.25c0,0,0.75-2,1.75-2s2-2,0.5-3.75s-2.25-1.5-2.25-3.25s0.5-2.25-0.75-3.5s-2.5-3-1.25-5.5s1.25-4.5,1.25-6v-3
	l-1.83-1.606c0,0,0.08-7.144,0.08-8.144s-0.5-2,1.25-2.25s2.5-0.25,2.5-0.25l1.75,2.25h2.5c0,0,2.5,0.25,3,2.25s1.75,3.5,2.75,4.5
	s3.5,1.75,3.5,1.75s0.5,1.75,0.75,3s-0.25,8.25-0.25,8.25s2.75,2,3.75,1.5s3.25-1,3.25-1s1.75-1.75,2-3s2.5-2.5,3.5-2.75
	s4.25-0.25,5.5-3.5s1.5-7.25,3.5-8.25l4-2c0,0,1.75-0.25,2.75,0.5s3.75,2.5,4.75,2.75s2-0.75,2-2.5s0.25-1.75,0.5-2.75s2-1.5,2-3
	v-7.25l2-4l1.25-4.25c0,0,1.75-1.25,2.75-1.75s2-1.25,2-2.25s-0.25-2,1-2h1.75v-3l5-5h4.25l2.25-2l-4-3h-3.25l-3.5-3.5l-0.238-2.933
	c0,0,3.488-6.317,4.488-7.567s1.25-2.5,3-3s4.25-2.5,4.25-4.5v-4.5l-2.75-0.75l-4.5-3.75v-4l6.25-6.25l1-3.25l4.603-2.423
	l0.397-4.077c0,0,0.25-3.5,0.75-4.5s2.75-7.25,2.75-7.25h-1.75c0,0-1.25,0.25-3.5,1.25s-3,1.5-4.5,0.25s-3-1-4.5,0.25
	s-2.5,3.25-6.75,2.75s-1.75-3-1.75-4.25s-0.75-2.75-0.75-2.75l-7.5-5.25l-3.5-5.75l0.25-9l-3.75-1.75c0,0-2,2-3.5,3s-3,1.75-5.5-0.5
	s-2-4-0.75-5.5s-0.5-5.5-1.5-5.75s-1.25-1-1.25-2.25s-0.5-1.5-2.25-1.5s-2,0-4.25-1s-7.5-2.75-7.5-2.75s-1.5-1-3-2.25
	s-1.25-2-0.5-3.25s3-3.5,3-3.5l3.75-0.25l0.375-5.25l1-3.5"/>
<path fill-rule="evenodd" clip-rule="evenodd" fill="none" stroke="#646464" stroke-width="1.1339" stroke-linejoin="round" stroke-miterlimit="3.8637" d="
	M207.58,557.465c0,0,1.25-3,1.25-3.75s-0.25-2.5-0.25-3.25s-1-3-2.25-4s-0.75-3-1.75-4.5s-2.75-4.25-3.25-5.25s0.5-2.25,0.5-2.25
	s0.25-4,0.25-5s0-2.75,0.5-4s-0.75-1.75-1-3s-1-3.75-2.75-6.5s0.75-3,1.75-3.5s3-2.25,4-3.5s3.75-0.5,3.75-0.5l2.25-2.25
	c0,0-1-2.25-2-3.25s-1.75-2.75-1.25-4.5s-3-2.5-4.75-2s-5.75-0.75-5.75-0.75l0.75-1.75c0,0,2.25-0.25,3.25-0.75s2-1.25,2.25-2
	s1.25-2.75,1.25-4s1.5-1.5,2.25-2s1.75-2.5,1-3.5s0.75-2.25,1.75-3.25s1.5-3,1.5-4.5s0.75-3.75,0.75-3.75s2.75-3.5,3.5-4.5
	s4.25-6.75,4.25-6.75s2-3,2-4.5s2.25-5.75,2.25-5.75s-2.75-3.5-2.75-4.75s-2-2.75-2-2.75s0.25-3.75-0.5-4s-2-1.5-3-2.5
	s-3.25-4-3.25-4s-1,1.25-2.25,2.75s0,2.5,0,2.5s-1,1-2,2s-2,1-3.75,0.25s-1.25-1.5-2-2.5s-1.25-2.75-1.25-2.75s-0.5-2.5-0.5-4.25
	s-2.75-0.25-4.25,0.5s-5.683-0.904-5.683-0.904c0.371-1.214,0.479-3.449-0.176-4.541c-0.75-1.25-1.25-3,1.25-4.5
	c0.449-0.27,0.866-0.563,1.248-0.864c0,0-1.139-4.69-0.889-5.94s0.25-5,0-6s-1.25-2.25-2-2.25s-3.5-1-3.5-1s-4.75-3.25-5.5-5
	s-2.5-4.75-2.5-4.75s-3,0.25-4-0.5s-3-1.5-3.25-0.25s-1.75,2-1.75,2l-2.75-0.25c0,0,0-3.25,0-4.25s0.5-4.25-1.25-3.75
	s-3.5,1.75-3.5,1.75s-2.25-1-2.75,0s-2,2.75-2,2.75s-1,2-1.25,2.75s-1.25,2-1.25,2l-5.75-0.25"/>
<path fill-rule="evenodd" clip-rule="evenodd" fill="none" stroke="#646464" stroke-width="1.1339" stroke-linejoin="round" stroke-miterlimit="3.8637" d="
	M349.986,332.02c0,0,0.484,2.75,0.734,4s2.5,2.5,2.5,2.5s0.75,2.5,1.5,3.75s2.25,2,3,3s3.5,1.75,3.5,1.75l-2.5,4.5
	c0,0-1.5,1.75-2.25,3s-0.75,3.25-0.75,4.75s-0.5,1.25-2,1.5s-0.75,1-0.5,2.25s2.25,6.5,3,8s3.5,4.75,3.5,4.75l0.25,9.5
	c0,0,1,2,2.5,3.5s1.5,3.25,1.5,3.25l1.5,1.75c0,0,1.25,1.5,1.75,3.5s-0.75,2.75-0.75,2.75l-2,2.5v5l-2.5,3.75l2.25,4.25
	c0,0-1.75,1-2.75,1.5s-3.5,2.75-3.5,2.75l-1,2.5c-0.5,1.25-3.75,6-3.75,6h-3c0,0-1.5,1-3.25,2s-9.5,3-9.5,3s-1.25,1.5-2.25,2.75
	s-6.5,5.75-6.5,5.75s0.5,2.25,2,2.5s2.25,0.25,3.25,1.25s0.75,1.25,0.5,2.25s-2.5,1.25-5.25,1.75s-8,3.75-8,3.75l-0.5,2.75
	c0,0-0.25,1-1.75,3s1,2.75,1,2.75s-0.25,2.5-0.25,4.25s-1.5,2-1.5,2s-0.75-1-2.75-1.5s-1.25-0.25-1.5-2.25s-2.25-1.75-2.25-1.75
	l-0.5-2.5c0,0-1.25,0-2.5-0.5s-1-3.5-1-3.5h-4.25c-1.5,0-2.25-0.5-3.5-1s-4-1.75-4-1.75l-0.5-1.5c0,0-1-2.25-1-3.25
	s0.25-7.25,0.25-7.25s-2.75-0.25-4-1s-1.5-1.25-1.5-2.25l0.004-3.776l-2.783,3.142c-1.067,2.823,1.163,6.742-3.443,7.156
	l-0.488,0.041c-0.098,0.01-0.188,0.02-0.264,0.039c-0.109,0.146-0.141,1.429-0.141,1.648c0,0.394-0.296,6.137-0.746,6.705
	c0,0-2.732,3.452-4.607,5.676l-0.031-0.381c-0.6,0.711-1.946,0.946-2.25,1.25c-1.25,1.25-4,2.75-4,2.75l-5.75,0.25c0,0-1.75-2.5-1-4
	s1-3.75,1-3.75s1.25-1.25,1.25-3s0.75-2.5,0.75-3.75s0-2,1.25-2.75s2-1.75,2-1.75l0.25-5.25c0,0,0.5-7.25,0.5-8.25s0.5-3.75,1.25-5
	s1.5-2.5,1.25-4s-1-5.5-1-5.5s-2.75-0.5-3-2.25s-0.5-1.5-2.25-1.75s-2-0.25-2.75,0.75s-2.5,1.75-3.25,0.75s-2.25-1-2.25-1l-3-0.5"/>
<path fill-rule="evenodd" clip-rule="evenodd" fill="none" stroke="#646464" stroke-width="1.1339" stroke-linejoin="round" stroke-miterlimit="3.8637" d="
	M273.971,311.27c0,0,2-0.5,4-0.25s1.75,2.25,1.75,2.25s2.75,0.5,4,0.75s1.75,0.5,1.75,1.5s0.25,2,1,3s3,3.75,3,3.75
	s0.256,0.942,0.422,2.028l0.205,1.385c0.072,0.508-0.049,0.665-0.256,0.836c-1.133,0.934-5.707,1.611-2.969,4.751
	c0.195,0.225,0.358,0.362,0.358,0.362l0.292,0.181c2.236,0.96,4.357,1.289,6.776,1.532c1.55,2.469,2.448,4.041,5.512,4.672
	l0.591,2.213c-2.013,1.216-3.493,2.021-4.625,4.203c-0.427,0.821-0.639,1.491-0.639,1.491l-0.051,0.261c0,0-0.502,6.819-0.502,8.334
	c0,0.584-0.331,2.18-0.719,3.798c-0.371,1.544-0.742,2.903-0.742,2.903l-0.037,0.218l-0.719,10.5l-0.023,0.956l-2.375,2.875h-7.25
	c-2.5,0-4.25,0.25-5.25,1.75s-3,1-3,1l-3.5,3.5l-0.25,4c0,0,2.5,3.5,3.25,5s3,5.5,3,6.75s2.25,3.75,3,5s1,2.25-0.5,2.25
	s-2.5,1.25-2.5,1.25s-0.5-1.5-1.5-1.75s-2.25-0.75-2.25-0.75s-6.25-0.25-7.75-0.25s-1.75,0.25-2.75,0.5s-2.5,2.5-4,3.25
	s-3,4.25-3,4.25l-0.25,2.5c0,0-1,2.5-1.5,3.5s-1,2-1,3.75s-2,4-3,4.75s-8.5,6.75-8.5,6.75l-1-3.5c0,0-1.5-1.5-0.25-3s1-1.75,1-3
	v-2.25l2.25-3.75l-0.25-4.25c0,0-2.75-0.5-4.75-0.5s-3.75-1-3.75-2.75s0.25-2.5-0.5-3.75s-0.75-1.5-2.25-1.5s-2.25-0.5-2.25-0.5
	l-3.75-5.25v-3.5c0,0-1-2.25-2-3.25s-2-1.5-2.75-3s-2.25-1.75-3.25-2.25s-3-0.75-3-0.75h-2.5l-2.75-1.25"/>
<path fill="none" stroke="#646464" stroke-width="1.1339" stroke-linejoin="round" stroke-miterlimit="3.8637" d="M120.908,302.592
	l3.396-0.188c0,0,1.097,2.95,1.595,4.195c0.246,0.615,2.627,6.059,3.191,6.415c0.834,0.524,1.693,0.748,2.356,1.17l0.719-0.595
	c0.56-0.373,2.983-2.983,3.729-3.711c0.746-0.727,3.711-3.356,4.83-4.289c1.119-0.932,3.916-1.678,5.389-1.678
	s1.306-0.746,1.679-1.846c0.373-1.1,1.118-1.119,2.425-1.678c1.305-0.559,3.711-0.746,6.135-0.746s10.797-0.933,12.103-0.933
	s1.474,0.187,1.474,0.933c0,0.746,0,1.864,0,1.864s1.118,0,1.864,0c0.745,0,1.306,0,1.679-0.559c0.373-0.56,1.305-1.492,1.305-1.492
	s1.865-0.187,3.524,0s7.628,0.746,7.628,0.746s2.051-1.679,2.609-2.238c0.561-0.56,1.307-0.56,2.425-0.56c1.119,0,1.306,0,1.306,0
	s1.1,1.492,1.846,2.425c0.746,0.932,1.865,1.864,1.865,1.864l2.983-1.119l1.492-2.424l0.373-2.983l3.151-4.83
	c0,0,0.746-4.644,1.865-6.135c1.118-1.492,3.896-7.627,3.896-7.627s0.56-1.492,1.492-2.051s1.865-3.002,0.373-3.916
	c-1.492-0.914-2.406-1.287-2.778-2.219c-0.373-0.932-3.171-3.729-3.544-4.662c-0.373-0.932-1.305-2.219-0.373-3.524
	c0.934-1.306,2.238-3.357,2.238-3.357s1.865,0,2.051-0.559l0.355-1.492c0,0,0.186-7.087,0.186-7.813
	c0-0.728-0.168-1.101-0.541-2.219c-0.372-1.119-1.118-2.051-1.305-3.357c-0.187-1.305-0.373-3.338-1.305-4.83
	c-0.934-1.492-2.798-5.576-3.171-6.508c-0.373-0.932-0.373-2.424-0.56-3.17s-1.1-2.611-1.473-3.17s-0.56-2.219-0.373-2.965
	c0.186-0.746,0-1.305-0.56-2.424c-0.56-1.119-2.425-4.084-2.798-5.203c-0.373-1.119-0.373-4.476-0.373-4.476
	s0.746-2.219,1.119-2.965c0.373-0.746,0.56-1.306-0.186-2.424c-0.746-1.119-1.119-1.865-1.865-2.611
	c-0.746-0.746-0.187-1.119-1.306-1.306c-1.118-0.187-3.711,0.373-3.711,0.373"/>
<path fill-rule="evenodd" clip-rule="evenodd" fill="none" stroke="#646464" stroke-width="2.5512" stroke-linejoin="round" stroke-miterlimit="3.8637" d="
	M95.963,0.269l-1.848,3.705L93.08,5.847l-5.418,7.736l-1.1,2.592l-2.406,3.139l-2.574,3.358l-3.73,1.938l-4.291,1.38l-9.506-1.053
	l-2.85,0.021l-1.838,0.688l-0.939,1.524l-3.219,3.113l-0.884,1.925l-0.437,0.95l-0.098,1.854l-1.264,3.155l-1.822,2.935
	l-3.551,3.509l-2.033,4.846l-0.945,0.625l-1.787,0.125l-9.566-1.447L29.74,49.35l-2.16,0.853l-1.332,1.133l-2.656,3.783
	l-3.594,6.926l-0.846,2.612l-0.217,3.81l0.24,2.357l1.595,4.314l3.245,5.691l0.049,1.337l-0.25,1.623l-0.717,1.608l-1.02,0.941
	l-5.533,3.326l-0.312,0.238c-1.858,1.776-2.382,2.711-1.374,5.207l0.301,0.493l2.35,2.727l0.26,0.246l6.592,5.086l0.847,2.071
	l2.188,18.205l-0.277,2.694c-0.42,0.363-1.592,1.216-1.775,1.97c-0.918,3.78,0.414,4.111,3.791,5.493
	c2.434,2.42,3.097,3.407,4.008,4.029c0.792,0.54,1.77,0.807,4.254,1.499l2.432,1.657l0.436,0.216l2.695,0.899
	c2.029,1.479,2.939,2.958,5.211,1.523l2.474-0.104l4.608,2.009l4.787,3.849l2.16,2.979l0.522,1l1.419,2.668l0.404,1.202
	l-2.715,0.462l-0.558,0.194l-0.998,0.55l-0.473,0.379l-5.889,6.668l-0.315,0.51c-0.125,0.311-0.574,1.253-0.582,1.762
	c-0.098,6.561-0.105,6.287,4.82,10.69l0.491,0.311c1.612,0.681,2.142,0.977,2.706,1.093c0.535,0.11,1.104,0.058,2.66,0.02
	l0.592-0.118l1.225-0.472l2.133-0.821l3.383,6.329c1.273,4.383,0.523,2.917,3.39,6.527l0.45,0.401l3.217,2.007l0.139,2.187
	l-0.738,2.494l-0.072,0.499l-0.01,4.068c0,0.037,0.13,0.669,0.145,0.703c1.566,3.641,1.778,5.643,6.16,5.209
	c1.107,1.034,1.551,1.459,2.077,1.715c0.618,0.3,1.353,0.364,3.419,0.904c2.1,2.013,2.647,2.805,3.4,3.255
	c0.637,0.381,1.422,0.516,3.422,0.938l0.676,0.19l0.622,1.07l0.368,0.446l0.383,0.333c-0.223,3.498-0.146,2.248,1.258,6.732
	l0.008,1.956l0.264,1.484l2.758,0.619l0.24,0.034l0.866,0.062l0.915,1.685l0.383,0.482l4.11,3.63l0.261,0.19
	c2.795,1.679,2.102,1.644,4.806,1.856l0.597-0.055c1.111-0.298,2.377-0.302,3.348-0.976l0.679-0.146
	c0.243,1.869,0.534,2.017,2.159,2.939c0.512,2.167,0.889,2.001,2.805,4.09c-0.389,0.474-0.473,1.144-0.559,1.717
	c-0.201,1.334,0.322,1.878,1.257,2.707c-0.63,1.101-0.319,1.94,0.401,2.855c-1.414,0.796-1.382,1.688-1.693,3.259
	c-1.542,1.678-1.059,2.309,0.082,4.04c0.008,1.326,0.125,1.675,1.049,2.63c-0.065,0.107-0.124,0.317-0.166,0.554
	c-0.99,0.273-1.381,1.114-1.709,1.979c-0.695,0.088-1.347,0.594-1.536,1.276c-2.376,1.475-2.563,2.78-2.563,2.78l0.019,0.606
	l0.347,1.688c-1.907,3.888-2.49,3.436-1.797,6.719c-0.576,0.97-2.287,2.877-1.221,4.208c-1.374,1.658-0.747,3.921-0.152,5.678
	l0.218,0.437l1.524,2.215l0.004,0.664c-2.641,5.29-2.691,4.561-0.393,10.036l0.286,0.464l1.789,2.095l0.464,0.385l1.73,0.992
	c-6.041,4.652-5.375,3.034-7.961,7.476l-0.186,0.456c-1.186,4.681-0.999,2.797-0.366,8.031l0.276,6.735l1.889,4.041l1.711,9.04
	l2.664,9.14l2.275,13.722l0.262,0.692l1.199,3.185l1.554,9.308l0.88,11.283l0.598,11.686l0.582,11.365l-0.665,3.307l-0.394,18.323
	l-0.381,2.753l-0.85,6.156l-1.588,11.51l2.309,10.9l0.083,4.047l0.481,2.794l0.738,4.279l0.016,2.023l2.583,12.123l1.515,3.929
	l1.455,3.025l5.211,7.959l0.478,0.731l6.136,4.586l5.99,6.397l4.769,6.141l1.131,2.176l2.417,7.924l1.392,4.562l1.836,4.14
	l0.253,5.483l2.883,16.008l0.445,4.782l0.133,1.417l0.346,3.699l0.914,22.413l0.607,8.268l0.398,5.412l-0.275,5.594l0.704,8.834
	l-0.079,12.393l0.395,3.556"/>
</svg>
