<svg xmlns="http://www.w3.org/2000/svg" viewBox="0 0 527.74 613.07"><defs><style>.cls-1{fill:none;stroke:#161608;stroke-miterlimit:10;stroke-width:2px;}</style></defs><title>Fichier 1</title><g id="Calque_2" data-name="Calque 2"><g id="Burundi"><polygon class="cls-1" points="521.62 196.4 518.21 201.43 516.96 203.27 515.3 207.2 513.43 208.19 512.01 210.22 511.05 210.69 510.99 211.8 515.58 218.61 518.2 220.11 521.35 222.28 521.49 224.69 520.97 227.53 521.31 230.83 525.09 236 526.74 240.43 526.73 242.99 524.98 250.06 524.94 252.66 524.93 253.09 523.48 255.71 521.54 257.92 520.92 259.4 521.09 262.29 523.45 267.06 523.68 268.61 521.79 270.04 514.95 273.63 512.72 274.56 507.81 275.67 507.37 275.86 500.48 278.91 498.58 278.36 496.18 276.98 494.85 277.2 494.23 278.4 494.04 280.66 492.93 282.36 491.33 283.44 486.01 284.47 480.41 286.64 478.6 287.64 477.88 288.38 476.58 289.71 473.93 291.35 468.23 296.83 467.12 298.82 468.21 301.77 468.42 302.33 469.62 303.59 474 306.01 474.85 307.34 475.86 310.08 475.48 315.73 474.59 316.86 471.93 318.37 460.51 327.35 455.74 327.89 453.22 328.83 449.19 333.24 446.32 334.79 444.47 335.48 438.5 336.57 437.47 337.43 435.42 340.9 431.55 344.51 430.19 344.19 428.16 342.58 425.81 341.55 424.65 341.69 423.63 343.98 422.39 343.86 419.24 348.47 418.98 348.84 416.02 352.06 411.88 354.04 411.9 356.72 413.35 360.1 413.5 362.18 412.69 367.47 410.83 370.88 409.47 371.28 407.73 373.18 406.97 375.47 405.36 376.98 404.72 378.42 403.69 379.47 403.51 381.75 402.67 382.61 403.2 384.3 402.88 384.89 401.45 385.03 401.01 386.73 401.22 389.01 399.36 392.22 398.1 396.6 398.04 398.03 397.14 399.48 400.42 409 400.66 409.69 401.47 414.38 401.23 416.93 400.27 419.09 400.47 420.19 399.63 421.24 398.91 420.33 397.74 420.28 396.5 419.05 395.33 419.06 394.87 417.36 393.75 416.06 392.97 416.2 392.12 415.3 388.69 416.36 385.95 414.94 384.98 415.41 383.24 417.25 382.12 417.62 379.84 419.11 378.39 420.98 377.61 424.92 377.43 429.11 376.88 429.9 374.52 431.43 374.21 435.5 371.84 440.27 369.06 441.85 364.79 445.65 364.4 445.81 361.35 447.06 360.11 448.16 357.96 457.77 354.58 460.14 353.77 461.4 352.86 465.9 351.43 469.42 351.24 470.25 350.06 475.44 349.64 476.17 348.28 478.56 348.26 481.37 349.15 484.95 348.74 487.55 345.81 491.81 341.14 494.62 336.54 504.33 335.59 505.98 334.98 506.26 334.56 506.45 322.56 519.14 320.23 520.47 314.79 523.57 309.92 525.03 307.79 526.94 307.49 530.14 306.59 531.71 306.21 533.47 304.27 535.12 304.28 536.22 302.47 537.54 301.89 538.65 302.23 540.28 301.13 541.59 300.81 542.84 301.42 545.57 301.35 545.74 301.1 546.42 301.37 547.72 299.69 548.71 299.49 549.3 301.07 551.57 300.56 552.49 297.69 551.86 297.77 553.94 296.48 556.04 296.3 557.54 291.04 558.55 286.59 563.08 285.23 563.87 283.6 563.75 282.31 564.93 281.66 564.42 280.8 564.52 277.31 564.97 275.56 566.93 273.45 571.38 270.21 573.88 268.15 576.05 263.42 577.84 257.65 580.68 254.59 580.37 253.82 580.7 252.46 582.46 252.21 582.8 251.1 583.07 250.2 583.86 249.11 586.28 245.21 587.22 242.68 587.03 242.16 586.65 240.64 583.26 239.86 583.01 238.36 583.41 235.75 581.92 233.87 581.87 232.51 582.4 231.21 583.39 230.06 585.22 229.67 586.59 229.82 588.88 228.78 591.96 228.55 593.26 222.65 597.08 219.82 601.68 219.38 602.79 220.17 608.83 219.88 610.02 217.47 611.74 215.56 612.05 212.17 611.19 208.54 609.08 207.63 608.8 206.92 608.57 200.67 609.44 197.58 608.8 193.44 607.21 188.65 606.29 172.43 606 162.67 605.83 136.69 606.05 113.94 606.25 113.55 602.69 113.62 590.3 112.92 581.46 113.2 575.87 112.8 570.46 112.19 562.19 111.28 539.78 110.93 536.08 110.8 534.66 110.35 529.88 107.47 513.87 107.22 508.39 105.38 504.25 103.99 499.69 101.57 491.76 100.44 489.59 95.67 483.45 89.68 477.05 83.55 472.46 83.07 471.73 77.86 463.77 76.4 460.75 74.89 456.82 72.31 444.69 72.29 442.67 71.55 438.39 71.07 435.6 70.99 431.55 68.68 420.65 70.27 409.14 71.12 402.99 71.5 400.23 71.89 381.91 72.56 378.6 71.97 367.24 71.38 355.55 70.5 344.27 68.94 334.96 67.74 331.78 67.48 331.08 65.21 317.36 62.54 308.22 60.83 299.18 60.74 296.7 60.43 288.27 59.92 284.06 60.75 280.81 61.9 278.83 69.38 272.97 69.48 272.66 69.59 272.33 69.07 271.49 66.33 269.92 64.54 267.82 63.09 264.37 63.21 262.61 65.07 258.88 65.06 257.25 63.23 254.59 62.7 253.03 63.08 250.48 64.7 250.28 64.5 248.97 63.13 248.39 64.8 245.58 64.33 243.37 66.24 239.48 66.58 238.79 66.11 236.51 66.3 235.2 68.12 235.78 68.63 233.95 70.64 234.46 69.99 233.16 70.44 231.98 72.12 231.52 71.79 230.67 72.63 229.49 71.06 227.87 71.05 226.5 69.94 224.81 70.84 223.83 71.28 221.61 72.83 220.43 73.02 219.58 71.85 218.08 72.75 216.51 70.92 214.89 70.99 214.44 71.11 213.65 71.75 212.87 71.62 211.82 68.94 208.9 68.54 207.21 66.72 206.18 66.58 205.13 67.22 204.02 66.89 203.18 63.78 203.85 63.39 203.59 63.33 204.04 60.35 204.84 58.79 204.72 56.31 203.23 52.21 199.6 50.83 197.07 49 196.94 47.34 196.82 47.35 196.59 47.37 194.35 45.99 189.92 46.16 187.12 45.12 186.21 44.14 184.52 42.72 184.12 40.01 183.55 36.36 180.05 32.62 179.07 30.6 177.19 28.48 177.4 26.97 176.67 25.89 174.16 25.44 173.12 25.45 169.05 26.28 166.25 26.06 162.85 22.07 160.36 19.93 157.66 18.94 154.26 14.88 146.66 14.22 146.58 11.14 147.77 9.92 148.24 7.72 148.3 5.29 147.27 2.1 144.43 1 141.45 1.05 137.93 1.51 136.8 7.4 130.13 8.4 129.58 12.21 128.93 12.74 127.53 12.12 125.61 13.89 123.97 14.47 120.94 15.79 117.75 16.96 113.16 17.13 111.27 17.21 110.26 16.28 101.7 16.47 100.42 17.99 97.5 18.18 95.82 16.82 92.72 16.19 89.63 17.58 87.25 18.5 84.01 19.17 83.6 22.32 83.17 24.72 80.93 28.38 82.74 32.86 82.52 35.85 84.39 37.8 84.71 38.9 84.64 41.48 82.15 43.36 81.49 45.5 81.73 46.61 82.25 48.89 85.24 50.85 87.05 55.73 88.66 57.28 89.17 59.58 89.03 62.71 89.61 67.07 91.29 68.37 91.44 72.87 90.21 77.32 90.07 81.07 91.97 83.41 93.88 86.89 95 89.92 97 91.06 97.46 92.71 97.62 94.69 97.8 95.89 98.47 96.51 99.4 97.43 104.24 96.43 107.02 96.42 107.06 96.17 109.2 97.59 111.27 100.93 114.37 101.16 117.55 103.31 121.28 104 123.56 103.75 124.82 101.36 126.65 99.63 127.97 99.02 129.75 100.81 133.59 102.33 135.09 103.96 137.79 103.92 140.13 102.9 142.17 102.96 143.06 106.89 148.76 107.01 151.05 107.53 151.41 109.55 151.03 111.6 146.67 112.1 145.59 114.94 143.69 118.72 144.34 120.17 144.07 123.12 143.06 125.23 141.27 128.33 140.25 129.36 140.29 130.88 140.34 134.21 142.71 142.26 144.57 143.83 145.33 144.39 145.6 148.62 149.37 152.05 150.38 154.22 150 156.39 148.78 158.14 147.1 165.05 143.14 169.5 142.28 169.81 142.21 175.72 142.51 176.97 142.57 181.31 141.55 181.36 141.5 184.08 138.66 185.57 138.13 185.94 138.14 188.88 138.24 197.93 143.86 199.23 144.24 200.8 146.06 203.52 145.52 205.85 144.46 213.31 143.76 214.21 142.91 216.22 139.11 216.39 138.79 218.11 133.5 217.84 132.13 218.35 131.08 220.88 130.87 226.26 129.01 228.14 129.13 229.83 130.42 230.75 132.25 232.06 133.41 234.26 133.53 236.29 135.15 239.77 131.86 241.39 131.53 242.94 130.6 248.78 130.18 249.61 129.45 250.45 127.62 252.71 126.37 253.93 125.06 254.7 122.77 261.06 114.12 263.15 106.95 264.27 105.88 265.34 101.08 266.32 98.85 267.02 97.25 266.85 95.48 265.33 92.97 265.94 89.26 265.66 81.53 263.43 75.97 263.52 72.98 263.56 71.99 263.97 70.49 266.39 66.17 267 61.87 268.72 56.81 269.67 55.57 271.63 54.26 275.36 52.78 276.29 49.34 275.91 42.23 275.72 38.6 273.9 31.86 273.16 25.64 270.87 20.39 270.64 18.89 271.15 15.88 273.15 12.43 273.25 7.76 273.27 6.95 274.59 5.39 274.63 5.38 275.23 5.38 280.7 8.5 284.31 11.53 286.44 11.69 293.33 12.2 297.31 14.85 300.86 18.58 302.01 20.49 304.49 24.62 311.06 31.32 316.44 35.62 321.58 37.41 323.93 37.6 325.64 37.26 330.53 35.85 334.48 34.72 335.97 34 338.67 31.73 342.3 25.47 344.31 22.93 347.07 20.86 347.48 19.68 347.92 14.09 348.39 12.85 349.23 12.15 350.41 12.03 352.15 13.17 357.01 16.37 362.58 17.88 366.37 18.27 372.4 18.06 376.82 16.14 382.74 15.87 385.93 14.44 389.07 13.03 389.52 12.32 390.92 10.12 392.34 7.9 393.85 4.12 394.86 2.94 397.94 1.14 399.54 1.01 401.2 1.64 404.22 5.1 406.31 6.27 408.45 6.25 411.26 4.56 412.48 4.41 414.14 4.21 414.52 4.58 414.01 7.65 414.29 9.09 415.48 10.96 416.45 11.65 417.82 15.39 422.17 18.58 424.1 19.04 427.85 20.99 431.31 25.04 435.92 25.61 436.17 25.64 439.13 27.49 444.05 28.84 446.42 31.56 444.88 32.62 439.57 35.81 436 41.85 432.83 45.96 428.91 54.91 427.22 60.41 426.78 61.86 423.74 68.11 421.44 74.58 418.22 77.99 410.73 91.88 410.07 93.09 408.02 96.55 406.12 98.39 405.48 99.58 405.46 102.75 406.6 104.24 409.01 105.4 412.11 106.23 414.6 109.11 416.15 109.42 419.38 107.02 424.7 104.2 427.52 102.71 430.64 99.51 432.55 98.26 433.84 99.32 435.9 100.32 435.23 105.11 432.91 108.35 428.98 110.53 425.87 114.91 424.15 116.5 423.69 116.92 422.31 116.93 420.8 115.98 418.3 116.91 417.62 118.47 417.05 118.89 416.8 120.72 415.39 122.16 411.51 124.34 409.98 127.28 411.81 129.29 412.14 130.79 411.63 132.62 412.37 134.9 411.16 138.75 410.39 139.87 409.48 140.07 408.53 143.14 406.91 143.28 406.27 144.72 406.87 146.22 406.81 146.78 406.75 147.46 401.88 155.97 400.78 157.02 401.37 157.47 402.99 157.66 403.14 159.61 404.38 160.78 406 160.9 407.55 160.3 408.22 160.97 409.16 161.54 409.38 164.45 410.3 166.44 410.51 169.02 413.62 171.51 416.32 171.62 417.03 172.13 417.42 172.64 416.35 174.2 416.54 174.59 418.41 174.96 419.18 175.53 422.96 180.99 423.77 181.06 424.27 181.92 428.76 183.26 429.37 183.19 430.69 183.05 435.41 179.65 441.6 174.16 445.79 169.22 447.12 166.94 447.77 167 448.48 167.38 452.89 172.64 455.47 173.99 459.93 176.32 468.6 182.18 469.06 184.31 468.97 188.31 469.43 189.27 469.95 189.98 472.4 191.06 473.63 192.08 475.28 194.42 475.68 194.9 476.85 194.63 478.65 192.93 480.07 190.83 484.6 188.77 485.57 188.9 489.43 192.78 491.51 194 495.02 195.28 497.23 195.4 501.7 194.39 504.37 194.56 505.94 193.74 507.66 192.84 509.67 192.76 513.1 191.5 514.92 191.88 516.79 190.43 519.19 190.15 523.08 188.95 524.2 189.61 525.52 190.81 524.01 192.2 521.9 195.26 521.62 196.4"/></g></g></svg>